<?xml version="1.0" encoding="UTF-8"?>
<svg xmlns="http://www.w3.org/2000/svg" xmlns:xlink="http://www.w3.org/1999/xlink" width="16px" height="16px" viewBox="0 0 16 16" version="1.1">
<g id="surface1">
<path style=" stroke:none;fill-rule:nonzero;fill:rgb(11.372549%,11.372549%,10.588235%);fill-opacity:1;" d="M 5.890625 3 C 5.601562 2.039062 4.71875 1.332031 3.667969 1.332031 C 2.613281 1.332031 1.730469 2.039062 1.441406 3 L 0 3 L 0 4.332031 L 1.441406 4.332031 C 1.730469 5.292969 2.613281 6 3.667969 6 C 4.71875 6 5.601562 5.292969 5.890625 4.332031 L 16 4.332031 L 16 3 Z M 3.667969 4.667969 C 3.117188 4.667969 2.667969 4.21875 2.667969 3.667969 C 2.667969 3.117188 3.117188 2.667969 3.667969 2.667969 C 4.21875 2.667969 4.667969 3.117188 4.667969 3.667969 C 4.667969 4.21875 4.21875 4.667969 3.667969 4.667969 Z M 3.667969 4.667969 "/>
<path style=" stroke:none;fill-rule:nonzero;fill:rgb(11.372549%,11.372549%,10.588235%);fill-opacity:1;" d="M 12.332031 5.667969 C 11.28125 5.667969 10.398438 6.371094 10.109375 7.332031 L 0 7.332031 L 0 8.667969 L 10.109375 8.667969 C 10.398438 9.628906 11.28125 10.332031 12.332031 10.332031 C 13.386719 10.332031 14.269531 9.628906 14.558594 8.667969 L 16 8.667969 L 16 7.332031 L 14.558594 7.332031 C 14.269531 6.371094 13.386719 5.667969 12.332031 5.667969 Z M 12.332031 9 C 11.78125 9 11.332031 8.550781 11.332031 8 C 11.332031 7.449219 11.78125 7 12.332031 7 C 12.882812 7 13.332031 7.449219 13.332031 8 C 13.332031 8.550781 12.882812 9 12.332031 9 Z M 12.332031 9 "/>
<path style=" stroke:none;fill-rule:nonzero;fill:rgb(11.372549%,11.372549%,10.588235%);fill-opacity:1;" d="M 6 10 C 4.945312 10 4.066406 10.707031 3.777344 11.667969 L 0 11.667969 L 0 13 L 3.777344 13 C 4.066406 13.960938 4.945312 14.667969 6 14.667969 C 7.054688 14.667969 7.933594 13.960938 8.222656 13 L 16 13 L 16 11.667969 L 8.222656 11.667969 C 7.933594 10.707031 7.054688 10 6 10 Z M 6 13.332031 C 5.449219 13.332031 5 12.882812 5 12.332031 C 5 11.78125 5.449219 11.332031 6 11.332031 C 6.550781 11.332031 7 11.78125 7 12.332031 C 7 12.882812 6.550781 13.332031 6 13.332031 Z M 6 13.332031 "/>
</g>
</svg>
