<?xml version="1.0" encoding="UTF-8"?>
<svg xmlns="http://www.w3.org/2000/svg" xmlns:xlink="http://www.w3.org/1999/xlink" width="16px" height="16px" viewBox="0 0 16 16" version="1.1">
<g id="surface1">
<path style=" stroke:none;fill-rule:evenodd;fill:rgb(11.372549%,11.372549%,10.588235%);fill-opacity:1;" d="M 8 1.945312 C 4.609375 1.945312 2.585938 3.148438 2.585938 3.148438 L 2.625 5.875 C 2.625 7.121094 3.039062 12.464844 8 15.367188 C 12.960938 12.464844 13.378906 7.128906 13.378906 5.875 L 13.414062 3.148438 C 13.414062 3.148438 11.394531 1.945312 8 1.945312 Z M 8 1.945312 "/>
<path style=" stroke:none;fill-rule:evenodd;fill:rgb(100%,92.54902%,0%);fill-opacity:1;" d="M 13.210938 3.34375 C 13.210938 3.34375 11.453125 2.222656 8 2.222656 C 4.546875 2.222656 2.789062 3.34375 2.789062 3.34375 L 2.847656 5.878906 C 2.847656 6.871094 3.039062 12.191406 8.003906 15.078125 C 12.964844 12.191406 13.15625 6.871094 13.15625 5.878906 Z M 13.210938 3.34375 "/>
<path style=" stroke:none;fill-rule:nonzero;fill:rgb(11.372549%,11.372549%,10.588235%);fill-opacity:1;" d="M 7.878906 2.640625 C 7.875 2.671875 7.867188 2.703125 7.859375 2.734375 C 7.84375 2.765625 7.808594 2.785156 7.8125 2.808594 C 7.820312 2.835938 7.84375 2.859375 7.871094 2.871094 C 7.898438 2.890625 7.925781 2.902344 7.953125 2.910156 C 7.984375 2.917969 8.027344 2.941406 8.03125 2.910156 C 8.042969 2.878906 8.03125 2.84375 8.007812 2.820312 C 7.972656 2.761719 7.957031 2.75 7.90625 2.671875 C 7.902344 2.660156 7.894531 2.640625 7.878906 2.640625 Z M 7.878906 2.640625 "/>
<path style=" stroke:none;fill-rule:nonzero;fill:rgb(11.372549%,11.372549%,10.588235%);fill-opacity:1;" d="M 7.625 8.675781 C 7.625 8.664062 7.707031 8.714844 7.75 8.738281 C 7.820312 8.78125 7.890625 8.828125 7.953125 8.878906 C 8.015625 8.925781 8.042969 8.949219 8.105469 9.003906 C 8.167969 9.054688 8.222656 9.125 8.246094 9.109375 C 8.273438 9.078125 8.195312 8.972656 8.128906 8.914062 C 8.0625 8.859375 7.992188 8.816406 7.9375 8.777344 C 7.886719 8.738281 7.863281 8.71875 7.761719 8.652344 C 7.6875 8.601562 7.617188 8.546875 7.554688 8.484375 L 7.445312 8.40625 L 7.28125 8.261719 L 7.09375 8.089844 L 6.953125 7.929688 C 6.953125 7.929688 6.84375 7.792969 6.828125 7.769531 C 6.808594 7.75 6.757812 7.660156 6.714844 7.589844 C 6.671875 7.519531 6.601562 7.429688 6.597656 7.421875 C 6.554688 7.371094 6.457031 7.390625 6.355469 7.328125 C 6.292969 7.300781 6.234375 7.25 6.195312 7.191406 C 6.191406 7.1875 6.191406 7.179688 6.1875 7.175781 C 6.179688 7.171875 6.175781 7.167969 6.171875 7.167969 L 6.105469 7.121094 L 6.066406 7.09375 C 6.046875 7.078125 6.023438 7.0625 6 7.054688 C 5.964844 7.039062 5.882812 6.988281 5.882812 6.988281 L 5.730469 6.890625 L 5.65625 6.828125 C 5.636719 6.816406 5.617188 6.804688 5.597656 6.792969 C 5.589844 6.789062 5.578125 6.785156 5.566406 6.78125 L 5.53125 6.78125 C 5.507812 6.777344 5.484375 6.789062 5.472656 6.804688 C 5.441406 6.839844 5.449219 6.820312 5.496094 7.011719 C 5.515625 7.09375 5.515625 7.355469 5.535156 7.429688 C 5.5625 7.515625 5.597656 7.601562 5.640625 7.683594 C 5.648438 7.707031 5.652344 7.734375 5.652344 7.757812 C 5.648438 7.785156 5.648438 7.8125 5.652344 7.835938 C 5.675781 7.976562 5.875 7.886719 5.921875 8.074219 C 5.945312 8.195312 5.933594 8.324219 5.894531 8.445312 C 5.894531 8.445312 5.851562 8.539062 5.789062 8.550781 C 5.726562 8.566406 5.632812 8.433594 5.566406 8.324219 C 5.511719 8.226562 5.464844 8.128906 5.425781 8.027344 C 5.414062 8 5.398438 7.96875 5.378906 7.941406 C 5.347656 7.894531 5.324219 7.902344 5.292969 7.828125 C 5.257812 7.75 5.292969 7.71875 5.273438 7.652344 C 5.261719 7.617188 5.253906 7.613281 5.242188 7.558594 C 5.234375 7.507812 5.21875 7.339844 5.21875 7.339844 L 5.203125 7.1875 C 5.203125 7.1875 5.195312 7.113281 5.1875 7.070312 C 5.164062 6.96875 5.152344 6.867188 5.140625 6.765625 L 5.140625 6.640625 C 5.136719 6.621094 5.136719 6.597656 5.140625 6.578125 C 5.148438 6.558594 5.152344 6.539062 5.164062 6.519531 C 5.164062 6.519531 5.195312 6.46875 5.199219 6.453125 C 5.222656 6.425781 5.246094 6.394531 5.269531 6.367188 C 5.300781 6.34375 5.328125 6.324219 5.359375 6.304688 C 5.390625 6.285156 5.429688 6.273438 5.464844 6.273438 C 5.503906 6.273438 5.539062 6.277344 5.574219 6.28125 C 5.691406 6.304688 5.808594 6.332031 5.925781 6.363281 C 5.976562 6.375 6.023438 6.394531 6.070312 6.417969 C 6.183594 6.480469 6.210938 6.453125 6.128906 6.382812 C 6.082031 6.347656 6.039062 6.3125 6 6.273438 C 5.960938 6.234375 5.929688 6.210938 5.898438 6.175781 C 5.867188 6.140625 5.78125 6.015625 5.78125 6.015625 L 5.726562 5.933594 C 5.726562 5.933594 5.699219 5.902344 5.695312 5.902344 L 5.679688 5.886719 C 5.65625 5.890625 5.632812 5.890625 5.609375 5.886719 C 5.570312 5.886719 5.554688 5.929688 5.554688 5.929688 C 5.507812 6.015625 5.453125 6.097656 5.394531 6.171875 C 5.292969 6.273438 5.199219 6.382812 5.117188 6.5 C 5.046875 6.609375 5.0625 6.730469 5.027344 6.785156 C 5.011719 6.804688 4.996094 6.828125 4.984375 6.847656 C 4.953125 6.9375 5.074219 6.988281 5.046875 7.078125 C 5.003906 7.230469 4.644531 7.378906 4.601562 7.355469 C 4.554688 7.332031 4.589844 7.125 4.601562 7.058594 C 4.617188 7 4.640625 6.945312 4.671875 6.890625 C 4.679688 6.875 4.6875 6.859375 4.691406 6.84375 C 4.691406 6.8125 4.699219 6.785156 4.699219 6.753906 C 4.703125 6.734375 4.707031 6.710938 4.710938 6.691406 C 4.71875 6.664062 4.730469 6.640625 4.742188 6.613281 C 4.777344 6.542969 4.890625 6.386719 4.972656 6.234375 C 5.027344 6.136719 5.054688 6.074219 5.113281 5.976562 C 5.171875 5.878906 5.25 5.746094 5.25 5.746094 C 5.25 5.746094 5.289062 5.675781 5.304688 5.648438 L 5.386719 5.519531 C 5.410156 5.472656 5.441406 5.429688 5.476562 5.390625 C 5.507812 5.359375 5.542969 5.335938 5.585938 5.324219 C 5.648438 5.304688 5.71875 5.304688 5.78125 5.332031 C 5.847656 5.351562 5.90625 5.382812 5.960938 5.429688 C 5.988281 5.453125 6.015625 5.476562 6.039062 5.503906 L 6.0625 5.539062 L 6.078125 5.550781 L 6.125 5.578125 L 6.230469 5.648438 L 6.496094 5.828125 C 6.519531 5.847656 6.539062 5.863281 6.5625 5.878906 C 6.574219 5.878906 6.644531 5.808594 6.769531 5.71875 C 6.847656 5.664062 6.9375 5.621094 7.027344 5.59375 C 7.066406 5.570312 7.105469 5.539062 7.136719 5.503906 C 7.179688 5.449219 7.226562 5.390625 7.265625 5.332031 C 7.300781 5.28125 7.34375 5.238281 7.390625 5.199219 C 7.390625 5.199219 7.398438 5.191406 7.519531 5.0625 C 7.585938 4.988281 7.648438 4.910156 7.699219 4.820312 L 7.765625 4.683594 C 7.765625 4.683594 7.859375 4.480469 7.890625 4.398438 C 7.90625 4.367188 7.914062 4.328125 7.921875 4.292969 C 7.921875 4.269531 7.914062 4.246094 7.902344 4.230469 C 7.878906 4.1875 7.855469 4.207031 7.808594 4.21875 C 7.730469 4.226562 7.652344 4.222656 7.578125 4.199219 C 7.5 4.183594 7.457031 4.160156 7.375 4.144531 C 7.304688 4.128906 7.234375 4.121094 7.164062 4.128906 C 7.144531 4.128906 7.128906 4.132812 7.113281 4.136719 C 7.078125 4.144531 7.046875 4.160156 7.019531 4.175781 C 6.984375 4.195312 6.945312 4.203125 6.90625 4.203125 C 6.878906 4.203125 6.851562 4.199219 6.828125 4.191406 C 6.808594 4.1875 6.792969 4.179688 6.78125 4.164062 L 6.757812 4.140625 C 6.757812 4.132812 6.757812 4.125 6.757812 4.117188 C 6.769531 4.101562 6.777344 4.101562 6.777344 4.101562 L 6.816406 4.09375 L 6.878906 4.078125 L 6.960938 4.054688 C 6.976562 4.050781 6.992188 4.042969 7.007812 4.035156 C 7.007812 4.035156 7.019531 4.011719 7.015625 4 C 7.011719 3.988281 6.980469 3.984375 6.980469 3.984375 L 6.933594 4.003906 L 6.859375 4.023438 L 6.765625 4.042969 C 6.734375 4.050781 6.699219 4.054688 6.667969 4.058594 L 6.640625 4.058594 C 6.640625 4.058594 6.621094 4.042969 6.617188 4.03125 C 6.613281 4.019531 6.613281 4.007812 6.617188 3.996094 C 6.601562 3.949219 6.601562 3.902344 6.609375 3.855469 C 6.613281 3.839844 6.621094 3.820312 6.628906 3.804688 C 6.636719 3.789062 6.644531 3.777344 6.652344 3.761719 L 6.683594 3.707031 L 6.746094 3.617188 C 6.765625 3.597656 6.785156 3.582031 6.808594 3.570312 C 6.839844 3.550781 6.878906 3.539062 6.917969 3.539062 C 6.960938 3.535156 7 3.527344 7.039062 3.519531 C 7.082031 3.511719 7.121094 3.496094 7.15625 3.476562 C 7.15625 3.476562 7.316406 3.417969 7.421875 3.367188 C 7.503906 3.3125 7.589844 3.261719 7.679688 3.21875 C 7.71875 3.199219 7.757812 3.1875 7.800781 3.175781 C 7.804688 3.175781 7.808594 3.167969 7.808594 3.164062 C 7.808594 3.144531 7.785156 3.136719 7.769531 3.140625 C 7.75 3.144531 7.714844 3.160156 7.707031 3.140625 C 7.699219 3.125 7.742188 3.117188 7.742188 3.117188 C 7.742188 3.117188 7.761719 3.109375 7.761719 3.097656 C 7.761719 3.085938 7.734375 3.097656 7.722656 3.097656 C 7.683594 3.09375 7.644531 3.082031 7.609375 3.070312 C 7.566406 3.054688 7.519531 3.042969 7.46875 3.039062 C 7.429688 3.039062 7.386719 3.042969 7.347656 3.054688 C 7.320312 3.054688 7.320312 3.035156 7.332031 3.027344 C 7.371094 3 7.421875 2.984375 7.46875 2.984375 C 7.496094 2.984375 7.523438 2.984375 7.550781 2.992188 C 7.578125 2.996094 7.609375 2.988281 7.636719 2.972656 C 7.652344 2.957031 7.582031 2.957031 7.550781 2.945312 C 7.515625 2.933594 7.46875 2.929688 7.472656 2.910156 C 7.480469 2.890625 7.5 2.902344 7.511719 2.898438 C 7.53125 2.894531 7.550781 2.894531 7.566406 2.898438 C 7.585938 2.898438 7.605469 2.890625 7.660156 2.882812 C 7.703125 2.882812 7.75 2.890625 7.792969 2.902344 L 7.914062 2.957031 C 7.941406 2.96875 7.972656 2.980469 8 2.988281 C 8.039062 2.992188 8.078125 2.980469 8.113281 2.957031 C 8.15625 2.929688 8.128906 2.914062 8.113281 2.890625 C 8.089844 2.851562 8.089844 2.804688 8.113281 2.769531 C 8.136719 2.714844 8.148438 2.648438 8.15625 2.640625 C 8.164062 2.636719 8.199219 2.6875 8.222656 2.707031 C 8.332031 2.777344 8.429688 2.867188 8.507812 2.972656 C 8.511719 2.984375 8.550781 2.964844 8.667969 2.984375 C 8.761719 3.015625 8.84375 3.074219 8.902344 3.152344 C 8.917969 3.171875 8.9375 3.179688 8.960938 3.179688 L 9.21875 3.179688 C 9.261719 3.171875 9.308594 3.171875 9.355469 3.179688 C 9.394531 3.195312 9.515625 3.277344 9.460938 3.308594 C 9.402344 3.339844 9.378906 3.28125 9.347656 3.28125 C 9.316406 3.277344 9.28125 3.285156 9.25 3.292969 C 9.171875 3.3125 9.003906 3.363281 9.066406 3.386719 L 9.109375 3.386719 C 9.148438 3.394531 9.1875 3.40625 9.226562 3.421875 C 9.28125 3.445312 9.335938 3.476562 9.386719 3.511719 C 9.414062 3.535156 9.445312 3.550781 9.476562 3.5625 C 9.507812 3.566406 9.539062 3.566406 9.570312 3.5625 C 9.613281 3.570312 9.652344 3.582031 9.691406 3.601562 C 9.738281 3.636719 9.785156 3.671875 9.828125 3.714844 C 9.855469 3.734375 9.882812 3.738281 9.90625 3.765625 C 9.914062 3.769531 9.917969 3.777344 9.917969 3.78125 C 9.929688 3.808594 9.875 3.792969 9.851562 3.78125 C 9.824219 3.777344 9.800781 3.765625 9.78125 3.75 C 9.75 3.730469 9.714844 3.714844 9.675781 3.703125 C 9.648438 3.699219 9.625 3.699219 9.597656 3.703125 C 9.566406 3.703125 9.546875 3.710938 9.515625 3.710938 C 9.46875 3.710938 9.421875 3.707031 9.378906 3.695312 C 9.320312 3.683594 9.289062 3.660156 9.226562 3.648438 C 9.167969 3.632812 9.042969 3.578125 9.058594 3.632812 C 9.058594 3.660156 9.125 3.683594 9.125 3.683594 C 9.125 3.683594 9.167969 3.707031 9.203125 3.726562 C 9.230469 3.734375 9.25 3.75 9.269531 3.769531 L 9.296875 3.792969 C 9.296875 3.792969 9.328125 3.832031 9.363281 3.878906 C 9.390625 3.90625 9.429688 3.921875 9.46875 3.921875 C 9.511719 3.921875 9.554688 3.929688 9.59375 3.9375 C 9.703125 3.960938 9.800781 4.015625 9.875 4.097656 C 9.914062 4.144531 9.890625 4.167969 9.886719 4.171875 C 9.882812 4.179688 9.886719 4.171875 9.878906 4.171875 C 9.871094 4.171875 9.824219 4.113281 9.824219 4.113281 L 9.804688 4.121094 C 9.78125 4.105469 9.753906 4.09375 9.726562 4.082031 C 9.679688 4.070312 9.667969 4.082031 9.667969 4.082031 C 9.609375 4.097656 9.550781 4.105469 9.492188 4.105469 C 9.449219 4.105469 9.410156 4.09375 9.371094 4.074219 L 9.320312 4.039062 C 9.320312 4.039062 9.242188 3.96875 9.242188 4 C 9.242188 4.035156 9.273438 4.046875 9.273438 4.046875 L 9.316406 4.089844 C 9.347656 4.121094 9.359375 4.136719 9.394531 4.167969 C 9.410156 4.183594 9.429688 4.195312 9.453125 4.199219 L 9.5 4.199219 L 9.566406 4.226562 C 9.605469 4.246094 9.644531 4.269531 9.679688 4.296875 C 9.683594 4.300781 9.691406 4.300781 9.695312 4.296875 L 9.722656 4.308594 L 9.773438 4.308594 C 9.808594 4.308594 9.792969 4.332031 9.792969 4.332031 L 9.792969 4.34375 L 9.769531 4.359375 C 9.75 4.367188 9.730469 4.367188 9.710938 4.371094 C 9.691406 4.371094 9.671875 4.367188 9.65625 4.359375 L 9.582031 4.332031 L 9.496094 4.308594 L 9.402344 4.292969 C 9.386719 4.289062 9.371094 4.28125 9.351562 4.273438 C 9.332031 4.269531 9.308594 4.257812 9.289062 4.246094 C 9.257812 4.226562 9.222656 4.207031 9.1875 4.191406 C 9.152344 4.167969 9.109375 4.167969 9.074219 4.191406 C 9.011719 4.234375 9.167969 4.242188 9.242188 4.28125 C 9.359375 4.335938 9.425781 4.378906 9.453125 4.441406 C 9.464844 4.472656 9.484375 4.5 9.507812 4.523438 C 9.550781 4.542969 9.589844 4.570312 9.625 4.605469 C 9.644531 4.628906 9.648438 4.648438 9.667969 4.667969 C 9.710938 4.722656 9.796875 4.71875 9.816406 4.765625 C 9.835938 4.808594 9.746094 4.785156 9.703125 4.78125 C 9.621094 4.773438 9.601562 4.703125 9.527344 4.667969 C 9.480469 4.652344 9.457031 4.652344 9.410156 4.640625 C 9.332031 4.613281 9.296875 4.578125 9.214844 4.554688 C 9.167969 4.539062 9.078125 4.472656 9.089844 4.523438 C 9.09375 4.535156 9.097656 4.542969 9.105469 4.550781 C 9.109375 4.5625 9.121094 4.574219 9.128906 4.585938 C 9.140625 4.601562 9.152344 4.617188 9.167969 4.628906 C 9.210938 4.664062 9.257812 4.695312 9.304688 4.71875 C 9.359375 4.75 9.402344 4.789062 9.445312 4.835938 C 9.457031 4.851562 9.464844 4.871094 9.476562 4.890625 C 9.488281 4.914062 9.476562 4.921875 9.496094 4.957031 C 9.503906 4.980469 9.519531 5 9.539062 5.015625 C 9.59375 5.070312 9.652344 5.058594 9.71875 5.085938 C 9.734375 5.09375 9.75 5.105469 9.761719 5.117188 C 9.777344 5.140625 9.761719 5.148438 9.761719 5.148438 C 9.71875 5.160156 9.675781 5.164062 9.636719 5.164062 C 9.582031 5.15625 9.527344 5.136719 9.480469 5.109375 C 9.441406 5.085938 9.40625 5.054688 9.378906 5.019531 L 9.347656 4.992188 C 9.324219 4.980469 9.300781 4.972656 9.277344 4.96875 L 9.207031 4.953125 C 9.167969 4.941406 9.128906 4.925781 9.113281 4.917969 C 9.085938 4.90625 9.050781 4.90625 9.023438 4.917969 C 8.964844 4.953125 9.113281 4.976562 9.164062 5.027344 C 9.1875 5.054688 9.195312 5.070312 9.21875 5.097656 C 9.234375 5.117188 9.246094 5.132812 9.265625 5.148438 C 9.277344 5.15625 9.292969 5.164062 9.304688 5.171875 C 9.304688 5.171875 9.34375 5.1875 9.394531 5.214844 C 9.4375 5.261719 9.472656 5.3125 9.5 5.371094 L 9.535156 5.429688 L 9.558594 5.460938 L 9.558594 5.476562 L 9.566406 5.496094 C 9.582031 5.511719 9.597656 5.527344 9.613281 5.542969 C 9.636719 5.554688 9.632812 5.5625 9.632812 5.5625 C 9.632812 5.5625 9.632812 5.570312 9.613281 5.578125 C 9.597656 5.589844 9.59375 5.578125 9.574219 5.578125 C 9.554688 5.578125 9.539062 5.554688 9.523438 5.539062 C 9.503906 5.527344 9.488281 5.492188 9.453125 5.472656 C 9.429688 5.457031 9.402344 5.449219 9.375 5.441406 C 9.359375 5.441406 9.324219 5.414062 9.308594 5.410156 L 9.265625 5.371094 C 9.230469 5.351562 9.191406 5.332031 9.152344 5.320312 C 9.113281 5.308594 9.140625 5.332031 9.140625 5.332031 C 9.160156 5.363281 9.179688 5.390625 9.207031 5.410156 C 9.253906 5.441406 9.3125 5.464844 9.292969 5.492188 C 9.273438 5.519531 9.261719 5.5 9.242188 5.492188 C 9.214844 5.484375 9.191406 5.46875 9.171875 5.449219 C 9.140625 5.433594 9.109375 5.421875 9.078125 5.414062 C 9.007812 5.390625 9.035156 5.429688 9.050781 5.453125 C 9.0625 5.464844 9.074219 5.476562 9.089844 5.484375 L 9.140625 5.507812 L 9.160156 5.507812 L 9.246094 5.527344 C 9.285156 5.535156 9.320312 5.550781 9.351562 5.574219 C 9.378906 5.597656 9.40625 5.621094 9.433594 5.644531 C 9.472656 5.671875 9.515625 5.6875 9.5625 5.691406 C 9.566406 5.691406 9.574219 5.695312 9.578125 5.699219 C 9.585938 5.703125 9.585938 5.707031 9.585938 5.714844 C 9.589844 5.722656 9.589844 5.730469 9.585938 5.738281 C 9.585938 5.742188 9.585938 5.746094 9.582031 5.746094 C 9.582031 5.75 9.578125 5.75 9.574219 5.75 L 9.558594 5.75 C 9.546875 5.753906 9.535156 5.757812 9.523438 5.757812 C 9.476562 5.757812 9.429688 5.75 9.386719 5.742188 C 9.34375 5.730469 9.308594 5.710938 9.273438 5.6875 C 9.242188 5.667969 9.210938 5.65625 9.175781 5.640625 C 9.144531 5.632812 9.109375 5.632812 9.074219 5.640625 L 9.015625 5.65625 C 8.980469 5.667969 9.023438 5.679688 9.023438 5.679688 L 9.105469 5.679688 C 9.144531 5.683594 9.179688 5.691406 9.21875 5.707031 C 9.261719 5.726562 9.304688 5.757812 9.335938 5.796875 C 9.359375 5.816406 9.382812 5.835938 9.40625 5.851562 L 9.433594 5.871094 L 9.449219 5.878906 L 9.449219 5.902344 C 9.445312 5.90625 9.441406 5.910156 9.4375 5.910156 L 9.425781 5.910156 L 9.355469 5.878906 C 9.328125 5.863281 9.304688 5.851562 9.273438 5.84375 C 9.25 5.839844 9.226562 5.839844 9.203125 5.84375 C 9.167969 5.851562 9.128906 5.855469 9.089844 5.859375 C 9.042969 5.863281 8.996094 5.863281 8.953125 5.859375 C 8.871094 5.847656 8.769531 5.789062 8.757812 5.804688 C 8.742188 5.824219 8.8125 5.851562 8.851562 5.875 C 8.902344 5.898438 8.949219 5.917969 9.003906 5.933594 C 9.039062 5.941406 9.078125 5.953125 9.113281 5.96875 C 9.199219 6.007812 9.226562 6.070312 9.296875 6.132812 C 9.332031 6.167969 9.375 6.1875 9.421875 6.195312 C 9.460938 6.195312 9.5 6.191406 9.539062 6.179688 C 9.609375 6.167969 9.652344 6.101562 9.675781 6.121094 C 9.699219 6.144531 9.675781 6.132812 9.675781 6.140625 C 9.675781 6.144531 9.675781 6.152344 9.675781 6.160156 C 9.667969 6.167969 9.664062 6.175781 9.652344 6.183594 C 9.625 6.203125 9.597656 6.222656 9.566406 6.234375 C 9.511719 6.253906 9.453125 6.261719 9.394531 6.261719 C 9.328125 6.25 9.265625 6.230469 9.203125 6.199219 L 9.125 6.164062 L 9.0625 6.136719 C 8.996094 6.109375 8.953125 6.113281 8.882812 6.09375 C 8.839844 6.082031 8.8125 6.070312 8.773438 6.0625 C 8.734375 6.054688 8.757812 6.0625 8.761719 6.074219 C 8.78125 6.097656 8.804688 6.113281 8.832031 6.121094 C 8.875 6.140625 8.902344 6.136719 8.945312 6.15625 C 8.984375 6.171875 9.023438 6.195312 9.058594 6.21875 C 9.085938 6.234375 9.109375 6.257812 9.128906 6.277344 L 9.214844 6.351562 C 9.222656 6.359375 9.230469 6.367188 9.238281 6.375 C 9.242188 6.394531 9.242188 6.410156 9.238281 6.429688 C 9.238281 6.457031 9.210938 6.4375 9.210938 6.4375 L 9.1875 6.421875 L 9.164062 6.402344 L 9.128906 6.371094 C 9.101562 6.351562 9.074219 6.332031 9.046875 6.316406 C 9.011719 6.300781 8.96875 6.289062 8.929688 6.28125 C 8.929688 6.28125 8.875 6.273438 8.875 6.292969 C 8.878906 6.308594 8.890625 6.3125 8.9375 6.324219 C 8.964844 6.328125 8.988281 6.339844 9.011719 6.355469 C 9.039062 6.378906 9.066406 6.402344 9.089844 6.429688 C 9.109375 6.449219 9.125 6.476562 9.132812 6.503906 C 9.148438 6.53125 9.167969 6.554688 9.191406 6.574219 C 9.234375 6.617188 9.257812 6.601562 9.253906 6.621094 C 9.253906 6.632812 9.246094 6.644531 9.234375 6.644531 L 9.21875 6.644531 L 9.191406 6.632812 C 9.171875 6.625 9.152344 6.609375 9.136719 6.597656 L 9.054688 6.535156 L 8.980469 6.480469 L 8.914062 6.441406 C 8.886719 6.429688 8.855469 6.417969 8.828125 6.40625 C 8.808594 6.402344 8.789062 6.398438 8.765625 6.398438 C 8.742188 6.394531 8.714844 6.386719 8.691406 6.378906 C 8.65625 6.359375 8.621094 6.339844 8.589844 6.3125 C 8.570312 6.304688 8.550781 6.300781 8.53125 6.296875 C 8.515625 6.335938 8.503906 6.378906 8.5 6.421875 C 8.488281 6.59375 8.527344 6.765625 8.613281 6.914062 C 8.726562 7.121094 8.871094 7.3125 9.039062 7.480469 C 9.078125 7.5 9.117188 7.527344 9.152344 7.554688 C 9.289062 7.648438 9.421875 7.757812 9.542969 7.871094 C 9.640625 7.976562 9.734375 8.085938 9.820312 8.203125 C 9.871094 8.273438 9.917969 8.34375 9.960938 8.421875 C 10 8.511719 10.03125 8.605469 10.054688 8.699219 C 10.054688 8.710938 10.058594 8.722656 10.0625 8.734375 C 10.0625 8.734375 10.070312 8.75 10.078125 8.75 L 10.132812 8.75 C 10.171875 8.746094 10.207031 8.742188 10.242188 8.734375 C 10.3125 8.710938 10.382812 8.679688 10.445312 8.644531 C 10.496094 8.613281 10.542969 8.582031 10.585938 8.542969 C 10.585938 8.542969 10.601562 8.53125 10.675781 8.449219 C 10.738281 8.371094 10.785156 8.28125 10.816406 8.1875 C 10.84375 8.09375 10.859375 7.992188 10.859375 7.894531 C 10.867188 7.789062 10.863281 7.6875 10.851562 7.585938 C 10.851562 7.585938 10.824219 7.355469 10.804688 7.277344 C 10.789062 7.199219 10.742188 7.074219 10.742188 7.074219 C 10.742188 7.074219 10.714844 6.960938 10.703125 6.890625 C 10.695312 6.816406 10.695312 6.699219 10.695312 6.699219 C 10.695312 6.628906 10.703125 6.5625 10.71875 6.496094 C 10.753906 6.339844 10.828125 6.199219 10.933594 6.078125 C 10.992188 6.003906 11.0625 5.941406 11.140625 5.894531 C 11.210938 5.839844 11.300781 5.753906 11.332031 5.78125 C 11.359375 5.804688 11.300781 5.839844 11.277344 5.859375 C 11.183594 5.945312 11.101562 6.046875 11.035156 6.15625 C 10.980469 6.246094 10.941406 6.34375 10.917969 6.445312 C 10.90625 6.515625 10.90625 6.582031 10.910156 6.648438 C 10.910156 6.679688 10.929688 6.667969 10.929688 6.667969 C 11.027344 6.59375 11.121094 6.507812 11.207031 6.417969 C 11.3125 6.304688 11.402344 6.097656 11.441406 6.09375 C 11.476562 6.089844 11.476562 6.148438 11.46875 6.171875 C 11.460938 6.242188 11.4375 6.304688 11.40625 6.363281 C 11.367188 6.433594 11.320312 6.5 11.265625 6.558594 C 11.210938 6.625 11.164062 6.695312 11.128906 6.773438 C 11.085938 6.855469 11.078125 6.953125 11.101562 7.039062 C 11.101562 7.039062 11.109375 7.113281 11.140625 7.109375 C 11.191406 7.109375 11.308594 6.960938 11.386719 6.839844 C 11.441406 6.753906 11.460938 6.652344 11.5 6.597656 C 11.539062 6.542969 11.5625 6.675781 11.546875 6.746094 C 11.523438 6.855469 11.46875 6.957031 11.394531 7.039062 C 11.339844 7.109375 11.308594 7.191406 11.304688 7.28125 C 11.300781 7.335938 11.300781 7.394531 11.304688 7.453125 C 11.300781 7.546875 11.308594 7.640625 11.324219 7.730469 C 11.339844 7.8125 11.351562 7.898438 11.359375 7.984375 C 11.371094 8.175781 11.335938 8.367188 11.257812 8.539062 C 11.21875 8.605469 11.175781 8.667969 11.128906 8.726562 C 11.089844 8.765625 11.046875 8.800781 11.003906 8.835938 C 10.945312 8.875 10.882812 8.910156 10.816406 8.9375 C 10.816406 8.9375 10.726562 8.96875 10.710938 8.972656 C 10.703125 8.976562 10.695312 8.980469 10.691406 8.988281 C 10.691406 8.988281 10.699219 9.007812 10.703125 9.011719 L 10.730469 9.085938 C 10.746094 9.136719 10.761719 9.191406 10.769531 9.242188 C 10.777344 9.289062 10.773438 9.339844 10.757812 9.382812 C 10.746094 9.433594 10.726562 9.410156 10.71875 9.515625 C 10.714844 9.617188 10.757812 9.652344 10.746094 9.753906 C 10.746094 9.800781 10.695312 9.699219 10.667969 9.65625 C 10.632812 9.570312 10.621094 9.476562 10.628906 9.386719 C 10.625 9.34375 10.621094 9.304688 10.609375 9.265625 C 10.597656 9.214844 10.574219 9.167969 10.542969 9.128906 C 10.515625 9.089844 10.488281 9.070312 10.476562 9.074219 C 10.46875 9.078125 10.464844 9.097656 10.464844 9.105469 C 10.472656 9.125 10.480469 9.140625 10.492188 9.15625 L 10.527344 9.226562 C 10.539062 9.273438 10.546875 9.320312 10.550781 9.367188 C 10.550781 9.4375 10.542969 9.503906 10.527344 9.574219 C 10.507812 9.644531 10.480469 9.714844 10.445312 9.78125 C 10.40625 9.851562 10.359375 9.917969 10.308594 9.980469 C 10.257812 10.027344 10.21875 10.085938 10.1875 10.148438 C 10.136719 10.25 10.179688 10.296875 10.160156 10.308594 C 10.144531 10.316406 10.101562 10.246094 10.089844 10.199219 C 10.078125 10.15625 10.085938 10.117188 10.101562 10.078125 C 10.121094 10.035156 10.140625 9.996094 10.160156 9.957031 L 10.226562 9.851562 C 10.265625 9.769531 10.300781 9.6875 10.324219 9.601562 C 10.335938 9.53125 10.335938 9.457031 10.324219 9.382812 C 10.324219 9.382812 10.324219 9.34375 10.292969 9.347656 C 10.265625 9.347656 10.25 9.371094 10.238281 9.398438 C 10.21875 9.457031 10.246094 9.445312 10.214844 9.539062 C 10.179688 9.632812 10.179688 9.601562 10.167969 9.648438 C 10.15625 9.691406 10.144531 9.738281 10.144531 9.785156 C 10.144531 9.820312 10.128906 9.804688 10.128906 9.804688 C 10.105469 9.761719 10.097656 9.714844 10.097656 9.667969 C 10.097656 9.632812 10.097656 9.597656 10.097656 9.566406 C 10.105469 9.511719 10.117188 9.457031 10.128906 9.40625 C 10.148438 9.34375 10.152344 9.28125 10.152344 9.21875 C 10.144531 9.128906 10.113281 9.113281 10.113281 9.113281 C 10.113281 9.113281 10.105469 9.101562 10.070312 9.105469 C 10.039062 9.105469 10.039062 9.167969 10.039062 9.167969 C 10.035156 9.214844 10.027344 9.261719 10.015625 9.304688 C 9.984375 9.4375 9.921875 9.558594 9.835938 9.664062 C 9.769531 9.765625 9.6875 9.863281 9.597656 9.949219 C 9.542969 10 9.375 10.121094 9.375 10.121094 L 9.175781 10.257812 C 9.128906 10.308594 9.089844 10.363281 9.0625 10.425781 C 9.03125 10.503906 9.027344 10.589844 9.050781 10.671875 C 9.066406 10.71875 9.089844 10.761719 9.121094 10.800781 C 9.144531 10.832031 9.164062 10.871094 9.175781 10.910156 C 9.179688 10.9375 9.179688 10.964844 9.175781 10.992188 C 9.179688 11.011719 9.179688 11.035156 9.175781 11.058594 C 9.183594 11.09375 9.175781 11.132812 9.160156 11.164062 C 9.140625 11.183594 9.121094 11.199219 9.09375 11.210938 C 9.09375 11.210938 9.042969 11.234375 9.011719 11.253906 C 8.761719 11.394531 8.542969 11.585938 8.371094 11.808594 C 8.308594 11.882812 8.355469 11.878906 8.289062 11.964844 C 8.253906 12.015625 8.160156 12.011719 8.128906 12.074219 C 8.085938 12.15625 8.230469 12.238281 8.0625 12.3125 C 7.867188 12.378906 7.65625 12.378906 7.460938 12.3125 C 7.4375 12.234375 7.535156 12.140625 7.566406 12.101562 C 7.71875 11.9375 7.855469 11.933594 7.90625 11.792969 C 7.917969 11.765625 7.90625 11.738281 8.035156 11.648438 C 8.242188 11.5 8.433594 11.335938 8.613281 11.15625 C 8.660156 11.109375 8.703125 11.054688 8.730469 10.996094 C 8.742188 10.960938 8.734375 10.917969 8.707031 10.890625 L 8.640625 10.785156 L 8.53125 10.578125 L 8.453125 10.402344 C 8.425781 10.335938 8.371094 10.160156 8.371094 10.160156 C 8.351562 10.078125 8.335938 9.992188 8.328125 9.90625 C 8.316406 9.746094 8.339844 9.589844 8.390625 9.4375 C 8.453125 9.207031 8.59375 9.113281 8.648438 8.882812 C 8.664062 8.820312 8.667969 8.703125 8.636719 8.710938 C 8.601562 8.714844 8.601562 8.804688 8.574219 8.867188 C 8.484375 9.09375 8.367188 9.191406 8.300781 9.421875 C 8.257812 9.554688 8.238281 9.699219 8.238281 9.839844 C 8.238281 9.921875 8.246094 10 8.261719 10.078125 C 8.269531 10.132812 8.285156 10.183594 8.300781 10.230469 C 8.3125 10.273438 8.347656 10.351562 8.347656 10.351562 C 8.375 10.40625 8.394531 10.464844 8.410156 10.527344 C 8.417969 10.546875 8.421875 10.570312 8.421875 10.589844 C 8.425781 10.621094 8.417969 10.652344 8.40625 10.679688 C 8.378906 10.730469 8.394531 10.761719 8.3125 10.777344 C 8.234375 10.78125 8.160156 10.769531 8.089844 10.742188 C 8.089844 10.742188 7.46875 10.558594 7.074219 10.605469 C 7.011719 10.621094 6.945312 10.632812 6.878906 10.640625 C 6.808594 10.640625 6.773438 10.582031 6.703125 10.605469 C 6.6875 10.605469 6.679688 10.621094 6.667969 10.628906 C 6.5625 10.699219 6.644531 10.820312 6.367188 10.757812 C 6.199219 10.71875 5.996094 10.621094 6.03125 10.550781 C 6.066406 10.484375 6.140625 10.449219 6.273438 10.394531 C 6.402344 10.359375 6.539062 10.34375 6.675781 10.351562 C 6.746094 10.332031 6.820312 10.316406 6.890625 10.308594 C 6.953125 10.300781 7.019531 10.308594 7.078125 10.324219 L 7.355469 10.347656 L 7.875 10.347656 C 7.917969 10.347656 7.960938 10.34375 8.003906 10.335938 C 8.039062 10.320312 8.070312 10.253906 8.089844 10.21875 C 8.101562 10.191406 8.101562 10.160156 8.089844 10.132812 L 8.074219 10.109375 L 7.933594 9.875 L 7.832031 9.675781 C 7.832031 9.675781 7.765625 9.539062 7.734375 9.441406 C 7.699219 9.367188 7.671875 9.285156 7.652344 9.203125 C 7.628906 9.121094 7.617188 9.035156 7.609375 8.949219 C 7.597656 8.855469 7.601562 8.765625 7.625 8.675781 Z M 7.625 8.675781 "/>
<path style=" stroke:none;fill-rule:nonzero;fill:rgb(100%,100%,100%);fill-opacity:1;" d="M 10.988281 8.488281 C 11.078125 8.355469 11.125 8.195312 11.113281 8.035156 C 11.109375 7.921875 11.09375 7.808594 11.066406 7.695312 L 11.058594 7.679688 C 11.058594 7.679688 11.039062 7.65625 11.027344 7.691406 C 11.027344 7.707031 11.027344 7.722656 11.027344 7.742188 L 11.027344 8.003906 C 11.023438 8.097656 11.003906 8.1875 10.976562 8.277344 C 10.898438 8.507812 10.699219 8.609375 10.667969 8.691406 C 10.628906 8.832031 10.855469 8.65625 10.988281 8.488281 Z M 10.988281 8.488281 "/>
<path style=" stroke:none;fill-rule:nonzero;fill:rgb(100%,100%,100%);fill-opacity:1;" d="M 9.839844 8.914062 C 9.816406 8.921875 9.796875 8.945312 9.792969 8.972656 C 9.792969 9.015625 9.804688 9.050781 9.804688 9.109375 C 9.804688 9.167969 9.742188 9.253906 9.78125 9.28125 C 9.847656 9.324219 9.910156 9.015625 9.886719 8.972656 C 9.867188 8.925781 9.847656 8.914062 9.839844 8.914062 Z M 9.839844 8.914062 "/>
<path style=" stroke:none;fill-rule:nonzero;fill:rgb(100%,100%,100%);fill-opacity:1;" d="M 9.074219 11.046875 C 9.0625 11.042969 9.046875 11.042969 9.035156 11.046875 C 9.023438 11.054688 9.011719 11.070312 9.011719 11.085938 C 9.011719 11.085938 9.011719 11.109375 9.027344 11.113281 C 9.042969 11.121094 9.082031 11.070312 9.082031 11.0625 C 9.078125 11.058594 9.078125 11.054688 9.074219 11.046875 Z M 9.074219 11.046875 "/>
<path style=" stroke:none;fill-rule:nonzero;fill:rgb(100%,100%,100%);fill-opacity:1;" d="M 8.351562 11.558594 C 8.351562 11.558594 8.34375 11.558594 8.351562 11.570312 C 8.351562 11.574219 8.355469 11.574219 8.359375 11.574219 C 8.363281 11.574219 8.367188 11.574219 8.367188 11.570312 C 8.367188 11.570312 8.492188 11.472656 8.566406 11.402344 C 8.640625 11.332031 8.757812 11.203125 8.757812 11.203125 C 8.761719 11.199219 8.761719 11.191406 8.757812 11.1875 C 8.746094 11.175781 8.726562 11.1875 8.710938 11.199219 C 8.695312 11.207031 8.683594 11.214844 8.671875 11.226562 C 8.660156 11.234375 8.625 11.273438 8.625 11.273438 L 8.527344 11.367188 L 8.46875 11.425781 L 8.410156 11.480469 L 8.382812 11.507812 L 8.375 11.523438 L 8.367188 11.535156 L 8.359375 11.542969 L 8.359375 11.554688 C 8.355469 11.554688 8.355469 11.558594 8.351562 11.558594 Z M 8.351562 11.558594 "/>
<path style=" stroke:none;fill-rule:nonzero;fill:rgb(100%,100%,100%);fill-opacity:1;" d="M 8.132812 11.699219 C 8.125 11.691406 8.109375 11.691406 8.101562 11.699219 C 8.082031 11.710938 8.066406 11.726562 8.054688 11.742188 C 8.054688 11.742188 8.039062 11.761719 8.054688 11.777344 C 8.070312 11.789062 8.089844 11.777344 8.09375 11.777344 C 8.105469 11.769531 8.121094 11.757812 8.132812 11.746094 C 8.144531 11.738281 8.148438 11.71875 8.136719 11.703125 Z M 8.132812 11.699219 "/>
<path style=" stroke:none;fill-rule:nonzero;fill:rgb(100%,100%,100%);fill-opacity:1;" d="M 7.71875 12.121094 C 7.71875 12.121094 7.703125 12.085938 7.679688 12.097656 C 7.65625 12.109375 7.636719 12.125 7.625 12.148438 C 7.625 12.148438 7.59375 12.179688 7.589844 12.1875 C 7.585938 12.195312 7.566406 12.238281 7.609375 12.242188 C 7.691406 12.242188 7.636719 12.195312 7.667969 12.175781 C 7.695312 12.15625 7.730469 12.164062 7.730469 12.148438 C 7.730469 12.136719 7.726562 12.128906 7.71875 12.121094 Z M 7.71875 12.121094 "/>
<path style=" stroke:none;fill-rule:nonzero;fill:rgb(100%,100%,100%);fill-opacity:1;" d="M 6.304688 10.445312 C 6.304688 10.445312 6.253906 10.457031 6.25 10.472656 C 6.246094 10.492188 6.28125 10.507812 6.285156 10.507812 C 6.289062 10.507812 6.300781 10.523438 6.332031 10.5 C 6.363281 10.476562 6.363281 10.460938 6.363281 10.460938 C 6.363281 10.460938 6.382812 10.4375 6.304688 10.445312 Z M 6.304688 10.445312 "/>
<path style=" stroke:none;fill-rule:nonzero;fill:rgb(100%,100%,100%);fill-opacity:1;" d="M 7.082031 10.417969 C 7.082031 10.417969 7.082031 10.402344 7.046875 10.402344 C 7.011719 10.40625 7.007812 10.414062 7.003906 10.417969 C 7.003906 10.421875 7.003906 10.433594 7.039062 10.433594 C 7.070312 10.4375 7.082031 10.433594 7.082031 10.417969 Z M 7.082031 10.417969 "/>
<path style=" stroke:none;fill-rule:nonzero;fill:rgb(100%,100%,100%);fill-opacity:1;" d="M 7.820312 10.441406 C 7.792969 10.441406 7.765625 10.441406 7.738281 10.441406 C 7.679688 10.445312 7.621094 10.445312 7.5625 10.441406 C 7.46875 10.433594 7.324219 10.410156 7.324219 10.410156 L 7.296875 10.410156 C 7.289062 10.410156 7.316406 10.449219 7.335938 10.457031 C 7.40625 10.484375 7.476562 10.492188 7.550781 10.488281 C 7.589844 10.488281 7.628906 10.488281 7.664062 10.480469 C 7.714844 10.484375 7.765625 10.480469 7.8125 10.46875 C 7.828125 10.472656 7.839844 10.441406 7.820312 10.441406 Z M 7.820312 10.441406 "/>
<path style=" stroke:none;fill-rule:nonzero;fill:rgb(100%,100%,100%);fill-opacity:1;" d="M 8.234375 10.320312 C 8.234375 10.320312 8.222656 10.304688 8.195312 10.320312 C 8.179688 10.332031 8.164062 10.34375 8.15625 10.363281 C 8.15625 10.363281 8.144531 10.378906 8.167969 10.375 C 8.1875 10.375 8.207031 10.367188 8.222656 10.359375 C 8.230469 10.355469 8.253906 10.332031 8.234375 10.320312 Z M 8.234375 10.320312 "/>
<path style=" stroke:none;fill-rule:nonzero;fill:rgb(100%,100%,100%);fill-opacity:1;" d="M 7.875 5.335938 C 7.988281 5.222656 8.089844 5.089844 8.175781 4.953125 C 8.25 4.824219 8.28125 4.519531 8.21875 4.59375 C 8.1875 4.628906 8.152344 4.785156 8.097656 4.902344 C 8.023438 5.039062 7.941406 5.175781 7.851562 5.300781 C 7.851562 5.300781 7.8125 5.378906 7.875 5.335938 Z M 7.875 5.335938 "/>
<path style=" stroke:none;fill-rule:nonzero;fill:rgb(100%,100%,100%);fill-opacity:1;" d="M 7.171875 5.753906 C 7.160156 5.761719 7.15625 5.777344 7.164062 5.792969 C 7.171875 5.816406 7.207031 5.792969 7.207031 5.792969 C 7.261719 5.773438 7.316406 5.761719 7.371094 5.761719 C 7.441406 5.761719 7.507812 5.769531 7.574219 5.78125 L 7.640625 5.800781 L 7.6875 5.820312 C 7.6875 5.820312 7.71875 5.835938 7.738281 5.820312 C 7.753906 5.804688 7.636719 5.695312 7.511719 5.679688 C 7.398438 5.660156 7.28125 5.683594 7.179688 5.738281 Z M 7.171875 5.753906 "/>
<path style=" stroke:none;fill-rule:nonzero;fill:rgb(100%,100%,100%);fill-opacity:1;" d="M 6.339844 6.464844 C 6.355469 6.476562 6.421875 6.347656 6.480469 6.265625 C 6.519531 6.207031 6.597656 6.105469 6.597656 6.105469 C 6.597656 6.105469 6.628906 6.0625 6.574219 6.085938 C 6.511719 6.121094 6.464844 6.175781 6.433594 6.238281 C 6.398438 6.3125 6.328125 6.453125 6.339844 6.464844 Z M 6.339844 6.464844 "/>
<path style=" stroke:none;fill-rule:nonzero;fill:rgb(100%,100%,100%);fill-opacity:1;" d="M 5.875 5.90625 C 5.871094 5.945312 5.886719 5.988281 5.917969 6.015625 C 5.976562 6.078125 5.992188 6.128906 6.03125 6.097656 C 6.039062 6.085938 5.992188 6 5.96875 5.980469 L 5.898438 5.910156 L 5.886719 5.910156 C 5.886719 5.90625 5.882812 5.902344 5.878906 5.902344 Z M 5.875 5.90625 "/>
<path style=" stroke:none;fill-rule:nonzero;fill:rgb(100%,100%,100%);fill-opacity:1;" d="M 5.6875 5.429688 C 5.6875 5.429688 5.621094 5.441406 5.605469 5.472656 C 5.589844 5.5 5.675781 5.480469 5.675781 5.480469 C 5.675781 5.480469 5.738281 5.480469 5.738281 5.464844 C 5.738281 5.445312 5.730469 5.441406 5.6875 5.429688 Z M 5.6875 5.429688 "/>
<path style=" stroke:none;fill-rule:nonzero;fill:rgb(100%,100%,100%);fill-opacity:1;" d="M 4.683594 7.089844 C 4.652344 7.082031 4.644531 7.144531 4.640625 7.164062 C 4.640625 7.1875 4.648438 7.210938 4.660156 7.226562 C 4.671875 7.226562 4.695312 7.1875 4.695312 7.164062 C 4.699219 7.144531 4.710938 7.097656 4.683594 7.089844 Z M 4.683594 7.089844 "/>
<path style=" stroke:none;fill-rule:nonzero;fill:rgb(100%,100%,100%);fill-opacity:1;" d="M 5.726562 8.328125 C 5.726562 8.328125 5.667969 8.285156 5.660156 8.300781 C 5.652344 8.320312 5.707031 8.402344 5.707031 8.402344 C 5.714844 8.414062 5.730469 8.417969 5.746094 8.414062 C 5.761719 8.40625 5.769531 8.390625 5.765625 8.371094 C 5.765625 8.371094 5.746094 8.335938 5.726562 8.328125 Z M 5.726562 8.328125 "/>
<path style=" stroke:none;fill-rule:nonzero;fill:rgb(100%,100%,100%);fill-opacity:1;" d="M 5.289062 6.988281 C 5.28125 6.988281 5.273438 6.992188 5.269531 7 C 5.265625 7.027344 5.261719 7.054688 5.261719 7.082031 C 5.261719 7.113281 5.261719 7.148438 5.269531 7.179688 C 5.269531 7.214844 5.277344 7.246094 5.285156 7.28125 C 5.296875 7.3125 5.3125 7.339844 5.328125 7.371094 C 5.328125 7.371094 5.34375 7.398438 5.359375 7.394531 C 5.375 7.394531 5.371094 7.375 5.371094 7.375 C 5.371094 7.375 5.320312 7.183594 5.320312 7.164062 L 5.320312 7.011719 C 5.320312 7 5.308594 6.988281 5.296875 6.988281 Z M 5.289062 6.988281 "/>
<path style=" stroke:none;fill-rule:nonzero;fill:rgb(100%,100%,100%);fill-opacity:1;" d="M 5.363281 6.40625 C 5.363281 6.40625 5.339844 6.40625 5.3125 6.453125 C 5.289062 6.496094 5.292969 6.523438 5.296875 6.527344 C 5.300781 6.527344 5.320312 6.527344 5.347656 6.480469 C 5.378906 6.433594 5.371094 6.414062 5.371094 6.414062 C 5.371094 6.414062 5.371094 6.40625 5.363281 6.40625 Z M 5.363281 6.40625 "/>
<path style=" stroke:none;fill-rule:nonzero;fill:rgb(100%,100%,100%);fill-opacity:1;" d="M 6.097656 6.933594 C 6.097656 6.933594 6.128906 6.984375 6.066406 6.972656 C 5.980469 6.933594 5.902344 6.886719 5.824219 6.832031 C 5.773438 6.804688 5.6875 6.796875 5.722656 6.765625 C 5.730469 6.765625 5.730469 6.753906 5.742188 6.753906 C 5.757812 6.757812 5.777344 6.761719 5.792969 6.769531 L 5.886719 6.808594 C 5.917969 6.820312 5.949219 6.835938 5.976562 6.851562 C 6.011719 6.875 6.070312 6.914062 6.070312 6.914062 Z M 6.097656 6.933594 "/>
<path style=" stroke:none;fill-rule:nonzero;fill:rgb(100%,100%,100%);fill-opacity:1;" d="M 7.800781 8.398438 C 7.816406 8.453125 7.605469 8.289062 7.492188 8.203125 C 7.195312 7.96875 6.828125 7.5 6.867188 7.457031 C 6.90625 7.414062 7.054688 7.640625 7.28125 7.875 C 7.507812 8.109375 7.789062 8.371094 7.800781 8.398438 Z M 7.800781 8.398438 "/>
<path style=" stroke:none;fill-rule:nonzero;fill:rgb(100%,100%,100%);fill-opacity:1;" d="M 8.679688 8.175781 C 8.617188 8.230469 8.59375 8.324219 8.628906 8.402344 C 8.664062 8.46875 8.675781 8.304688 8.71875 8.261719 C 8.757812 8.21875 8.773438 8.230469 8.832031 8.1875 C 8.929688 8.113281 8.761719 8.085938 8.679688 8.175781 Z M 8.679688 8.175781 "/>
<path style=" stroke:none;fill-rule:nonzero;fill:rgb(100%,100%,100%);fill-opacity:1;" d="M 8.304688 6.683594 C 8.257812 6.679688 8.261719 6.746094 8.265625 6.792969 C 8.300781 6.996094 8.390625 7.183594 8.53125 7.335938 C 8.609375 7.433594 8.824219 7.601562 8.847656 7.574219 C 8.726562 7.457031 8.609375 7.324219 8.507812 7.1875 C 8.421875 7.066406 8.367188 6.925781 8.347656 6.78125 C 8.339844 6.765625 8.34375 6.691406 8.304688 6.683594 Z M 8.304688 6.683594 "/>
<path style=" stroke:none;fill-rule:nonzero;fill:rgb(100%,100%,100%);fill-opacity:1;" d="M 7.464844 3.472656 C 7.378906 3.515625 7.292969 3.550781 7.199219 3.574219 C 7.199219 3.574219 7.191406 3.589844 7.214844 3.589844 C 7.308594 3.585938 7.402344 3.566406 7.492188 3.527344 C 7.546875 3.496094 7.59375 3.453125 7.628906 3.398438 C 7.628906 3.398438 7.660156 3.339844 7.601562 3.390625 C 7.558594 3.421875 7.511719 3.449219 7.464844 3.472656 Z M 7.464844 3.472656 "/>
<path style=" stroke:none;fill-rule:nonzero;fill:rgb(100%,100%,100%);fill-opacity:1;" d="M 8.640625 3.101562 C 8.621094 3.097656 8.601562 3.097656 8.585938 3.101562 C 8.5625 3.117188 8.570312 3.128906 8.570312 3.128906 C 8.585938 3.140625 8.605469 3.152344 8.628906 3.160156 C 8.652344 3.160156 8.707031 3.1875 8.703125 3.167969 C 8.695312 3.144531 8.679688 3.125 8.660156 3.109375 C 8.65625 3.105469 8.648438 3.101562 8.640625 3.101562 Z M 8.640625 3.101562 "/>
<path style=" stroke:none;fill-rule:nonzero;fill:rgb(100%,100%,100%);fill-opacity:1;" d="M 8.089844 4.121094 C 8.136719 4.121094 8.183594 4.105469 8.226562 4.082031 C 8.257812 4.066406 8.269531 4.011719 8.269531 4.011719 C 8.269531 4.011719 8.277344 3.957031 8.269531 3.976562 C 8.210938 4.070312 8.078125 4.109375 8.089844 4.121094 Z M 8.089844 4.121094 "/>
<path style=" stroke:none;fill-rule:nonzero;fill:rgb(100%,100%,100%);fill-opacity:1;" d="M 8.085938 3.863281 C 8.125 3.785156 7.976562 3.945312 7.898438 3.984375 C 7.851562 4.011719 7.777344 4.042969 7.777344 4.042969 C 7.777344 4.042969 7.757812 4.070312 7.785156 4.066406 C 7.8125 4.0625 7.886719 4.089844 7.945312 4.042969 C 7.972656 4.011719 7.996094 3.980469 8.019531 3.945312 C 8.046875 3.921875 8.070312 3.894531 8.085938 3.863281 Z M 8.085938 3.863281 "/>
<path style=" stroke:none;fill-rule:nonzero;fill:rgb(100%,100%,100%);fill-opacity:1;" d="M 8.0625 4.191406 C 8.132812 4.203125 8.207031 4.203125 8.277344 4.191406 C 8.308594 4.183594 8.328125 4.125 8.328125 4.125 C 8.328125 4.125 8.347656 4.074219 8.328125 4.089844 C 8.253906 4.160156 8.058594 4.179688 8.0625 4.191406 Z M 8.0625 4.191406 "/>
<path style=" stroke:none;fill-rule:nonzero;fill:rgb(100%,100%,100%);fill-opacity:1;" d="M 5.367188 5.730469 C 5.367188 5.730469 5.34375 5.722656 5.308594 5.769531 C 5.277344 5.816406 5.136719 6.03125 5.164062 6.058594 C 5.1875 6.089844 5.3125 5.867188 5.351562 5.824219 C 5.375 5.800781 5.382812 5.769531 5.375 5.738281 C 5.375 5.734375 5.371094 5.730469 5.367188 5.730469 Z M 5.367188 5.730469 "/>
<path style=" stroke:none;fill-rule:nonzero;fill:rgb(100%,100%,100%);fill-opacity:1;" d="M 8.445312 9.601562 C 8.433594 9.683594 8.441406 9.765625 8.472656 9.84375 C 8.53125 9.917969 8.496094 9.734375 8.503906 9.667969 C 8.507812 9.617188 8.523438 9.566406 8.546875 9.519531 C 8.601562 9.402344 8.476562 9.445312 8.445312 9.601562 Z M 8.445312 9.601562 "/>
<path style=" stroke:none;fill-rule:nonzero;fill:rgb(100%,100%,100%);fill-opacity:1;" d="M 7.929688 3.398438 C 7.902344 3.398438 7.875 3.40625 7.847656 3.417969 C 7.828125 3.429688 7.8125 3.445312 7.804688 3.46875 C 7.800781 3.476562 7.800781 3.488281 7.804688 3.5 C 7.8125 3.523438 7.863281 3.484375 7.898438 3.5 C 7.925781 3.507812 7.945312 3.523438 7.964844 3.542969 C 7.980469 3.566406 8.015625 3.601562 8.039062 3.582031 C 8.058594 3.5625 8.050781 3.515625 8.050781 3.515625 C 8.039062 3.480469 8.019531 3.445312 7.992188 3.417969 C 7.976562 3.40625 7.953125 3.398438 7.929688 3.398438 Z M 7.929688 3.398438 "/>
<path style=" stroke:none;fill-rule:nonzero;fill:rgb(100%,100%,100%);fill-opacity:1;" d="M 7.15625 3.933594 C 7.148438 3.933594 7.144531 3.9375 7.136719 3.941406 C 7.132812 3.949219 7.132812 3.953125 7.132812 3.960938 C 7.132812 3.960938 7.132812 3.960938 7.132812 3.964844 C 7.140625 4 7.160156 3.992188 7.160156 3.992188 C 7.160156 3.992188 7.210938 3.96875 7.207031 3.9375 C 7.203125 3.90625 7.15625 3.933594 7.15625 3.933594 Z M 7.15625 3.933594 "/>
<path style=" stroke:none;fill-rule:nonzero;fill:rgb(100%,100%,100%);fill-opacity:1;" d="M 6.777344 3.761719 C 6.757812 3.761719 6.738281 3.777344 6.730469 3.796875 C 6.71875 3.820312 6.707031 3.84375 6.699219 3.867188 C 6.699219 3.867188 6.6875 3.914062 6.707031 3.929688 C 6.722656 3.945312 6.742188 3.898438 6.765625 3.882812 L 6.800781 3.855469 C 6.824219 3.839844 6.855469 3.855469 6.851562 3.820312 C 6.847656 3.78125 6.8125 3.757812 6.777344 3.761719 Z M 6.777344 3.761719 "/>
<path style=" stroke:none;fill-rule:nonzero;fill:rgb(100%,100%,100%);fill-opacity:1;" d="M 8 3.324219 C 8 3.324219 7.933594 3.3125 7.9375 3.335938 C 7.941406 3.363281 7.972656 3.347656 7.992188 3.355469 C 8.011719 3.363281 8.03125 3.371094 8.042969 3.382812 C 8.054688 3.394531 8.054688 3.414062 8.070312 3.414062 C 8.085938 3.414062 8.085938 3.40625 8.085938 3.40625 C 8.078125 3.382812 8.0625 3.355469 8.042969 3.335938 C 8.03125 3.328125 8.015625 3.324219 8 3.324219 Z M 8 3.324219 "/>
<path style=" stroke:none;fill-rule:nonzero;fill:rgb(100%,100%,100%);fill-opacity:1;" d="M 8.714844 3.582031 C 8.710938 3.597656 8.707031 3.613281 8.699219 3.628906 C 8.699219 3.628906 8.683594 3.699219 8.753906 3.671875 C 8.785156 3.664062 8.8125 3.648438 8.839844 3.632812 C 8.890625 3.605469 8.890625 3.621094 8.929688 3.621094 C 8.941406 3.625 8.953125 3.625 8.96875 3.621094 C 8.984375 3.621094 8.976562 3.601562 8.941406 3.589844 C 8.894531 3.582031 8.847656 3.582031 8.800781 3.582031 C 8.765625 3.578125 8.726562 3.546875 8.714844 3.582031 Z M 8.714844 3.582031 "/>
<path style=" stroke:none;fill-rule:nonzero;fill:rgb(100%,100%,100%);fill-opacity:1;" d="M 8.746094 3.316406 C 8.726562 3.3125 8.707031 3.316406 8.691406 3.324219 C 8.667969 3.339844 8.675781 3.347656 8.675781 3.347656 C 8.691406 3.363281 8.714844 3.375 8.734375 3.378906 C 8.757812 3.378906 8.8125 3.40625 8.808594 3.390625 C 8.800781 3.367188 8.785156 3.347656 8.769531 3.332031 C 8.761719 3.324219 8.753906 3.320312 8.746094 3.316406 Z M 8.746094 3.316406 "/>
<path style=" stroke:none;fill-rule:nonzero;fill:rgb(100%,100%,100%);fill-opacity:1;" d="M 8.871094 3.8125 C 8.855469 3.804688 8.832031 3.804688 8.8125 3.8125 C 8.789062 3.824219 8.796875 3.835938 8.796875 3.835938 C 8.816406 3.847656 8.835938 3.859375 8.859375 3.863281 C 8.886719 3.863281 8.941406 3.890625 8.941406 3.871094 C 8.929688 3.851562 8.914062 3.832031 8.898438 3.816406 C 8.890625 3.8125 8.882812 3.8125 8.871094 3.8125 Z M 8.871094 3.8125 "/>
<path style=" stroke:none;fill-rule:nonzero;fill:rgb(100%,100%,100%);fill-opacity:1;" d="M 8.882812 3.992188 C 8.863281 3.988281 8.839844 3.988281 8.820312 4 C 8.796875 4.011719 8.804688 4.027344 8.804688 4.027344 C 8.824219 4.039062 8.847656 4.050781 8.871094 4.058594 C 8.898438 4.058594 8.957031 4.089844 8.953125 4.070312 C 8.945312 4.042969 8.929688 4.019531 8.90625 4.003906 C 8.902344 3.996094 8.894531 3.992188 8.882812 3.992188 Z M 8.882812 3.992188 "/>
<path style=" stroke:none;fill-rule:nonzero;fill:rgb(100%,100%,100%);fill-opacity:1;" d="M 8.902344 4.164062 C 8.878906 4.160156 8.855469 4.160156 8.832031 4.164062 C 8.804688 4.183594 8.8125 4.199219 8.8125 4.199219 C 8.835938 4.214844 8.859375 4.226562 8.886719 4.234375 C 8.914062 4.234375 8.980469 4.269531 8.976562 4.246094 C 8.96875 4.21875 8.949219 4.191406 8.925781 4.171875 C 8.917969 4.167969 8.910156 4.167969 8.902344 4.164062 Z M 8.902344 4.164062 "/>
<path style=" stroke:none;fill-rule:nonzero;fill:rgb(100%,100%,100%);fill-opacity:1;" d="M 8.898438 4.378906 C 8.875 4.375 8.851562 4.378906 8.828125 4.390625 C 8.800781 4.40625 8.808594 4.421875 8.808594 4.421875 C 8.832031 4.4375 8.855469 4.449219 8.882812 4.457031 C 8.910156 4.457031 8.976562 4.492188 8.972656 4.46875 C 8.964844 4.441406 8.945312 4.417969 8.921875 4.394531 C 8.914062 4.390625 8.90625 4.382812 8.898438 4.378906 Z M 8.898438 4.378906 "/>
<path style=" stroke:none;fill-rule:nonzero;fill:rgb(100%,100%,100%);fill-opacity:1;" d="M 8.867188 4.800781 C 8.847656 4.796875 8.824219 4.800781 8.804688 4.8125 C 8.777344 4.828125 8.789062 4.839844 8.789062 4.839844 C 8.808594 4.859375 8.832031 4.871094 8.859375 4.878906 C 8.890625 4.878906 8.953125 4.914062 8.953125 4.890625 C 8.941406 4.863281 8.921875 4.835938 8.902344 4.816406 C 8.890625 4.808594 8.878906 4.800781 8.867188 4.800781 Z M 8.867188 4.800781 "/>
<path style=" stroke:none;fill-rule:nonzero;fill:rgb(100%,100%,100%);fill-opacity:1;" d="M 8.894531 4.589844 C 8.867188 4.585938 8.839844 4.589844 8.816406 4.601562 C 8.78125 4.621094 8.792969 4.636719 8.792969 4.636719 C 8.816406 4.65625 8.84375 4.671875 8.871094 4.679688 C 8.910156 4.679688 8.984375 4.71875 8.980469 4.691406 C 8.96875 4.660156 8.949219 4.632812 8.921875 4.609375 C 8.914062 4.601562 8.90625 4.59375 8.894531 4.589844 Z M 8.894531 4.589844 "/>
<path style=" stroke:none;fill-rule:nonzero;fill:rgb(100%,100%,100%);fill-opacity:1;" d="M 8.847656 4.992188 C 8.828125 4.984375 8.808594 4.984375 8.792969 4.992188 C 8.769531 5.003906 8.777344 5.015625 8.777344 5.015625 C 8.792969 5.03125 8.8125 5.042969 8.835938 5.046875 C 8.859375 5.046875 8.914062 5.074219 8.914062 5.058594 C 8.90625 5.035156 8.890625 5.011719 8.871094 4.996094 C 8.863281 4.992188 8.855469 4.992188 8.847656 4.992188 Z M 8.847656 4.992188 "/>
<path style=" stroke:none;fill-rule:nonzero;fill:rgb(100%,100%,100%);fill-opacity:1;" d="M 8.816406 5.175781 C 8.800781 5.167969 8.785156 5.167969 8.769531 5.175781 C 8.75 5.1875 8.757812 5.195312 8.757812 5.195312 C 8.769531 5.210938 8.789062 5.222656 8.804688 5.230469 C 8.828125 5.230469 8.871094 5.253906 8.867188 5.238281 C 8.863281 5.21875 8.851562 5.199219 8.835938 5.1875 C 8.828125 5.179688 8.824219 5.175781 8.816406 5.175781 Z M 8.816406 5.175781 "/>
<path style=" stroke:none;fill-rule:nonzero;fill:rgb(100%,100%,100%);fill-opacity:1;" d="M 8.777344 5.339844 C 8.765625 5.335938 8.75 5.335938 8.734375 5.339844 C 8.71875 5.351562 8.722656 5.359375 8.722656 5.359375 C 8.738281 5.367188 8.753906 5.375 8.769531 5.382812 C 8.789062 5.382812 8.824219 5.402344 8.824219 5.382812 C 8.816406 5.367188 8.804688 5.351562 8.792969 5.339844 C 8.789062 5.335938 8.78125 5.339844 8.777344 5.339844 Z M 8.777344 5.339844 "/>
<path style=" stroke:none;fill-rule:nonzero;fill:rgb(100%,100%,100%);fill-opacity:1;" d="M 8.738281 5.476562 C 8.722656 5.472656 8.710938 5.472656 8.695312 5.476562 C 8.679688 5.488281 8.683594 5.496094 8.683594 5.496094 C 8.699219 5.507812 8.710938 5.515625 8.730469 5.519531 C 8.746094 5.519531 8.789062 5.539062 8.785156 5.527344 C 8.777344 5.507812 8.765625 5.492188 8.753906 5.480469 C 8.75 5.476562 8.742188 5.476562 8.738281 5.476562 Z M 8.738281 5.476562 "/>
<path style=" stroke:none;fill-rule:nonzero;fill:rgb(100%,100%,100%);fill-opacity:1;" d="M 8.691406 5.632812 C 8.679688 5.632812 8.667969 5.632812 8.65625 5.632812 C 8.644531 5.644531 8.648438 5.648438 8.648438 5.648438 C 8.65625 5.660156 8.667969 5.664062 8.683594 5.667969 C 8.699219 5.667969 8.730469 5.683594 8.730469 5.667969 C 8.722656 5.652344 8.714844 5.640625 8.703125 5.632812 C 8.699219 5.632812 8.695312 5.632812 8.691406 5.632812 Z M 8.691406 5.632812 "/>
<path style=" stroke:none;fill-rule:nonzero;fill:rgb(100%,100%,100%);fill-opacity:1;" d="M 8.632812 5.78125 C 8.625 5.78125 8.613281 5.78125 8.605469 5.78125 C 8.59375 5.78125 8.597656 5.796875 8.597656 5.796875 C 8.605469 5.804688 8.617188 5.808594 8.628906 5.8125 C 8.640625 5.8125 8.667969 5.824219 8.667969 5.8125 C 8.660156 5.800781 8.652344 5.789062 8.644531 5.78125 Z M 8.632812 5.78125 "/>
<path style=" stroke:none;fill-rule:nonzero;fill:rgb(100%,100%,100%);fill-opacity:1;" d="M 8.574219 5.921875 C 8.566406 5.917969 8.554688 5.917969 8.546875 5.921875 C 8.535156 5.921875 8.539062 5.933594 8.539062 5.933594 C 8.546875 5.9375 8.558594 5.945312 8.566406 5.949219 C 8.582031 5.949219 8.609375 5.964844 8.609375 5.949219 C 8.601562 5.9375 8.597656 5.925781 8.585938 5.917969 Z M 8.574219 5.921875 "/>
<path style=" stroke:none;fill-rule:nonzero;fill:rgb(100%,100%,100%);fill-opacity:1;" d="M 4.773438 6.640625 C 4.773438 6.640625 4.742188 6.695312 4.757812 6.730469 C 4.769531 6.761719 4.8125 6.679688 4.8125 6.679688 C 4.8125 6.679688 4.851562 6.597656 4.835938 6.582031 C 4.820312 6.566406 4.808594 6.613281 4.773438 6.640625 Z M 4.773438 6.640625 "/>
<path style=" stroke:none;fill-rule:nonzero;fill:rgb(11.372549%,11.372549%,10.588235%);fill-opacity:1;" d="M 7.003906 11.640625 C 7 11.632812 6.992188 11.628906 6.984375 11.628906 C 6.976562 11.628906 6.96875 11.632812 6.960938 11.640625 C 6.941406 11.671875 6.90625 11.691406 6.867188 11.691406 C 6.832031 11.691406 6.800781 11.683594 6.769531 11.667969 L 6.707031 11.640625 C 6.648438 11.617188 6.585938 11.605469 6.523438 11.601562 C 6.417969 11.597656 6.316406 11.632812 6.238281 11.703125 C 6.203125 11.742188 6.175781 11.789062 6.160156 11.839844 C 6.148438 11.902344 6.152344 11.96875 6.175781 12.03125 C 6.214844 12.101562 6.273438 12.164062 6.34375 12.210938 C 6.4375 12.265625 6.476562 12.289062 6.476562 12.289062 L 6.636719 12.363281 L 6.785156 12.417969 C 6.785156 12.417969 7 12.480469 7.027344 12.640625 C 7.054688 12.800781 6.957031 13.011719 6.664062 13.03125 C 6.371094 13.050781 6.234375 12.910156 6.191406 12.820312 C 6.164062 12.769531 6.15625 12.707031 6.171875 12.652344 L 6.183594 12.628906 L 6.195312 12.628906 C 6.21875 12.644531 6.25 12.652344 6.28125 12.652344 C 6.351562 12.640625 6.398438 12.578125 6.390625 12.507812 C 6.378906 12.445312 6.320312 12.398438 6.257812 12.40625 C 6.222656 12.40625 6.058594 12.453125 6.050781 12.691406 C 6.058594 12.84375 6.140625 12.980469 6.269531 13.058594 C 6.367188 13.117188 6.484375 13.148438 6.597656 13.148438 C 6.710938 13.140625 6.816406 13.113281 6.917969 13.070312 C 7.074219 12.984375 7.175781 12.828125 7.183594 12.652344 C 7.199219 12.503906 7.136719 12.359375 7.011719 12.269531 C 6.972656 12.242188 6.933594 12.21875 6.890625 12.199219 L 6.691406 12.105469 L 6.554688 12.039062 L 6.464844 11.992188 L 6.417969 11.957031 C 6.417969 11.957031 6.300781 11.867188 6.363281 11.765625 C 6.425781 11.667969 6.605469 11.707031 6.605469 11.707031 C 6.773438 11.738281 6.921875 11.839844 7.011719 11.984375 L 7.058594 12.058594 L 7.058594 12.066406 L 7.097656 12.054688 C 7.070312 11.976562 7.046875 11.898438 7.027344 11.816406 C 7.011719 11.75 7.003906 11.640625 7.003906 11.640625 Z M 7.003906 11.640625 "/>
<path style=" stroke:none;fill-rule:nonzero;fill:rgb(11.372549%,11.372549%,10.588235%);fill-opacity:1;" d="M 8.710938 12.59375 C 8.734375 12.617188 8.765625 12.636719 8.800781 12.640625 C 8.867188 12.640625 8.925781 12.585938 8.925781 12.519531 L 8.925781 12.507812 C 8.921875 12.453125 8.882812 12.40625 8.828125 12.390625 C 8.742188 12.375 8.652344 12.421875 8.617188 12.503906 C 8.574219 12.589844 8.5625 12.6875 8.585938 12.777344 C 8.617188 12.914062 8.703125 13.023438 8.824219 13.089844 C 8.957031 13.15625 9.113281 13.167969 9.253906 13.121094 C 9.371094 13.074219 9.480469 13 9.5625 12.902344 C 9.652344 12.796875 9.726562 12.675781 9.773438 12.542969 L 9.824219 12.417969 L 9.886719 12.417969 C 9.933594 12.421875 9.984375 12.40625 10.023438 12.378906 C 10.0625 12.347656 10.09375 12.308594 10.121094 12.265625 L 10.128906 12.246094 L 10.089844 12.226562 C 10.0625 12.257812 10.027344 12.28125 9.984375 12.289062 C 9.945312 12.292969 9.902344 12.292969 9.863281 12.289062 L 9.917969 12.132812 C 9.917969 12.132812 9.988281 11.992188 10.007812 11.964844 L 10.105469 11.828125 C 10.210938 11.824219 10.320312 11.816406 10.425781 11.792969 C 10.507812 11.777344 10.59375 11.753906 10.675781 11.722656 L 10.871094 11.640625 L 10.917969 11.617188 L 10.902344 11.578125 C 10.761719 11.625 10.617188 11.65625 10.472656 11.671875 C 10.332031 11.691406 10.191406 11.691406 10.054688 11.671875 L 9.765625 11.625 C 9.714844 11.617188 9.660156 11.609375 9.609375 11.605469 C 9.539062 11.609375 9.46875 11.617188 9.402344 11.632812 C 9.332031 11.648438 9.261719 11.675781 9.199219 11.710938 C 9.136719 11.757812 8.988281 11.871094 9.0625 12.039062 C 9.132812 12.203125 9.410156 12.117188 9.449219 11.992188 L 9.464844 11.953125 L 9.464844 11.921875 L 9.441406 11.910156 L 9.410156 11.945312 C 9.410156 11.945312 9.308594 12.03125 9.226562 11.976562 C 9.183594 11.945312 9.175781 11.886719 9.203125 11.84375 L 9.207031 11.835938 C 9.25 11.792969 9.304688 11.761719 9.363281 11.753906 C 9.453125 11.742188 9.539062 11.746094 9.625 11.765625 L 9.796875 11.796875 L 9.894531 11.816406 L 9.929688 11.816406 L 9.871094 11.882812 C 9.8125 11.941406 9.761719 12.011719 9.722656 12.085938 C 9.664062 12.207031 9.636719 12.269531 9.636719 12.269531 L 9.636719 12.277344 C 9.59375 12.285156 9.550781 12.296875 9.511719 12.316406 C 9.480469 12.335938 9.453125 12.359375 9.429688 12.390625 L 9.410156 12.433594 L 9.441406 12.457031 C 9.460938 12.433594 9.488281 12.414062 9.519531 12.40625 C 9.542969 12.398438 9.570312 12.398438 9.59375 12.40625 C 9.59375 12.40625 9.535156 12.558594 9.503906 12.613281 C 9.464844 12.699219 9.410156 12.777344 9.347656 12.847656 C 9.285156 12.9375 9.183594 12.996094 9.070312 13.007812 C 8.953125 13.019531 8.832031 12.972656 8.757812 12.875 C 8.714844 12.824219 8.691406 12.761719 8.691406 12.695312 C 8.691406 12.660156 8.699219 12.625 8.710938 12.59375 Z M 8.710938 12.59375 "/>
<path style=" stroke:none;fill-rule:evenodd;fill:rgb(0%,58.431373%,25.098039%);fill-opacity:1;" d="M 2.570312 1.984375 L 2.570312 1.660156 L 8 0.628906 L 13.429688 1.660156 L 13.429688 1.988281 L 8 0.980469 Z M 2.570312 1.984375 "/>
<path style=" stroke:none;fill-rule:evenodd;fill:rgb(100%,100%,100%);fill-opacity:1;" d="M 2.570312 1.980469 L 2.570312 2.335938 L 8 1.335938 L 13.429688 2.332031 L 13.429688 1.980469 L 8 0.976562 Z M 2.570312 1.980469 "/>
<path style=" stroke:none;fill-rule:evenodd;fill:rgb(88.627451%,2.352941%,7.45098%);fill-opacity:1;" d="M 8 1.945312 C 11.390625 1.945312 13.414062 3.148438 13.414062 3.148438 L 13.429688 2.332031 L 8 1.335938 L 2.570312 2.332031 L 2.585938 3.152344 C 2.585938 3.152344 4.613281 1.945312 8 1.945312 Z M 8 1.945312 "/>
</g>
</svg>
