<?xml version="1.0" encoding="UTF-8"?>
<svg xmlns="http://www.w3.org/2000/svg" xmlns:xlink="http://www.w3.org/1999/xlink" width="16px" height="16px" viewBox="0 0 16 5" version="1.1">
<g id="surface1">
<path style=" stroke:none;fill-rule:nonzero;fill:rgb(88.235294%,2.352941%,0%);fill-opacity:1;" d="M 9.824219 4.078125 L 12.96875 0.941406 L 15.03125 0.941406 L 11.851562 4.078125 Z M 9.824219 4.078125 "/>
<path style=" stroke:none;fill-rule:nonzero;fill:rgb(88.235294%,2.352941%,0%);fill-opacity:1;" d="M 11.582031 2.164062 L 12.820312 0.941406 L 6.445312 0.941406 C 4.554688 0.941406 4.085938 1.066406 3.125 2.015625 L 1.03125 4.078125 L 2.917969 4.078125 L 4.320312 2.707031 C 4.75 2.289062 4.964844 2.164062 6.160156 2.164062 Z M 11.582031 2.164062 "/>
<path style=" stroke:none;fill-rule:nonzero;fill:rgb(88.235294%,2.352941%,0%);fill-opacity:1;" d="M 6.289062 2.273438 C 5.019531 2.273438 4.824219 2.371094 4.421875 2.773438 L 3.113281 4.078125 L 5.007812 4.078125 L 5.449219 3.640625 C 5.570312 3.523438 5.675781 3.484375 6.003906 3.484375 L 10.261719 3.484375 L 11.46875 2.273438 Z M 6.289062 2.273438 "/>
<path style=" stroke:none;fill-rule:nonzero;fill:rgb(88.235294%,2.352941%,0%);fill-opacity:1;" d="M 12.488281 3.867188 L 12.65625 3.867188 L 12.65625 3.898438 L 12.589844 3.898438 L 12.589844 4.078125 L 12.554688 4.078125 L 12.554688 3.898438 L 12.488281 3.898438 Z M 12.488281 3.867188 "/>
<path style=" stroke:none;fill-rule:nonzero;fill:rgb(88.235294%,2.352941%,0%);fill-opacity:1;" d="M 12.6875 3.867188 L 12.742188 3.867188 L 12.800781 4.03125 L 12.859375 3.867188 L 12.910156 3.867188 L 12.910156 4.078125 L 12.875 4.078125 L 12.875 3.914062 L 12.816406 4.078125 L 12.785156 4.078125 L 12.726562 3.914062 L 12.726562 4.078125 L 12.6875 4.078125 Z M 12.6875 3.867188 "/>
</g>
</svg>
