<?xml version="1.0" encoding="UTF-8"?>
<svg xmlns="http://www.w3.org/2000/svg" xmlns:xlink="http://www.w3.org/1999/xlink" width="16px" height="16px" viewBox="0 0 16 16" version="1.1">
<g id="surface1">
<path style=" stroke:none;fill-rule:nonzero;fill:rgb(100%,83.921569%,0%);fill-opacity:1;" d="M 11.027344 8 C 11.027344 9.675781 9.667969 11.039062 7.988281 11.039062 C 6.3125 11.039062 4.953125 9.675781 4.953125 8 C 4.953125 6.324219 6.3125 4.960938 7.988281 4.960938 C 9.667969 4.960938 11.027344 6.324219 11.027344 8 Z M 11.027344 8 "/>
<path style=" stroke:none;fill-rule:nonzero;fill:rgb(100%,83.921569%,0%);fill-opacity:1;" d="M 15.957031 10.035156 L 15.945312 10.011719 C 15.945312 9.996094 15.941406 9.976562 15.9375 9.957031 C 15.933594 9.90625 15.921875 9.855469 15.90625 9.808594 C 15.871094 9.734375 15.800781 9.679688 15.722656 9.664062 C 15.714844 9.640625 15.707031 9.617188 15.691406 9.59375 C 15.640625 9.53125 15.578125 9.476562 15.507812 9.433594 C 15.492188 9.425781 15.476562 9.410156 15.46875 9.40625 L 15.453125 9.394531 C 15.417969 9.363281 15.371094 9.347656 15.324219 9.347656 C 15.238281 9.355469 15.160156 9.394531 15.109375 9.464844 C 15.101562 9.441406 15.085938 9.382812 15.078125 9.355469 C 15.070312 9.328125 15.054688 9.277344 15.042969 9.242188 C 15.042969 9.238281 15.042969 9.234375 15.039062 9.230469 C 15.011719 9.125 14.929688 9.042969 14.824219 9.019531 C 14.785156 9.015625 14.746094 9.011719 14.707031 9.007812 C 14.671875 9.011719 14.636719 9.003906 14.601562 8.988281 C 14.605469 8.980469 14.609375 8.96875 14.613281 8.957031 C 14.625 8.929688 14.632812 8.898438 14.640625 8.867188 C 14.679688 8.746094 14.6875 8.617188 14.667969 8.492188 C 14.707031 8.496094 14.742188 8.5 14.78125 8.5 C 14.902344 8.5 15.023438 8.472656 15.136719 8.425781 L 15.140625 8.425781 C 15.359375 8.320312 15.570312 8.082031 15.558594 7.78125 L 15.558594 7.761719 C 15.535156 7.5 15.390625 7.253906 15.117188 7.011719 C 15.195312 6.996094 15.265625 6.964844 15.332031 6.921875 C 15.527344 6.792969 15.613281 6.554688 15.5625 6.277344 L 15.558594 6.257812 C 15.550781 6.171875 15.480469 6.105469 15.390625 6.101562 C 15.347656 6.101562 15.308594 6.121094 15.277344 6.148438 L 15.257812 6.167969 C 15.242188 6.183594 15.226562 6.199219 15.207031 6.210938 C 15.152344 6.234375 15.097656 6.253906 15.039062 6.261719 C 14.984375 6.269531 14.929688 6.285156 14.878906 6.300781 C 14.636719 6.382812 14.476562 6.515625 14.421875 6.691406 C 14.386719 6.808594 14.402344 6.9375 14.464844 7.042969 L 14.46875 7.050781 C 14.546875 7.164062 14.640625 7.269531 14.742188 7.359375 C 14.875 7.484375 14.996094 7.601562 15.023438 7.746094 C 15.027344 7.773438 15.035156 7.820312 14.949219 7.886719 C 14.90625 7.90625 14.859375 7.917969 14.8125 7.914062 C 14.734375 7.914062 14.652344 7.894531 14.582031 7.855469 L 14.578125 7.855469 C 14.46875 7.796875 14.359375 7.734375 14.257812 7.660156 C 14.089844 7.535156 13.90625 7.433594 13.710938 7.359375 C 13.621094 7.324219 13.527344 7.296875 13.433594 7.28125 C 13.328125 7.269531 13.230469 7.234375 13.140625 7.175781 L 13.132812 7.171875 C 13.097656 7.148438 13.066406 7.125 13.035156 7.101562 C 12.933594 7.019531 12.816406 6.957031 12.691406 6.914062 C 12.644531 6.902344 12.597656 6.890625 12.550781 6.886719 C 12.515625 6.886719 12.480469 6.875 12.449219 6.859375 C 12.429688 6.84375 12.40625 6.828125 12.386719 6.8125 C 12.292969 6.742188 12.199219 6.679688 12.097656 6.625 C 11.929688 6.546875 11.75 6.492188 11.566406 6.457031 C 11.554688 6.457031 11.53125 6.425781 11.511719 6.402344 C 11.480469 6.359375 11.441406 6.324219 11.402344 6.292969 C 11.257812 6.160156 11.074219 6.085938 10.878906 6.078125 L 10.824219 6.078125 C 10.703125 6.097656 10.59375 6.15625 10.507812 6.238281 C 10.347656 6.378906 10.175781 6.503906 10.007812 6.625 C 9.730469 6.8125 9.476562 7.027344 9.246094 7.265625 C 9 7.519531 8.910156 7.835938 8.832031 8.117188 C 8.820312 8.15625 8.808594 8.195312 8.796875 8.238281 C 8.773438 8.320312 8.753906 8.394531 8.734375 8.472656 C 8.640625 8.859375 8.546875 9.226562 8.1875 9.460938 C 8.128906 9.5 8.097656 9.5625 8.105469 9.632812 C 8.113281 9.699219 8.160156 9.757812 8.222656 9.785156 C 8.269531 9.800781 8.316406 9.808594 8.363281 9.804688 C 8.363281 9.847656 8.378906 9.882812 8.40625 9.914062 C 8.445312 9.960938 8.503906 9.984375 8.566406 9.980469 L 8.574219 9.980469 C 8.824219 9.980469 9 9.839844 9.152344 9.691406 C 9.214844 9.746094 9.285156 9.789062 9.367188 9.808594 L 9.390625 9.8125 L 9.421875 9.8125 C 9.503906 9.796875 9.585938 9.792969 9.667969 9.792969 C 9.742188 9.816406 9.816406 9.84375 9.894531 9.871094 C 9.949219 9.894531 10.007812 9.917969 10.070312 9.9375 L 10.097656 9.945312 L 10.125 9.945312 C 10.285156 9.941406 10.378906 9.796875 10.414062 9.742188 L 10.421875 9.730469 L 10.425781 9.71875 C 10.429688 9.707031 10.433594 9.695312 10.4375 9.679688 L 10.449219 9.714844 C 10.464844 9.792969 10.496094 9.863281 10.539062 9.929688 C 10.585938 9.980469 10.652344 10.011719 10.722656 10.007812 C 10.746094 10.007812 10.769531 10.007812 10.792969 10.003906 L 10.800781 10.003906 L 10.804688 10.011719 C 10.84375 10.054688 10.894531 10.089844 10.949219 10.109375 C 11.015625 10.132812 11.082031 10.148438 11.148438 10.164062 C 11.230469 10.183594 11.308594 10.207031 11.386719 10.238281 L 11.394531 10.238281 C 11.457031 10.261719 11.523438 10.273438 11.585938 10.273438 C 11.671875 10.273438 11.75 10.242188 11.8125 10.1875 C 11.886719 10.128906 11.9375 10.050781 11.960938 9.960938 C 11.976562 9.957031 11.992188 9.953125 12.007812 9.945312 C 12.121094 9.910156 12.230469 9.707031 12.230469 9.707031 C 12.238281 9.691406 12.246094 9.675781 12.253906 9.664062 C 12.28125 9.628906 12.292969 9.582031 12.292969 9.535156 C 12.292969 9.429688 12.207031 9.34375 12.101562 9.34375 L 12.085938 9.34375 C 12.074219 9.34375 11.867188 9.34375 11.808594 9.34375 L 11.800781 9.34375 C 11.777344 9.34375 11.753906 9.347656 11.730469 9.355469 L 11.726562 9.351562 C 11.710938 9.332031 11.691406 9.289062 11.671875 9.269531 C 11.671875 9.273438 11.675781 9.273438 11.679688 9.269531 L 11.738281 9.277344 C 11.773438 9.28125 11.8125 9.285156 11.851562 9.28125 C 11.976562 9.28125 12.097656 9.265625 12.222656 9.242188 C 12.324219 9.226562 12.425781 9.226562 12.53125 9.230469 L 12.558594 9.230469 C 12.605469 9.230469 12.648438 9.230469 12.699219 9.238281 C 12.746094 9.246094 12.800781 9.25 12.859375 9.25 L 12.917969 9.25 C 12.96875 9.246094 13.019531 9.238281 13.070312 9.222656 C 13.070312 9.246094 13.082031 9.28125 13.089844 9.320312 L 13.097656 9.351562 C 13.121094 9.53125 13.222656 9.6875 13.375 9.78125 L 13.40625 9.804688 C 13.492188 9.871094 13.597656 9.914062 13.707031 9.925781 C 13.757812 9.933594 13.808594 9.929688 13.859375 9.921875 C 14.050781 9.882812 14.25 9.929688 14.410156 10.046875 L 14.421875 10.058594 C 14.441406 10.070312 14.457031 10.082031 14.472656 10.097656 C 14.515625 10.136719 14.566406 10.167969 14.621094 10.191406 C 14.664062 10.207031 14.707031 10.214844 14.753906 10.214844 C 14.816406 10.21875 14.875 10.199219 14.929688 10.167969 L 14.945312 10.191406 C 14.976562 10.238281 15.011719 10.277344 15.050781 10.316406 C 15.125 10.382812 15.222656 10.417969 15.324219 10.410156 C 15.359375 10.410156 15.394531 10.410156 15.425781 10.40625 L 15.457031 10.40625 L 15.511719 10.402344 C 15.523438 10.398438 15.539062 10.398438 15.554688 10.394531 C 15.582031 10.414062 15.617188 10.425781 15.652344 10.425781 C 15.667969 10.425781 15.683594 10.425781 15.699219 10.421875 L 15.875 10.363281 C 15.921875 10.347656 15.960938 10.3125 15.980469 10.265625 C 16.011719 10.191406 16.003906 10.101562 15.957031 10.035156 Z M 10.480469 9.171875 L 10.464844 9.152344 C 10.460938 9.144531 10.457031 9.136719 10.449219 9.125 C 10.425781 9.09375 10.40625 9.058594 10.390625 9.023438 C 10.441406 9.027344 10.496094 9.035156 10.554688 9.035156 Z M 10.480469 9.171875 "/>
<path style=" stroke:none;fill-rule:nonzero;fill:rgb(100%,83.921569%,0%);fill-opacity:1;" d="M 7.894531 9.402344 L 7.800781 9.355469 C 7.722656 9.292969 7.660156 9.214844 7.613281 9.125 C 7.589844 9.082031 7.5625 9.035156 7.535156 8.992188 C 7.503906 8.953125 7.472656 8.917969 7.433594 8.886719 L 7.414062 8.871094 C 7.296875 8.574219 7.21875 8.261719 7.1875 7.945312 C 7.171875 7.832031 7.132812 7.722656 7.078125 7.621094 C 6.914062 7.378906 6.734375 7.144531 6.539062 6.925781 C 6.527344 6.910156 6.511719 6.894531 6.496094 6.882812 L 6.480469 6.871094 L 5.839844 6.332031 L 5.832031 6.328125 C 5.742188 6.257812 5.644531 6.207031 5.539062 6.171875 C 5.355469 6.113281 5.160156 6.117188 4.980469 6.191406 L 4.96875 6.195312 C 4.914062 6.226562 4.863281 6.257812 4.808594 6.289062 C 4.738281 6.339844 4.664062 6.378906 4.585938 6.410156 L 4.570312 6.414062 C 4.503906 6.445312 4.4375 6.46875 4.367188 6.488281 C 4.195312 6.527344 4.035156 6.609375 3.898438 6.71875 L 3.808594 6.800781 C 3.773438 6.832031 3.742188 6.863281 3.730469 6.871094 L 3.703125 6.871094 C 3.484375 6.867188 3.269531 6.9375 3.101562 7.082031 L 3.097656 7.085938 C 3.003906 7.183594 2.890625 7.261719 2.765625 7.316406 C 2.710938 7.332031 2.652344 7.34375 2.597656 7.347656 L 2.589844 7.347656 C 2.511719 7.351562 2.429688 7.363281 2.355469 7.382812 C 2.171875 7.425781 1.992188 7.5625 1.851562 7.675781 C 1.789062 7.722656 1.746094 7.753906 1.730469 7.765625 L 1.6875 7.789062 C 1.527344 7.882812 1.398438 7.960938 1.234375 7.960938 L 1.226562 7.960938 C 1.136719 7.953125 1.058594 7.894531 1.023438 7.8125 C 0.996094 7.707031 1.03125 7.59375 1.113281 7.519531 C 1.167969 7.464844 1.230469 7.410156 1.292969 7.359375 C 1.402344 7.277344 1.5 7.179688 1.585938 7.074219 C 1.707031 6.898438 1.699219 6.664062 1.558594 6.503906 C 1.453125 6.386719 1.269531 6.328125 1.125 6.292969 L 1.109375 6.292969 L 1.085938 6.289062 L 1.074219 6.289062 L 1.027344 6.28125 L 0.945312 6.265625 C 0.890625 6.242188 0.835938 6.214844 0.785156 6.175781 C 0.746094 6.148438 0.707031 6.121094 0.664062 6.097656 L 0.542969 6.03125 L 0.46875 6.144531 C 0.414062 6.234375 0.390625 6.335938 0.398438 6.4375 L 0.398438 6.445312 C 0.4375 6.664062 0.582031 6.851562 0.78125 6.949219 L 0.789062 6.949219 L 0.808594 6.957031 C 0.851562 6.976562 0.894531 6.984375 0.9375 6.988281 C 0.828125 7.078125 0.726562 7.175781 0.636719 7.285156 C 0.457031 7.484375 0.445312 7.804688 0.527344 8.023438 C 0.636719 8.28125 0.875 8.460938 1.15625 8.496094 C 1.195312 8.5 1.238281 8.503906 1.28125 8.503906 C 1.351562 8.503906 1.421875 8.496094 1.492188 8.480469 C 1.492188 8.554688 1.5 8.625 1.507812 8.695312 C 1.527344 8.78125 1.554688 8.867188 1.589844 8.949219 L 1.589844 8.957031 C 1.539062 8.984375 1.484375 9.011719 1.429688 9.027344 C 1.386719 9.03125 1.339844 9.035156 1.308594 9.035156 L 1.257812 9.035156 C 1.207031 9.042969 1.164062 9.0625 1.125 9.097656 C 1.074219 9.160156 1.039062 9.234375 1.015625 9.308594 C 1 9.347656 0.984375 9.390625 0.96875 9.421875 C 0.957031 9.441406 0.9375 9.460938 0.917969 9.472656 C 0.894531 9.433594 0.863281 9.398438 0.824219 9.371094 C 0.753906 9.320312 0.65625 9.316406 0.582031 9.367188 L 0.546875 9.390625 L 0.539062 9.394531 C 0.484375 9.429688 0.433594 9.46875 0.382812 9.507812 C 0.34375 9.542969 0.320312 9.585938 0.308594 9.636719 C 0.292969 9.640625 0.28125 9.644531 0.269531 9.648438 C 0.167969 9.691406 0.09375 9.78125 0.0742188 9.886719 C 0.0703125 9.929688 0.0664062 9.972656 0.0625 10.011719 L 0.0507812 10.023438 C -0.015625 10.097656 -0.015625 10.210938 0.0507812 10.285156 C 0.136719 10.34375 0.238281 10.382812 0.339844 10.398438 L 0.386719 10.398438 C 0.398438 10.398438 0.410156 10.390625 0.417969 10.386719 L 0.464844 10.386719 C 0.496094 10.390625 0.523438 10.394531 0.550781 10.402344 C 0.609375 10.417969 0.667969 10.425781 0.726562 10.425781 C 0.792969 10.425781 0.855469 10.410156 0.914062 10.382812 C 0.992188 10.335938 1.058594 10.269531 1.097656 10.183594 C 1.109375 10.167969 1.121094 10.148438 1.132812 10.132812 L 1.148438 10.136719 C 1.179688 10.148438 1.210938 10.152344 1.246094 10.15625 C 1.382812 10.15625 1.515625 10.105469 1.621094 10.019531 C 1.648438 9.996094 1.671875 9.972656 1.699219 9.949219 C 1.722656 9.925781 1.75 9.902344 1.777344 9.882812 C 1.8125 9.871094 1.84375 9.867188 1.878906 9.867188 C 1.949219 9.871094 2.023438 9.878906 2.09375 9.894531 C 2.230469 9.933594 2.375 9.914062 2.5 9.847656 C 2.5625 9.8125 2.625 9.78125 2.675781 9.757812 L 2.683594 9.75 C 2.710938 9.738281 2.734375 9.726562 2.753906 9.714844 C 2.867188 9.636719 2.957031 9.53125 3.011719 9.40625 C 3.039062 9.355469 3.078125 9.257812 3.089844 9.230469 L 3.121094 9.230469 C 3.195312 9.230469 3.269531 9.222656 3.34375 9.207031 C 3.394531 9.199219 3.4375 9.191406 3.472656 9.191406 L 3.523438 9.191406 C 3.605469 9.191406 3.6875 9.199219 3.769531 9.207031 C 3.835938 9.214844 3.878906 9.222656 3.960938 9.226562 L 4 9.226562 C 4.023438 9.226562 4.054688 9.226562 4.089844 9.226562 C 4.160156 9.226562 4.234375 9.210938 4.300781 9.175781 C 4.316406 9.191406 4.34375 9.230469 4.363281 9.246094 L 4.355469 9.246094 C 4.300781 9.246094 4.25 9.265625 4.214844 9.304688 C 4.152344 9.285156 4.082031 9.277344 4.015625 9.289062 C 3.933594 9.292969 3.851562 9.308594 3.769531 9.324219 C 3.707031 9.335938 3.65625 9.371094 3.632812 9.429688 C 3.605469 9.488281 3.609375 9.558594 3.640625 9.617188 C 3.6875 9.695312 3.730469 9.765625 3.773438 9.839844 L 3.792969 9.875 C 3.832031 9.933594 3.902344 9.972656 3.972656 9.964844 L 4.023438 9.964844 L 4.03125 9.980469 C 4.066406 10.054688 4.113281 10.117188 4.171875 10.167969 C 4.289062 10.261719 4.441406 10.292969 4.578125 10.25 C 4.777344 10.191406 4.964844 10.121094 5.148438 10.03125 L 5.226562 10.03125 C 5.328125 10.03125 5.425781 9.996094 5.5 9.925781 L 5.507812 9.917969 L 5.511719 9.90625 C 5.546875 9.859375 5.578125 9.808594 5.605469 9.761719 L 5.609375 9.777344 L 5.609375 9.78125 C 5.65625 9.898438 5.773438 9.972656 5.898438 9.96875 L 5.902344 9.96875 C 6.019531 9.957031 6.128906 9.929688 6.238281 9.886719 L 6.242188 9.886719 L 6.285156 9.871094 L 6.292969 9.867188 C 6.394531 9.835938 6.5 9.828125 6.601562 9.851562 L 6.636719 9.851562 C 6.757812 9.835938 6.871094 9.78125 6.960938 9.699219 C 7.121094 9.867188 7.34375 9.964844 7.578125 9.957031 L 7.65625 9.957031 C 7.734375 9.941406 7.792969 9.878906 7.800781 9.796875 C 7.800781 9.785156 7.800781 9.769531 7.800781 9.753906 L 7.84375 9.746094 C 7.917969 9.730469 7.976562 9.667969 7.988281 9.59375 C 8.003906 9.515625 7.964844 9.433594 7.894531 9.402344 Z M 5.765625 8.992188 L 5.742188 9.011719 C 5.695312 9.054688 5.648438 9.101562 5.609375 9.15625 C 5.582031 9.105469 5.5625 9.074219 5.546875 9.039062 C 5.609375 9.027344 5.671875 9.011719 5.730469 8.984375 L 5.765625 8.984375 C 5.765625 8.984375 5.765625 8.988281 5.765625 8.992188 Z M 5.765625 8.992188 "/>
<path style=" stroke:none;fill-rule:nonzero;fill:rgb(91.764706%,0%,16.078431%);fill-opacity:1;" d="M 0.332031 9.789062 L 0.324219 9.789062 C 0.277344 9.8125 0.238281 9.851562 0.222656 9.90625 C 0.210938 10.066406 0.203125 10.078125 0.160156 10.128906 C 0.148438 10.140625 0.140625 10.171875 0.15625 10.1875 C 0.214844 10.214844 0.277344 10.234375 0.339844 10.25 C 0.355469 10.246094 0.363281 10.207031 0.398438 10.101562 C 0.414062 10.039062 0.433594 9.972656 0.453125 9.914062 C 0.453125 9.914062 0.453125 9.902344 0.441406 9.882812 C 0.429688 9.863281 0.367188 9.789062 0.332031 9.789062 Z M 0.503906 9.789062 C 0.523438 9.800781 0.542969 9.8125 0.5625 9.8125 C 0.582031 9.808594 0.597656 9.804688 0.613281 9.796875 C 0.691406 9.742188 0.753906 9.667969 0.796875 9.582031 C 0.804688 9.554688 0.773438 9.53125 0.738281 9.5 L 0.730469 9.5 C 0.710938 9.488281 0.683594 9.488281 0.664062 9.5 L 0.621094 9.53125 C 0.574219 9.558594 0.527344 9.59375 0.480469 9.628906 C 0.460938 9.644531 0.453125 9.667969 0.449219 9.691406 C 0.449219 9.707031 0.453125 9.722656 0.460938 9.734375 C 0.460938 9.734375 0.5 9.777344 0.503906 9.785156 Z M 7.828125 9.535156 L 7.730469 9.488281 C 7.628906 9.414062 7.546875 9.316406 7.492188 9.203125 C 7.464844 9.164062 7.441406 9.121094 7.410156 9.082031 C 7.386719 9.050781 7.359375 9.023438 7.332031 9 C 7.3125 8.984375 7.292969 8.96875 7.28125 8.945312 C 7.152344 8.628906 7.074219 8.296875 7.039062 7.960938 C 7.023438 7.867188 6.996094 7.777344 6.949219 7.699219 C 6.789062 7.460938 6.617188 7.238281 6.429688 7.023438 C 6.417969 7.011719 6.402344 7 6.390625 6.988281 L 6.382812 6.976562 L 5.746094 6.449219 C 5.667969 6.390625 5.582031 6.34375 5.492188 6.3125 C 5.425781 6.289062 5.359375 6.28125 5.289062 6.28125 C 5.203125 6.277344 5.117188 6.296875 5.035156 6.328125 C 4.988281 6.355469 4.9375 6.386719 4.890625 6.417969 C 4.808594 6.472656 4.722656 6.519531 4.632812 6.554688 C 4.5625 6.585938 4.488281 6.609375 4.410156 6.632812 C 4.261719 6.667969 4.121094 6.734375 4 6.828125 C 3.964844 6.859375 3.9375 6.886719 3.914062 6.910156 C 3.804688 7.011719 3.792969 7.023438 3.703125 7.023438 C 3.519531 7.015625 3.335938 7.078125 3.195312 7.199219 C 3.085938 7.3125 2.957031 7.398438 2.8125 7.460938 C 2.746094 7.480469 2.679688 7.492188 2.609375 7.496094 C 2.535156 7.5 2.460938 7.511719 2.386719 7.53125 C 2.234375 7.566406 2.074219 7.691406 1.941406 7.796875 C 1.898438 7.832031 1.835938 7.875 1.808594 7.894531 L 1.761719 7.921875 C 1.59375 8.019531 1.433594 8.109375 1.230469 8.109375 L 1.214844 8.109375 C 1.0625 8.101562 0.933594 8 0.878906 7.859375 C 0.835938 7.699219 0.886719 7.53125 1.007812 7.417969 C 1.066406 7.359375 1.132812 7.304688 1.195312 7.25 C 1.296875 7.171875 1.386719 7.082031 1.464844 6.984375 C 1.546875 6.867188 1.539062 6.710938 1.449219 6.601562 C 1.359375 6.503906 1.160156 6.457031 1.085938 6.441406 L 1.074219 6.441406 C 1.066406 6.441406 1.050781 6.441406 1.042969 6.4375 C 0.996094 6.429688 0.953125 6.421875 0.90625 6.410156 C 0.789062 6.378906 0.695312 6.285156 0.59375 6.230469 C 0.554688 6.292969 0.535156 6.363281 0.542969 6.433594 C 0.574219 6.605469 0.6875 6.746094 0.839844 6.824219 L 0.859375 6.828125 C 0.902344 6.847656 0.953125 6.855469 1 6.851562 L 1.058594 6.851562 C 1.089844 6.851562 1.121094 6.851562 1.152344 6.859375 C 1.183594 6.871094 1.207031 6.898438 1.210938 6.929688 C 1.210938 6.953125 1.207031 6.96875 1.179688 6.988281 L 1.105469 7.050781 C 0.972656 7.152344 0.851562 7.265625 0.742188 7.390625 C 0.601562 7.542969 0.597656 7.808594 0.664062 7.980469 C 0.753906 8.1875 0.949219 8.332031 1.171875 8.359375 C 1.207031 8.363281 1.242188 8.367188 1.277344 8.367188 C 1.390625 8.363281 1.5 8.34375 1.605469 8.3125 L 1.613281 8.3125 C 1.621094 8.3125 1.628906 8.3125 1.628906 8.335938 C 1.628906 8.382812 1.636719 8.4375 1.636719 8.488281 C 1.640625 8.566406 1.644531 8.648438 1.652344 8.683594 C 1.671875 8.761719 1.695312 8.835938 1.726562 8.90625 C 1.738281 8.933594 1.746094 8.953125 1.75 8.960938 C 1.757812 8.996094 1.75 9.03125 1.726562 9.054688 C 1.648438 9.117188 1.554688 9.164062 1.457031 9.1875 C 1.40625 9.195312 1.355469 9.195312 1.320312 9.199219 L 1.277344 9.199219 C 1.261719 9.203125 1.246094 9.207031 1.234375 9.21875 C 1.199219 9.269531 1.175781 9.324219 1.15625 9.378906 C 1.140625 9.425781 1.121094 9.46875 1.105469 9.507812 C 1.046875 9.582031 0.972656 9.640625 0.886719 9.679688 C 0.867188 9.691406 0.84375 9.703125 0.824219 9.714844 C 0.792969 9.769531 0.757812 9.816406 0.714844 9.859375 C 0.679688 9.886719 0.636719 9.902344 0.59375 9.902344 C 0.535156 9.980469 0.492188 10.078125 0.480469 10.175781 C 0.480469 10.191406 0.472656 10.203125 0.472656 10.21875 L 0.472656 10.234375 L 0.480469 10.234375 C 0.515625 10.238281 0.550781 10.242188 0.582031 10.25 C 0.628906 10.261719 0.679688 10.269531 0.726562 10.273438 C 0.769531 10.273438 0.808594 10.261719 0.847656 10.242188 C 0.902344 10.210938 0.945312 10.164062 0.972656 10.105469 C 0.992188 10.066406 1.015625 10.03125 1.042969 10.003906 C 1.0625 9.984375 1.085938 9.972656 1.109375 9.972656 C 1.136719 9.976562 1.164062 9.980469 1.191406 9.988281 C 1.210938 9.996094 1.234375 10 1.257812 10.003906 C 1.359375 10 1.457031 9.960938 1.53125 9.894531 C 1.554688 9.878906 1.578125 9.855469 1.601562 9.835938 C 1.632812 9.804688 1.667969 9.773438 1.707031 9.746094 C 1.761719 9.722656 1.820312 9.710938 1.878906 9.714844 C 1.960938 9.71875 2.042969 9.726562 2.125 9.746094 C 2.164062 9.753906 2.203125 9.757812 2.238281 9.761719 C 2.304688 9.761719 2.367188 9.746094 2.425781 9.714844 C 2.488281 9.679688 2.550781 9.644531 2.601562 9.617188 C 2.632812 9.601562 2.660156 9.589844 2.683594 9.578125 C 2.769531 9.515625 2.835938 9.429688 2.878906 9.332031 C 2.90625 9.28125 2.953125 9.164062 2.953125 9.164062 L 2.953125 9.160156 L 2.847656 9.078125 L 2.847656 9.085938 C 2.8125 9.144531 2.773438 9.199219 2.730469 9.253906 C 2.546875 9.507812 2.242188 9.539062 2 9.539062 L 1.949219 9.539062 C 1.675781 9.527344 1.414062 9.640625 1.230469 9.839844 C 1.226562 9.84375 1.21875 9.847656 1.214844 9.847656 C 1.207031 9.847656 1.203125 9.84375 1.199219 9.839844 C 1.195312 9.832031 1.195312 9.824219 1.199219 9.820312 C 1.203125 9.800781 1.210938 9.785156 1.21875 9.769531 C 1.410156 9.5 1.730469 9.460938 1.992188 9.457031 C 2.148438 9.453125 2.300781 9.414062 2.445312 9.347656 C 2.59375 9.261719 2.710938 9.121094 2.765625 8.957031 C 2.792969 8.863281 2.8125 8.769531 2.824219 8.671875 C 2.832031 8.597656 2.847656 8.523438 2.863281 8.449219 C 2.867188 8.441406 2.875 8.433594 2.886719 8.433594 C 2.886719 8.433594 2.890625 8.433594 2.894531 8.433594 C 2.902344 8.433594 2.921875 8.441406 2.921875 8.457031 C 2.894531 8.605469 2.859375 8.804688 2.925781 8.976562 C 2.957031 9.042969 3.027344 9.074219 3.132812 9.074219 C 3.199219 9.070312 3.265625 9.066406 3.335938 9.054688 C 3.382812 9.042969 3.429688 9.039062 3.480469 9.035156 C 3.496094 9.035156 3.515625 9.035156 3.535156 9.035156 C 3.617188 9.039062 3.699219 9.046875 3.777344 9.066406 C 3.847656 9.082031 3.921875 9.09375 3.992188 9.097656 L 4.035156 9.097656 C 4.058594 9.097656 4.085938 9.097656 4.113281 9.097656 C 4.164062 9.101562 4.210938 9.089844 4.25 9.058594 C 4.273438 9.042969 4.265625 9.015625 4.257812 8.980469 L 4.257812 8.972656 C 4.257812 8.96875 4.257812 8.960938 4.25 8.953125 C 4.234375 8.910156 4.214844 8.839844 4.25 8.808594 C 4.257812 8.804688 4.261719 8.800781 4.269531 8.800781 C 4.277344 8.800781 4.285156 8.804688 4.289062 8.8125 C 4.289062 8.824219 4.296875 8.839844 4.296875 8.851562 C 4.3125 8.910156 4.335938 8.964844 4.367188 9.011719 C 4.449219 9.121094 4.554688 9.210938 4.675781 9.28125 C 4.792969 9.347656 4.871094 9.464844 4.886719 9.601562 C 4.886719 9.667969 4.824219 9.714844 4.773438 9.742188 C 4.691406 9.789062 4.601562 9.816406 4.503906 9.824219 C 4.472656 9.820312 4.441406 9.808594 4.414062 9.789062 C 4.339844 9.71875 4.347656 9.695312 4.300781 9.613281 C 4.273438 9.570312 4.246094 9.527344 4.210938 9.488281 C 4.167969 9.4375 4.097656 9.410156 4.03125 9.421875 C 3.953125 9.429688 3.875 9.441406 3.800781 9.460938 C 3.785156 9.464844 3.769531 9.472656 3.761719 9.488281 C 3.757812 9.507812 3.757812 9.527344 3.769531 9.542969 C 3.808594 9.625 3.851562 9.691406 3.898438 9.765625 L 3.917969 9.800781 C 3.929688 9.8125 3.949219 9.820312 3.96875 9.820312 L 4.039062 9.820312 C 4.070312 9.816406 4.097656 9.824219 4.121094 9.847656 C 4.132812 9.867188 4.144531 9.890625 4.15625 9.910156 C 4.183594 9.964844 4.21875 10.015625 4.265625 10.054688 C 4.316406 10.097656 4.378906 10.121094 4.445312 10.121094 C 4.476562 10.121094 4.503906 10.113281 4.535156 10.105469 C 4.734375 10.050781 4.925781 9.972656 5.109375 9.878906 L 5.210938 9.878906 C 5.277344 9.882812 5.339844 9.863281 5.390625 9.820312 C 5.445312 9.738281 5.5 9.648438 5.542969 9.558594 C 5.582031 9.488281 5.582031 9.402344 5.542969 9.335938 C 5.464844 9.21875 5.402344 9.09375 5.359375 8.960938 L 5.355469 8.960938 C 5.34375 8.957031 5.328125 8.949219 5.316406 8.945312 C 5.285156 8.929688 5.253906 8.921875 5.222656 8.921875 C 5.191406 8.917969 5.160156 8.933594 5.140625 8.957031 L 5.355469 9.378906 C 5.375 9.414062 5.382812 9.453125 5.375 9.496094 C 5.34375 9.582031 5.292969 9.660156 5.230469 9.730469 C 5.226562 9.734375 5.21875 9.734375 5.210938 9.738281 C 5.210938 9.738281 5.199219 9.738281 5.207031 9.710938 C 5.230469 9.617188 5.242188 9.523438 5.246094 9.429688 C 5.191406 9.300781 5.125 9.179688 5.050781 9.0625 L 5.050781 9.058594 C 5.019531 9.015625 5 8.964844 4.996094 8.910156 C 5 8.886719 5.015625 8.867188 5.039062 8.863281 C 5.066406 8.851562 5.097656 8.84375 5.128906 8.839844 C 5.207031 8.820312 5.285156 8.804688 5.3125 8.757812 C 5.402344 8.621094 5.457031 8.46875 5.480469 8.304688 C 5.480469 8.296875 5.488281 8.28125 5.5 8.28125 C 5.511719 8.28125 5.515625 8.28125 5.519531 8.300781 C 5.550781 8.480469 5.507812 8.664062 5.402344 8.8125 C 5.394531 8.824219 5.390625 8.835938 5.394531 8.851562 C 5.398438 8.863281 5.402344 8.871094 5.414062 8.878906 C 5.453125 8.90625 5.605469 8.890625 5.710938 8.835938 C 5.792969 8.832031 5.875 8.824219 5.953125 8.808594 L 6.023438 8.792969 C 6.03125 8.796875 6.035156 8.804688 6.039062 8.808594 C 5.972656 8.882812 5.933594 8.96875 5.914062 9.0625 C 5.898438 9.082031 5.878906 9.101562 5.859375 9.117188 C 5.789062 9.179688 5.714844 9.253906 5.710938 9.34375 C 5.710938 9.351562 5.714844 9.363281 5.71875 9.367188 C 5.726562 9.375 5.734375 9.378906 5.746094 9.378906 C 5.757812 9.378906 5.769531 9.375 5.78125 9.367188 C 5.792969 9.363281 5.804688 9.359375 5.816406 9.359375 C 5.828125 9.359375 5.835938 9.371094 5.835938 9.382812 L 5.757812 9.496094 C 5.734375 9.542969 5.734375 9.597656 5.753906 9.648438 C 5.761719 9.675781 5.757812 9.695312 5.765625 9.722656 C 5.792969 9.777344 5.851562 9.808594 5.910156 9.804688 C 6.011719 9.796875 6.109375 9.773438 6.199219 9.734375 L 6.25 9.71875 C 6.375 9.671875 6.507812 9.664062 6.640625 9.691406 C 6.769531 9.683594 6.863281 9.597656 6.960938 9.519531 C 7.007812 9.523438 7.054688 9.546875 7.082031 9.585938 C 7.214844 9.734375 7.402344 9.8125 7.597656 9.808594 L 7.621094 9.808594 C 7.644531 9.800781 7.648438 9.792969 7.652344 9.777344 C 7.652344 9.765625 7.640625 9.746094 7.613281 9.734375 L 7.5 9.671875 C 7.402344 9.613281 7.300781 9.539062 7.273438 9.445312 C 7.242188 9.351562 7.199219 9.257812 7.144531 9.171875 C 7.136719 9.160156 7.125 9.144531 7.117188 9.132812 C 7.097656 9.109375 7.085938 9.085938 7.070312 9.058594 C 7.199219 9.105469 7.273438 9.199219 7.359375 9.359375 C 7.445312 9.5 7.589844 9.589844 7.75 9.601562 C 7.769531 9.601562 7.792969 9.597656 7.8125 9.59375 C 7.828125 9.589844 7.839844 9.578125 7.839844 9.566406 C 7.84375 9.550781 7.839844 9.539062 7.828125 9.53125 Z M 5.542969 7.640625 C 5.542969 7.652344 5.53125 7.660156 5.523438 7.660156 C 5.515625 7.660156 5.507812 7.660156 5.507812 7.640625 C 5.492188 7.527344 5.460938 7.417969 5.414062 7.3125 C 5.402344 7.289062 5.386719 7.265625 5.371094 7.246094 C 5.34375 7.207031 5.320312 7.171875 5.347656 7.128906 C 5.359375 7.113281 5.378906 7.105469 5.398438 7.105469 C 5.410156 7.105469 5.417969 7.109375 5.429688 7.113281 C 5.472656 7.140625 5.507812 7.183594 5.527344 7.234375 C 5.605469 7.402344 5.542969 7.636719 5.542969 7.640625 Z M 6.609375 9.332031 C 6.609375 9.355469 6.597656 9.382812 6.582031 9.402344 C 6.535156 9.421875 6.488281 9.433594 6.4375 9.429688 C 6.394531 9.429688 6.378906 9.421875 6.371094 9.410156 C 6.363281 9.398438 6.375 9.367188 6.375 9.367188 C 6.40625 9.300781 6.460938 9.25 6.53125 9.226562 C 6.550781 9.21875 6.574219 9.21875 6.59375 9.230469 C 6.625 9.246094 6.609375 9.320312 6.609375 9.332031 Z M 6.902344 8.664062 C 6.898438 8.6875 6.890625 8.710938 6.878906 8.730469 C 6.871094 8.75 6.855469 8.761719 6.835938 8.761719 C 6.804688 8.761719 6.804688 8.726562 6.804688 8.71875 C 6.804688 8.667969 6.796875 8.621094 6.78125 8.570312 C 6.761719 8.523438 6.65625 8.386719 6.59375 8.394531 C 6.5625 8.40625 6.535156 8.429688 6.515625 8.457031 C 6.480469 8.503906 6.480469 8.507812 6.46875 8.515625 C 6.457031 8.523438 6.441406 8.515625 6.4375 8.492188 C 6.429688 8.457031 6.429688 8.421875 6.4375 8.390625 C 6.449219 8.355469 6.460938 8.320312 6.480469 8.289062 C 6.480469 8.289062 6.511719 8.21875 6.523438 8.199219 C 6.539062 8.167969 6.570312 8.152344 6.601562 8.152344 C 6.636719 8.152344 6.671875 8.167969 6.691406 8.199219 C 6.710938 8.222656 6.726562 8.246094 6.742188 8.273438 C 6.761719 8.300781 6.78125 8.328125 6.804688 8.351562 C 6.851562 8.402344 6.882812 8.464844 6.898438 8.527344 C 6.910156 8.574219 6.910156 8.617188 6.902344 8.664062 Z M 4.386719 9.519531 C 4.40625 9.550781 4.421875 9.578125 4.433594 9.613281 C 4.457031 9.664062 4.476562 9.710938 4.503906 9.71875 C 4.511719 9.722656 4.523438 9.722656 4.535156 9.722656 C 4.605469 9.71875 4.671875 9.691406 4.722656 9.648438 C 4.753906 9.625 4.746094 9.605469 4.730469 9.582031 C 4.726562 9.574219 4.722656 9.566406 4.71875 9.554688 C 4.703125 9.527344 4.691406 9.5 4.6875 9.46875 C 4.671875 9.417969 4.65625 9.371094 4.601562 9.378906 C 4.515625 9.390625 4.433594 9.398438 4.351562 9.398438 C 4.351562 9.398438 4.320312 9.398438 4.3125 9.414062 C 4.304688 9.433594 4.324219 9.460938 4.347656 9.480469 C 4.363281 9.492188 4.375 9.503906 4.386719 9.519531 Z M 4.386719 9.519531 "/>
<path style=" stroke:none;fill-rule:nonzero;fill:rgb(91.764706%,0%,16.078431%);fill-opacity:1;" d="M 15.824219 10.097656 C 15.816406 10.082031 15.808594 10.0625 15.800781 10.046875 C 15.796875 10.023438 15.792969 9.996094 15.792969 9.972656 C 15.789062 9.933594 15.78125 9.898438 15.769531 9.863281 C 15.75 9.828125 15.714844 9.804688 15.671875 9.800781 C 15.660156 9.800781 15.644531 9.804688 15.632812 9.8125 C 15.574219 9.839844 15.539062 9.875 15.546875 9.941406 C 15.578125 10.027344 15.601562 10.117188 15.617188 10.207031 C 15.617188 10.21875 15.632812 10.269531 15.65625 10.269531 L 15.660156 10.269531 L 15.832031 10.210938 C 15.839844 10.210938 15.84375 10.203125 15.847656 10.195312 C 15.859375 10.171875 15.839844 10.132812 15.824219 10.097656 Z M 15.570312 9.671875 C 15.53125 9.625 15.480469 9.582031 15.425781 9.550781 C 15.40625 9.539062 15.390625 9.527344 15.371094 9.511719 L 15.363281 9.503906 C 15.351562 9.496094 15.335938 9.492188 15.324219 9.492188 C 15.273438 9.5 15.226562 9.53125 15.207031 9.578125 C 15.207031 9.613281 15.253906 9.671875 15.3125 9.738281 L 15.328125 9.753906 C 15.351562 9.789062 15.386719 9.808594 15.425781 9.8125 C 15.460938 9.816406 15.496094 9.800781 15.519531 9.773438 C 15.542969 9.761719 15.589844 9.707031 15.570312 9.671875 Z M 11.550781 9.425781 C 11.519531 9.429688 11.488281 9.429688 11.457031 9.429688 L 11.371094 9.429688 C 11.355469 9.429688 11.335938 9.433594 11.320312 9.433594 C 11.289062 9.488281 11.269531 9.550781 11.265625 9.609375 C 11.273438 9.683594 11.347656 9.699219 11.402344 9.707031 C 11.425781 9.714844 11.445312 9.71875 11.46875 9.71875 C 11.5 9.722656 11.535156 9.707031 11.550781 9.675781 C 11.578125 9.605469 11.597656 9.53125 11.609375 9.457031 C 11.613281 9.449219 11.613281 9.441406 11.609375 9.4375 C 11.601562 9.425781 11.585938 9.421875 11.570312 9.421875 Z M 15.433594 9.929688 L 15.433594 9.925781 L 15.429688 9.925781 C 15.328125 9.929688 15.269531 9.847656 15.207031 9.773438 C 15.191406 9.746094 15.171875 9.722656 15.152344 9.699219 C 15.121094 9.667969 15.089844 9.636719 15.054688 9.609375 C 15.023438 9.585938 14.996094 9.558594 14.976562 9.527344 C 14.957031 9.484375 14.941406 9.4375 14.933594 9.390625 C 14.921875 9.351562 14.910156 9.308594 14.902344 9.289062 C 14.902344 9.285156 14.898438 9.277344 14.894531 9.273438 C 14.878906 9.226562 14.855469 9.164062 14.792969 9.15625 C 14.761719 9.152344 14.730469 9.148438 14.699219 9.148438 C 14.613281 9.15625 14.53125 9.125 14.472656 9.066406 C 14.4375 9.015625 14.4375 8.949219 14.472656 8.894531 C 14.480469 8.871094 14.488281 8.847656 14.496094 8.824219 C 14.53125 8.714844 14.535156 8.597656 14.515625 8.488281 C 14.515625 8.472656 14.503906 8.457031 14.5 8.441406 C 14.484375 8.40625 14.480469 8.367188 14.480469 8.324219 C 14.488281 8.3125 14.503906 8.300781 14.519531 8.304688 C 14.539062 8.304688 14.554688 8.308594 14.570312 8.3125 L 14.605469 8.324219 C 14.660156 8.335938 14.71875 8.34375 14.777344 8.34375 C 14.878906 8.34375 14.980469 8.324219 15.074219 8.285156 C 15.273438 8.195312 15.402344 7.996094 15.40625 7.777344 C 15.386719 7.539062 15.238281 7.3125 14.960938 7.078125 L 14.9375 7.0625 C 14.902344 7.03125 14.859375 6.996094 14.859375 6.960938 C 14.859375 6.925781 14.945312 6.90625 15 6.894531 L 15.03125 6.886719 L 15.046875 6.886719 C 15.117188 6.871094 15.183594 6.84375 15.246094 6.804688 C 15.445312 6.671875 15.4375 6.4375 15.414062 6.308594 C 15.414062 6.308594 15.414062 6.300781 15.414062 6.296875 C 15.414062 6.277344 15.40625 6.257812 15.390625 6.257812 C 15.386719 6.257812 15.378906 6.261719 15.375 6.265625 C 15.371094 6.269531 15.363281 6.277344 15.359375 6.28125 C 15.335938 6.304688 15.308594 6.328125 15.277344 6.34375 C 15.210938 6.378906 15.140625 6.402344 15.066406 6.410156 C 15.019531 6.421875 14.972656 6.433594 14.925781 6.449219 C 14.730469 6.515625 14.605469 6.617188 14.5625 6.746094 C 14.539062 6.824219 14.550781 6.910156 14.59375 6.976562 C 14.667969 7.082031 14.75 7.175781 14.84375 7.257812 C 14.988281 7.394531 15.132812 7.535156 15.167969 7.726562 C 15.183594 7.839844 15.128906 7.953125 15.03125 8.011719 C 14.964844 8.050781 14.886719 8.070312 14.8125 8.066406 C 14.707031 8.066406 14.605469 8.039062 14.511719 7.988281 C 14.394531 7.925781 14.285156 7.859375 14.175781 7.78125 C 14.019531 7.664062 13.84375 7.570312 13.660156 7.503906 C 13.578125 7.46875 13.492188 7.445312 13.402344 7.429688 C 13.277344 7.414062 13.15625 7.371094 13.050781 7.300781 C 13.015625 7.277344 12.980469 7.25 12.945312 7.226562 C 12.855469 7.15625 12.757812 7.101562 12.648438 7.066406 C 12.609375 7.054688 12.570312 7.046875 12.53125 7.042969 C 12.472656 7.039062 12.414062 7.019531 12.363281 6.988281 L 12.292969 6.9375 C 12.210938 6.871094 12.121094 6.816406 12.027344 6.765625 C 11.867188 6.691406 11.699219 6.636719 11.527344 6.605469 C 11.472656 6.585938 11.425781 6.546875 11.394531 6.5 C 11.371094 6.464844 11.339844 6.4375 11.308594 6.414062 C 11.167969 6.300781 11.039062 6.226562 10.875 6.226562 C 10.859375 6.226562 10.84375 6.226562 10.828125 6.226562 C 10.742188 6.242188 10.664062 6.285156 10.601562 6.347656 C 10.441406 6.492188 10.261719 6.617188 10.089844 6.742188 C 9.824219 6.921875 9.574219 7.128906 9.347656 7.359375 C 9.128906 7.589844 9.046875 7.875 8.96875 8.148438 C 8.957031 8.191406 8.945312 8.230469 8.933594 8.269531 C 8.914062 8.347656 8.894531 8.425781 8.875 8.5 C 8.773438 8.90625 8.667969 9.3125 8.261719 9.578125 C 8.25 9.582031 8.246094 9.597656 8.246094 9.609375 C 8.25 9.621094 8.257812 9.632812 8.269531 9.636719 C 8.398438 9.675781 8.535156 9.632812 8.621094 9.527344 C 8.726562 9.402344 8.78125 9.289062 8.902344 9.152344 C 8.910156 9.152344 8.921875 9.132812 8.933594 9.136719 C 8.945312 9.140625 8.945312 9.144531 8.941406 9.160156 C 8.925781 9.210938 8.898438 9.261719 8.863281 9.304688 C 8.828125 9.347656 8.800781 9.398438 8.78125 9.453125 C 8.726562 9.570312 8.644531 9.671875 8.539062 9.746094 C 8.527344 9.753906 8.519531 9.761719 8.511719 9.769531 C 8.503906 9.777344 8.503906 9.785156 8.503906 9.785156 C 8.503906 9.808594 8.523438 9.824219 8.5625 9.828125 C 8.792969 9.828125 8.953125 9.667969 9.109375 9.507812 C 9.117188 9.5 9.128906 9.496094 9.136719 9.496094 C 9.144531 9.496094 9.152344 9.496094 9.160156 9.496094 C 9.179688 9.511719 9.199219 9.527344 9.214844 9.542969 C 9.261719 9.59375 9.320312 9.628906 9.386719 9.652344 C 9.464844 9.636719 9.542969 9.628906 9.625 9.628906 C 9.644531 9.628906 9.667969 9.628906 9.683594 9.628906 C 9.765625 9.652344 9.851562 9.683594 9.929688 9.714844 C 9.988281 9.738281 10.046875 9.757812 10.105469 9.777344 C 10.183594 9.777344 10.234375 9.703125 10.273438 9.640625 C 10.289062 9.601562 10.289062 9.554688 10.273438 9.511719 C 10.269531 9.488281 10.265625 9.464844 10.265625 9.4375 C 10.285156 9.433594 10.300781 9.433594 10.320312 9.4375 C 10.335938 9.441406 10.355469 9.441406 10.375 9.4375 C 10.386719 9.433594 10.394531 9.429688 10.402344 9.417969 C 10.410156 9.40625 10.410156 9.394531 10.40625 9.382812 C 10.390625 9.316406 10.359375 9.253906 10.316406 9.199219 C 10.285156 9.15625 10.257812 9.105469 10.238281 9.050781 C 10.207031 8.980469 10.164062 8.921875 10.109375 8.867188 C 10.046875 8.8125 10 8.742188 9.976562 8.664062 C 9.976562 8.664062 9.96875 8.648438 9.976562 8.640625 C 9.980469 8.636719 9.996094 8.640625 9.996094 8.640625 C 10.023438 8.660156 10.050781 8.683594 10.078125 8.707031 C 10.15625 8.78125 10.253906 8.839844 10.359375 8.867188 C 10.46875 8.878906 10.574219 8.882812 10.679688 8.878906 C 10.691406 8.878906 10.703125 8.871094 10.710938 8.859375 C 10.71875 8.851562 10.71875 8.835938 10.71875 8.824219 C 10.667969 8.730469 10.628906 8.632812 10.601562 8.527344 C 10.554688 8.382812 10.546875 8.226562 10.578125 8.074219 C 10.582031 8.0625 10.59375 8.054688 10.605469 8.054688 C 10.625 8.0625 10.636719 8.078125 10.636719 8.097656 L 10.636719 8.117188 C 10.652344 8.335938 10.667969 8.539062 10.796875 8.714844 C 10.832031 8.765625 10.878906 8.804688 10.933594 8.832031 C 10.96875 8.847656 11.003906 8.871094 11.03125 8.902344 C 11.058594 8.941406 11.0625 8.992188 11.042969 9.035156 L 10.882812 9.273438 C 10.84375 9.328125 10.8125 9.386719 10.792969 9.449219 C 10.785156 9.507812 10.785156 9.566406 10.792969 9.625 L 10.792969 9.640625 C 10.789062 9.636719 10.785156 9.632812 10.78125 9.625 C 10.722656 9.539062 10.703125 9.429688 10.738281 9.328125 C 10.757812 9.277344 10.890625 9.089844 10.929688 9.027344 C 10.941406 9.007812 10.953125 8.988281 10.941406 8.976562 C 10.902344 8.945312 10.851562 8.925781 10.804688 8.914062 L 10.796875 8.914062 C 10.777344 8.925781 10.757812 8.941406 10.746094 8.960938 L 10.738281 8.976562 L 10.535156 9.339844 L 10.53125 9.355469 C 10.515625 9.390625 10.511719 9.425781 10.519531 9.464844 C 10.53125 9.519531 10.546875 9.578125 10.558594 9.625 C 10.558594 9.636719 10.566406 9.648438 10.570312 9.660156 C 10.582031 9.71875 10.601562 9.773438 10.632812 9.820312 C 10.652344 9.839844 10.675781 9.851562 10.703125 9.851562 C 10.71875 9.851562 10.734375 9.851562 10.75 9.847656 C 10.773438 9.84375 10.796875 9.84375 10.824219 9.847656 C 10.851562 9.859375 10.878906 9.875 10.894531 9.902344 C 10.917969 9.929688 10.945312 9.949219 10.976562 9.960938 C 11.039062 9.980469 11.101562 9.996094 11.167969 10.015625 C 11.253906 10.035156 11.335938 10.0625 11.421875 10.09375 C 11.46875 10.113281 11.515625 10.121094 11.566406 10.125 C 11.617188 10.125 11.664062 10.105469 11.699219 10.070312 C 11.757812 10.027344 11.792969 9.960938 11.804688 9.890625 C 11.816406 9.820312 11.839844 9.816406 11.890625 9.808594 C 11.90625 9.808594 11.925781 9.808594 11.941406 9.800781 C 12 9.753906 12.046875 9.695312 12.078125 9.632812 C 12.089844 9.609375 12.097656 9.59375 12.109375 9.578125 C 12.121094 9.5625 12.125 9.546875 12.125 9.53125 C 12.125 9.519531 12.121094 9.503906 12.109375 9.496094 C 12.101562 9.488281 12.089844 9.484375 12.074219 9.484375 L 12.0625 9.484375 C 12.0625 9.484375 11.847656 9.484375 11.789062 9.484375 C 11.699219 9.488281 11.664062 9.574219 11.628906 9.648438 C 11.617188 9.675781 11.605469 9.703125 11.589844 9.726562 C 11.566406 9.773438 11.515625 9.796875 11.464844 9.792969 C 11.441406 9.792969 11.417969 9.785156 11.394531 9.78125 C 11.277344 9.75 11.15625 9.722656 11.109375 9.605469 C 11.097656 9.574219 11.105469 9.539062 11.125 9.511719 C 11.195312 9.429688 11.273438 9.351562 11.355469 9.28125 C 11.480469 9.253906 11.585938 9.175781 11.652344 9.0625 C 11.664062 9.042969 11.671875 9.023438 11.679688 9 C 11.6875 8.96875 11.703125 8.941406 11.730469 8.921875 C 11.746094 8.910156 11.761719 8.914062 11.769531 8.929688 C 11.773438 8.992188 11.761719 9.054688 11.734375 9.105469 C 11.726562 9.121094 11.722656 9.132812 11.71875 9.144531 L 11.71875 9.15625 L 11.730469 9.15625 C 11.761719 9.15625 11.792969 9.160156 11.828125 9.160156 C 11.941406 9.15625 12.058594 9.140625 12.171875 9.117188 C 12.28125 9.09375 12.398438 9.082031 12.511719 9.078125 L 12.558594 9.078125 C 12.613281 9.078125 12.664062 9.082031 12.710938 9.085938 C 12.761719 9.089844 12.808594 9.097656 12.859375 9.097656 C 12.875 9.097656 12.894531 9.097656 12.910156 9.097656 C 13.058594 9.089844 13.167969 9.023438 13.199219 8.914062 C 13.230469 8.824219 13.226562 8.664062 13.191406 8.441406 C 13.191406 8.433594 13.191406 8.425781 13.191406 8.425781 C 13.191406 8.414062 13.191406 8.40625 13.199219 8.402344 C 13.210938 8.398438 13.230469 8.402344 13.234375 8.421875 C 13.285156 8.570312 13.324219 8.726562 13.34375 8.886719 C 13.367188 9.023438 13.421875 9.152344 13.503906 9.265625 C 13.609375 9.425781 13.789062 9.519531 13.980469 9.515625 C 14.03125 9.515625 14.074219 9.511719 14.121094 9.5 C 14.144531 9.5 14.167969 9.5 14.1875 9.5 C 14.441406 9.5 14.675781 9.621094 14.828125 9.820312 C 14.828125 9.824219 14.828125 9.828125 14.828125 9.832031 C 14.828125 9.835938 14.824219 9.839844 14.820312 9.84375 C 14.8125 9.847656 14.808594 9.847656 14.804688 9.84375 L 14.78125 9.828125 C 14.636719 9.71875 14.492188 9.601562 14.300781 9.578125 C 14.269531 9.574219 14.234375 9.570312 14.199219 9.570312 C 14.144531 9.570312 14.089844 9.574219 14.039062 9.582031 C 13.988281 9.589844 13.9375 9.589844 13.890625 9.59375 C 13.832031 9.59375 13.773438 9.582031 13.722656 9.5625 C 13.507812 9.492188 13.332031 9.242188 13.273438 9.09375 C 13.269531 9.085938 13.261719 9.078125 13.253906 9.078125 C 13.246094 9.078125 13.238281 9.082031 13.234375 9.085938 C 13.210938 9.097656 13.207031 9.109375 13.203125 9.125 C 13.207031 9.179688 13.214844 9.238281 13.230469 9.292969 C 13.257812 9.410156 13.277344 9.546875 13.449219 9.660156 C 13.527344 9.726562 13.621094 9.769531 13.722656 9.78125 C 13.753906 9.785156 13.789062 9.785156 13.820312 9.777344 C 13.875 9.765625 13.929688 9.761719 13.984375 9.761719 C 14.167969 9.761719 14.34375 9.820312 14.492188 9.929688 C 14.515625 9.945312 14.539062 9.964844 14.5625 9.984375 C 14.59375 10.011719 14.628906 10.039062 14.667969 10.054688 C 14.695312 10.0625 14.722656 10.070312 14.75 10.070312 C 14.796875 10.070312 14.84375 10.054688 14.882812 10.023438 C 14.902344 10.015625 14.921875 10.011719 14.941406 10.011719 C 14.996094 10.011719 15.027344 10.054688 15.0625 10.109375 C 15.089844 10.144531 15.117188 10.179688 15.148438 10.210938 C 15.199219 10.25 15.257812 10.269531 15.324219 10.265625 C 15.351562 10.265625 15.382812 10.265625 15.410156 10.265625 L 15.492188 10.257812 L 15.519531 10.238281 L 15.519531 10.234375 C 15.507812 10.128906 15.476562 10.023438 15.433594 9.929688 Z M 9.71875 9.417969 C 9.703125 9.4375 9.675781 9.449219 9.652344 9.445312 C 9.625 9.449219 9.601562 9.441406 9.578125 9.425781 C 9.535156 9.390625 9.507812 9.339844 9.507812 9.285156 C 9.507812 9.269531 9.511719 9.25 9.527344 9.242188 C 9.535156 9.234375 9.546875 9.234375 9.554688 9.234375 C 9.605469 9.238281 9.65625 9.261719 9.691406 9.300781 C 9.691406 9.300781 9.742188 9.371094 9.71875 9.417969 Z M 9.773438 8.519531 C 9.761719 8.539062 9.738281 8.550781 9.714844 8.542969 C 9.695312 8.53125 9.675781 8.511719 9.664062 8.488281 C 9.652344 8.464844 9.640625 8.441406 9.605469 8.445312 L 9.601562 8.445312 C 9.574219 8.449219 9.546875 8.460938 9.527344 8.480469 C 9.511719 8.488281 9.464844 8.523438 9.457031 8.535156 C 9.386719 8.578125 9.339844 8.644531 9.3125 8.71875 C 9.308594 8.730469 9.304688 8.746094 9.300781 8.757812 C 9.300781 8.785156 9.292969 8.808594 9.269531 8.828125 L 9.261719 8.828125 C 9.25 8.824219 9.242188 8.824219 9.234375 8.816406 C 9.226562 8.808594 9.222656 8.800781 9.222656 8.789062 C 9.207031 8.667969 9.253906 8.542969 9.34375 8.460938 C 9.402344 8.410156 9.453125 8.355469 9.496094 8.292969 C 9.519531 8.265625 9.542969 8.234375 9.566406 8.207031 C 9.589844 8.179688 9.613281 8.207031 9.664062 8.257812 C 9.707031 8.320312 9.746094 8.390625 9.777344 8.460938 C 9.785156 8.480469 9.78125 8.5 9.773438 8.519531 Z M 10.847656 7.011719 C 10.824219 7.035156 10.796875 7.058594 10.765625 7.082031 C 10.671875 7.160156 10.589844 7.25 10.519531 7.347656 C 10.492188 7.390625 10.46875 7.433594 10.449219 7.476562 C 10.449219 7.480469 10.441406 7.492188 10.429688 7.492188 C 10.425781 7.492188 10.421875 7.488281 10.417969 7.484375 C 10.40625 7.417969 10.410156 7.347656 10.4375 7.285156 C 10.503906 7.128906 10.609375 6.996094 10.75 6.894531 C 10.765625 6.886719 10.785156 6.878906 10.804688 6.878906 C 10.828125 6.878906 10.851562 6.890625 10.863281 6.914062 C 10.878906 6.949219 10.875 6.988281 10.847656 7.011719 Z M 10.847656 7.011719 "/>
</g>
</svg>
