<?xml version="1.0" encoding="UTF-8"?>
<svg xmlns="http://www.w3.org/2000/svg" xmlns:xlink="http://www.w3.org/1999/xlink" width="16px" height="16px" viewBox="0 0 16 16" version="1.1">
<g id="surface1">
<path style=" stroke:none;fill-rule:nonzero;fill:rgb(11.372549%,11.372549%,10.588235%);fill-opacity:1;" d="M 7.121094 9.8125 C 7.0625 9.8125 7.007812 9.800781 6.957031 9.785156 L 4.753906 9.183594 C 4.320312 9.054688 4.234375 8.914062 4.167969 8.742188 C 4.148438 8.6875 4.105469 8.644531 4.054688 8.625 L 1.359375 7.832031 C 1.261719 7.816406 1.179688 7.757812 1.132812 7.667969 L 0.980469 7.40625 C 0.964844 7.378906 0.9375 7.359375 0.90625 7.351562 C 0.773438 7.34375 0.65625 7.269531 0.597656 7.148438 L 0.480469 6.9375 C 0.464844 6.90625 0.433594 6.882812 0.398438 6.878906 C 0.300781 6.886719 0.207031 6.835938 0.160156 6.753906 L 0.046875 6.558594 C 0 6.484375 -0.00390625 6.386719 0.0390625 6.304688 C 0.0859375 6.234375 0.167969 6.1875 0.253906 6.191406 L 6.703125 6.191406 C 6.871094 6.183594 7.035156 6.246094 7.160156 6.363281 C 7.242188 6.449219 7.300781 6.558594 7.324219 6.679688 C 7.335938 6.6875 7.351562 6.691406 7.363281 6.6875 L 8.640625 6.6875 C 8.667969 6.6875 8.675781 6.679688 8.679688 6.675781 C 8.734375 6.382812 9.003906 6.175781 9.300781 6.195312 L 15.742188 6.195312 C 15.832031 6.195312 15.914062 6.238281 15.964844 6.308594 C 15.984375 6.34375 15.996094 6.382812 15.996094 6.421875 C 15.992188 6.46875 15.980469 6.519531 15.957031 6.5625 L 15.835938 6.761719 C 15.789062 6.84375 15.695312 6.894531 15.597656 6.886719 C 15.5625 6.894531 15.535156 6.917969 15.523438 6.945312 L 15.402344 7.15625 C 15.34375 7.277344 15.226562 7.355469 15.09375 7.359375 C 15.058594 7.363281 15.027344 7.386719 15.011719 7.417969 L 14.867188 7.675781 C 14.820312 7.761719 14.734375 7.820312 14.640625 7.832031 L 11.945312 8.625 C 11.890625 8.644531 11.851562 8.6875 11.832031 8.742188 C 11.769531 8.90625 11.683594 9.054688 11.246094 9.183594 L 10.140625 9.480469 L 9.136719 9.753906 C 9.101562 9.765625 9.070312 9.773438 9.039062 9.78125 C 8.867188 9.835938 8.679688 9.796875 8.542969 9.675781 L 8.027344 9.183594 C 8.007812 9.164062 7.980469 9.164062 7.960938 9.183594 L 7.445312 9.679688 C 7.359375 9.761719 7.242188 9.808594 7.121094 9.804688 M 8.230469 9.132812 L 8.589844 9.480469 C 8.628906 9.523438 8.671875 9.566406 8.71875 9.601562 C 8.699219 9.566406 8.6875 9.53125 8.679688 9.492188 L 8.570312 9.121094 C 8.460938 9.132812 8.34375 9.140625 8.230469 9.148438 M 7.425781 9.117188 L 7.324219 9.492188 C 7.316406 9.53125 7.300781 9.566406 7.28125 9.601562 C 7.296875 9.589844 7.3125 9.574219 7.328125 9.5625 L 7.765625 9.144531 C 7.652344 9.140625 7.539062 9.132812 7.425781 9.117188 M 8.710938 9.097656 L 8.808594 9.457031 C 8.824219 9.515625 8.855469 9.570312 8.902344 9.605469 C 8.9375 9.625 8.976562 9.628906 9.011719 9.621094 L 9.527344 9.476562 C 9.488281 9.441406 9.457031 9.398438 9.429688 9.355469 L 9.21875 8.992188 C 9.050781 9.035156 8.882812 9.070312 8.710938 9.09375 M 6.472656 9.480469 L 6.984375 9.621094 C 7.019531 9.632812 7.058594 9.625 7.09375 9.605469 C 7.140625 9.566406 7.175781 9.515625 7.1875 9.457031 L 7.285156 9.097656 C 7.113281 9.070312 6.945312 9.035156 6.777344 8.988281 L 6.65625 9.199219 L 6.570312 9.34375 C 6.542969 9.390625 6.511719 9.433594 6.472656 9.46875 M 9.367188 8.945312 L 9.558594 9.277344 C 9.589844 9.328125 9.664062 9.425781 9.71875 9.417969 L 10.296875 9.257812 C 10.269531 9.242188 10.246094 9.21875 10.222656 9.195312 L 9.824219 8.785156 C 9.671875 8.847656 9.519531 8.902344 9.363281 8.949219 M 6.285156 9.421875 C 6.335938 9.425781 6.410156 9.332031 6.445312 9.277344 L 6.636719 8.949219 C 6.480469 8.902344 6.328125 8.847656 6.179688 8.785156 L 5.8125 9.167969 L 5.78125 9.199219 C 5.757812 9.222656 5.734375 9.242188 5.707031 9.261719 Z M 5.464844 9.199219 C 5.542969 9.21875 5.640625 9.132812 5.671875 9.105469 L 6.035156 8.726562 C 5.910156 8.667969 5.789062 8.605469 5.667969 8.535156 L 4.988281 9.023438 C 4.96875 9.035156 4.953125 9.042969 4.9375 9.054688 Z M 9.964844 8.726562 L 10.328125 9.105469 C 10.359375 9.132812 10.460938 9.21875 10.535156 9.199219 L 11.0625 9.058594 C 11.035156 9.039062 11.019531 9.027344 11.015625 9.027344 L 10.328125 8.535156 C 10.210938 8.605469 10.089844 8.667969 9.964844 8.726562 M 8.070312 7.847656 L 8.070312 9 C 8.222656 9 8.378906 8.992188 8.53125 8.972656 L 8.21875 7.84375 Z M 7.460938 8.976562 C 7.613281 8.992188 7.769531 9 7.921875 9.003906 L 7.921875 7.847656 L 7.78125 7.847656 Z M 4.664062 8.976562 C 4.746094 8.984375 4.832031 8.960938 4.898438 8.910156 L 5.539062 8.457031 C 5.40625 8.375 5.277344 8.285156 5.15625 8.191406 L 4.453125 8.519531 L 4.421875 8.535156 C 4.375 8.558594 4.324219 8.574219 4.273438 8.589844 C 4.296875 8.617188 4.3125 8.648438 4.324219 8.683594 C 4.363281 8.777344 4.398438 8.875 4.667969 8.980469 M 10.460938 8.460938 L 11.09375 8.914062 C 11.160156 8.964844 11.246094 8.988281 11.328125 8.980469 C 11.59375 8.882812 11.636719 8.777344 11.671875 8.683594 C 11.683594 8.648438 11.699219 8.617188 11.71875 8.585938 C 11.671875 8.574219 11.625 8.558594 11.578125 8.535156 L 10.835938 8.191406 C 10.710938 8.285156 10.585938 8.375 10.453125 8.457031 M 8.355469 7.839844 L 8.664062 8.949219 C 8.820312 8.925781 8.980469 8.894531 9.132812 8.855469 L 8.53125 7.839844 Z M 6.855469 8.863281 C 7.007812 8.902344 7.164062 8.9375 7.324219 8.960938 L 7.632812 7.847656 L 7.457031 7.847656 C 7.367188 7.996094 7.078125 8.488281 6.855469 8.867188 M 6.277344 8.675781 C 6.417969 8.734375 6.558594 8.785156 6.703125 8.824219 L 7.28125 7.84375 L 7.078125 7.84375 Z M 8.703125 7.84375 L 9.28125 8.828125 C 9.425781 8.785156 9.570312 8.734375 9.710938 8.679688 L 8.914062 7.84375 Z M 9.113281 7.84375 L 9.855469 8.617188 C 9.96875 8.566406 10.085938 8.507812 10.195312 8.445312 L 9.355469 7.84375 Z M 5.796875 8.449219 C 5.910156 8.511719 6.023438 8.570312 6.140625 8.621094 L 6.878906 7.847656 L 6.632812 7.847656 L 5.792969 8.449219 M 10.964844 8.09375 L 11.640625 8.414062 C 11.722656 8.457031 11.8125 8.472656 11.902344 8.464844 L 12.5625 8.273438 L 11.230469 7.863281 C 11.144531 7.945312 11.054688 8.027344 10.964844 8.101562 M 4.09375 8.460938 C 4.183594 8.472656 4.273438 8.453125 4.351562 8.410156 L 5.027344 8.089844 C 4.9375 8.011719 4.851562 7.9375 4.765625 7.851562 L 3.433594 8.265625 L 3.625 8.320312 L 4.089844 8.457031 M 9.601562 7.84375 L 10.328125 8.367188 C 10.453125 8.289062 10.574219 8.207031 10.6875 8.121094 L 10.097656 7.839844 Z M 5.296875 8.121094 C 5.414062 8.210938 5.535156 8.292969 5.65625 8.371094 L 6.386719 7.847656 L 5.890625 7.847656 Z M 3.0625 8.160156 C 3.167969 8.175781 3.269531 8.167969 3.371094 8.136719 L 4.644531 7.742188 C 4.597656 7.691406 4.550781 7.636719 4.5 7.582031 L 2.515625 7.992188 L 2.503906 7.992188 Z M 12.617188 8.132812 C 12.714844 8.167969 12.820312 8.175781 12.921875 8.15625 L 13.480469 7.992188 L 11.488281 7.578125 C 11.441406 7.632812 11.390625 7.6875 11.339844 7.738281 Z M 10.4375 7.847656 L 10.820312 8.027344 C 10.855469 8 10.957031 7.914062 11.03125 7.847656 Z M 4.96875 7.847656 C 5.042969 7.914062 5.144531 7.996094 5.175781 8.027344 L 5.5625 7.847656 Z M 13.519531 7.855469 C 13.644531 7.882812 13.777344 7.890625 13.902344 7.875 L 14.429688 7.71875 L 11.6875 7.351562 C 11.660156 7.386719 11.632812 7.425781 11.601562 7.460938 L 12.261719 7.59375 C 13.292969 7.808594 13.484375 7.84375 13.523438 7.855469 Z M 2.101562 7.878906 C 2.230469 7.890625 2.355469 7.886719 2.480469 7.855469 L 4.398438 7.460938 L 4.3125 7.355469 L 1.574219 7.71875 Z M 4.871094 6.835938 L 4.871094 7.726562 L 11.148438 7.726562 L 11.148438 6.839844 Z M 11.273438 7.523438 L 11.273438 7.640625 L 11.371094 7.546875 Z M 4.652344 7.542969 C 4.679688 7.578125 4.714844 7.609375 4.746094 7.636719 L 4.746094 7.527344 Z M 1.273438 7.574219 C 1.273438 7.582031 1.308594 7.609375 1.398438 7.59375 L 4.210938 7.21875 L 4.128906 7.109375 L 1.121094 7.3125 L 1.128906 7.324219 Z M 11.789062 7.21875 L 14.605469 7.601562 C 14.699219 7.613281 14.726562 7.585938 14.730469 7.582031 L 14.847656 7.371094 L 14.871094 7.332031 L 14.878906 7.316406 L 11.867188 7.113281 L 11.785156 7.21875 M 11.277344 7.402344 L 11.46875 7.4375 L 11.5625 7.324219 L 11.273438 7.28125 Z M 4.460938 7.320312 C 4.492188 7.359375 4.523438 7.394531 4.558594 7.429688 L 4.75 7.390625 L 4.75 7.28125 Z M 11.277344 7.15625 L 11.652344 7.207031 C 11.679688 7.171875 11.710938 7.125 11.734375 7.09375 L 11.273438 7.0625 Z M 4.289062 7.09375 L 4.367188 7.199219 L 4.753906 7.152344 L 4.753906 7.0625 Z M 0.859375 7.167969 C 0.9375 7.179688 1.019531 7.179688 1.097656 7.167969 L 4.039062 6.976562 C 4.011719 6.9375 3.988281 6.898438 3.960938 6.859375 L 0.625 6.859375 C 0.644531 6.890625 0.667969 6.933594 0.691406 6.980469 L 0.75 7.074219 C 0.769531 7.121094 0.808594 7.160156 0.859375 7.175781 M 11.964844 6.984375 L 14.902344 7.175781 C 14.984375 7.1875 15.066406 7.1875 15.152344 7.175781 C 15.195312 7.15625 15.234375 7.121094 15.253906 7.074219 L 15.375 6.859375 L 12.039062 6.859375 C 12.015625 6.898438 11.988281 6.9375 11.964844 6.976562 M 11.28125 6.9375 L 11.824219 6.972656 L 11.90625 6.847656 L 11.28125 6.847656 Z M 4.117188 6.84375 C 4.140625 6.878906 4.175781 6.933594 4.199219 6.96875 L 4.742188 6.933594 L 4.742188 6.84375 Z M 15.738281 6.363281 L 12.523438 6.363281 C 12.386719 6.378906 12.269531 6.457031 12.203125 6.574219 C 12.179688 6.621094 12.152344 6.667969 12.125 6.714844 L 15.585938 6.714844 C 15.664062 6.710938 15.664062 6.699219 15.6875 6.671875 C 15.6875 6.671875 15.792969 6.492188 15.800781 6.480469 C 15.8125 6.460938 15.820312 6.4375 15.824219 6.417969 C 15.824219 6.410156 15.820312 6.402344 15.816406 6.394531 C 15.800781 6.371094 15.773438 6.363281 15.734375 6.363281 M 8.839844 6.71875 L 11.957031 6.71875 C 12 6.648438 12.039062 6.578125 12.078125 6.511719 C 12.109375 6.457031 12.148438 6.410156 12.191406 6.367188 L 9.300781 6.367188 C 9.175781 6.359375 9.050781 6.402344 8.960938 6.488281 C 8.898438 6.550781 8.859375 6.632812 8.839844 6.71875 M 4.046875 6.71875 L 7.160156 6.71875 C 7.144531 6.628906 7.101562 6.546875 7.039062 6.480469 C 6.949219 6.394531 6.828125 6.351562 6.703125 6.359375 L 3.808594 6.359375 C 3.851562 6.402344 3.890625 6.449219 3.921875 6.5 C 3.921875 6.5 3.992188 6.632812 4.039062 6.710938 M 0.414062 6.710938 L 3.878906 6.710938 C 3.847656 6.664062 3.824219 6.613281 3.796875 6.570312 C 3.796875 6.570312 3.675781 6.359375 3.476562 6.359375 L 0.261719 6.359375 C 0.179688 6.359375 0.179688 6.398438 0.179688 6.414062 C 0.183594 6.433594 0.1875 6.457031 0.203125 6.472656 L 0.296875 6.632812 C 0.304688 6.644531 0.308594 6.65625 0.316406 6.667969 C 0.335938 6.699219 0.34375 6.707031 0.421875 6.710938 "/>
<path style=" stroke:none;fill-rule:nonzero;fill:rgb(11.372549%,11.372549%,10.588235%);fill-opacity:1;" d="M 5.429688 7.585938 L 5.429688 7.578125 C 5.398438 7.496094 5.371094 7.425781 5.347656 7.363281 L 5.15625 7.363281 L 5.15625 7.367188 C 5.125 7.4375 5.097656 7.503906 5.074219 7.574219 L 5.074219 7.585938 L 4.984375 7.585938 L 5.25 6.972656 L 5.292969 6.972656 L 5.554688 7.585938 L 5.429688 7.585938 M 5.316406 7.300781 L 5.25 7.148438 L 5.1875 7.300781 Z M 5.316406 7.300781 "/>
<path style=" stroke:none;fill-rule:nonzero;fill:rgb(11.372549%,11.372549%,10.588235%);fill-opacity:1;" d="M 5.722656 7.601562 C 5.667969 7.601562 5.617188 7.582031 5.574219 7.546875 L 5.574219 7.539062 L 5.59375 7.449219 L 5.625 7.449219 L 5.625 7.453125 C 5.644531 7.503906 5.695312 7.535156 5.746094 7.535156 C 5.796875 7.53125 5.839844 7.492188 5.839844 7.441406 L 5.839844 7.429688 C 5.839844 7.371094 5.789062 7.351562 5.730469 7.324219 C 5.671875 7.300781 5.578125 7.265625 5.578125 7.160156 C 5.582031 7.113281 5.597656 7.070312 5.632812 7.035156 C 5.667969 7.003906 5.710938 6.984375 5.761719 6.984375 L 5.785156 6.984375 C 5.832031 6.984375 5.878906 7 5.917969 7.027344 L 5.921875 7.035156 L 5.921875 7.046875 L 5.894531 7.125 L 5.863281 7.125 L 5.863281 7.121094 C 5.851562 7.082031 5.820312 7.054688 5.78125 7.050781 C 5.738281 7.050781 5.703125 7.082031 5.703125 7.125 C 5.703125 7.1875 5.753906 7.207031 5.816406 7.230469 C 5.875 7.257812 5.964844 7.289062 5.964844 7.398438 C 5.964844 7.511719 5.875 7.601562 5.761719 7.605469 L 5.742188 7.605469 "/>
<path style=" stroke:none;fill-rule:nonzero;fill:rgb(11.372549%,11.372549%,10.588235%);fill-opacity:1;" d="M 6.152344 7.59375 L 6.152344 7.0625 C 6.09375 7.0625 6.039062 7.066406 5.984375 7.074219 L 5.964844 7.074219 L 5.964844 6.992188 L 6.4375 6.992188 L 6.4375 7.074219 L 6.414062 7.074219 C 6.363281 7.066406 6.3125 7.0625 6.261719 7.0625 L 6.261719 7.59375 L 6.152344 7.59375 "/>
<path style=" stroke:none;fill-rule:nonzero;fill:rgb(11.372549%,11.372549%,10.588235%);fill-opacity:1;" d="M 6.730469 7.601562 C 6.566406 7.613281 6.425781 7.488281 6.410156 7.324219 C 6.410156 7.3125 6.410156 7.300781 6.410156 7.289062 C 6.40625 7.121094 6.539062 6.980469 6.710938 6.972656 L 6.738281 6.972656 C 6.902344 6.972656 7.066406 7.070312 7.066406 7.273438 C 7.070312 7.359375 7.039062 7.4375 6.984375 7.5 C 6.929688 7.5625 6.851562 7.597656 6.765625 7.601562 L 6.730469 7.601562 M 6.738281 7.039062 C 6.605469 7.039062 6.523438 7.136719 6.523438 7.300781 C 6.515625 7.359375 6.53125 7.414062 6.5625 7.460938 C 6.597656 7.503906 6.648438 7.535156 6.703125 7.542969 L 6.734375 7.542969 C 6.789062 7.542969 6.839844 7.519531 6.875 7.480469 C 6.921875 7.429688 6.945312 7.367188 6.945312 7.296875 L 6.945312 7.28125 C 6.953125 7.21875 6.9375 7.15625 6.898438 7.105469 C 6.859375 7.058594 6.800781 7.03125 6.738281 7.03125 "/>
<path style=" stroke:none;fill-rule:nonzero;fill:rgb(11.372549%,11.372549%,10.588235%);fill-opacity:1;" d="M 7.621094 7.585938 L 7.570312 7.53125 L 7.234375 7.15625 L 7.234375 7.585938 L 7.152344 7.585938 L 7.152344 6.984375 L 7.210938 6.984375 L 7.585938 7.398438 L 7.585938 6.984375 L 7.667969 6.984375 L 7.667969 7.585938 L 7.617188 7.585938 "/>
<path style=" stroke:none;fill-rule:nonzero;fill:rgb(11.372549%,11.372549%,10.588235%);fill-opacity:1;" d="M 8.585938 7.585938 L 8.585938 7.570312 C 8.574219 7.476562 8.5625 7.300781 8.550781 7.195312 C 8.46875 7.347656 8.402344 7.464844 8.359375 7.566406 L 8.359375 7.578125 L 8.328125 7.578125 L 8.273438 7.472656 C 8.242188 7.40625 8.167969 7.265625 8.132812 7.199219 L 8.132812 7.238281 C 8.117188 7.347656 8.109375 7.457031 8.105469 7.570312 L 8.105469 7.585938 L 8 7.585938 L 8 7.566406 C 8.023438 7.433594 8.074219 7.085938 8.078125 7 L 8.078125 6.984375 L 8.128906 6.984375 L 8.128906 6.992188 C 8.191406 7.121094 8.265625 7.261719 8.351562 7.402344 L 8.429688 7.242188 L 8.574219 6.984375 L 8.617188 6.984375 L 8.617188 7 C 8.640625 7.238281 8.664062 7.425781 8.683594 7.566406 L 8.683594 7.582031 L 8.570312 7.582031 "/>
<path style=" stroke:none;fill-rule:nonzero;fill:rgb(11.372549%,11.372549%,10.588235%);fill-opacity:1;" d="M 9.179688 7.585938 L 9.179688 7.578125 C 9.152344 7.496094 9.121094 7.425781 9.097656 7.363281 L 8.910156 7.363281 C 8.882812 7.429688 8.855469 7.5 8.835938 7.570312 L 8.835938 7.585938 L 8.738281 7.585938 L 9.015625 6.96875 L 9.054688 6.96875 L 9.058594 6.980469 L 9.308594 7.585938 L 9.179688 7.585938 M 9.066406 7.300781 L 9 7.148438 L 8.9375 7.300781 Z M 9.066406 7.300781 "/>
<path style=" stroke:none;fill-rule:nonzero;fill:rgb(11.372549%,11.372549%,10.588235%);fill-opacity:1;" d="M 9.671875 7.585938 L 9.664062 7.585938 L 9.609375 7.511719 C 9.574219 7.472656 9.542969 7.429688 9.515625 7.382812 L 9.453125 7.3125 L 9.449219 7.3125 L 9.449219 7.585938 L 9.335938 7.585938 L 9.335938 6.984375 L 9.527344 6.984375 C 9.664062 6.984375 9.730469 7.035156 9.730469 7.128906 C 9.726562 7.214844 9.664062 7.289062 9.574219 7.300781 L 9.808594 7.585938 L 9.671875 7.585938 M 9.445312 7.242188 L 9.46875 7.242188 C 9.488281 7.242188 9.511719 7.242188 9.53125 7.238281 C 9.585938 7.234375 9.625 7.191406 9.628906 7.136719 C 9.628906 7.117188 9.625 7.09375 9.609375 7.078125 C 9.597656 7.0625 9.578125 7.050781 9.554688 7.050781 C 9.539062 7.046875 9.523438 7.046875 9.507812 7.050781 L 9.453125 7.050781 Z M 9.445312 7.242188 "/>
<path style=" stroke:none;fill-rule:nonzero;fill:rgb(11.372549%,11.372549%,10.588235%);fill-opacity:1;" d="M 9.953125 7.59375 L 9.953125 7.0625 C 9.898438 7.0625 9.84375 7.066406 9.789062 7.074219 L 9.769531 7.074219 L 9.769531 6.992188 L 10.234375 6.992188 L 10.234375 7.074219 L 10.214844 7.074219 C 10.164062 7.066406 10.113281 7.0625 10.0625 7.0625 L 10.0625 7.59375 L 9.953125 7.59375 "/>
<path style=" stroke:none;fill-rule:nonzero;fill:rgb(11.372549%,11.372549%,10.588235%);fill-opacity:1;" d="M 10.292969 6.988281 L 10.398438 6.988281 L 10.398438 7.589844 L 10.292969 7.589844 Z M 10.292969 6.988281 "/>
<path style=" stroke:none;fill-rule:nonzero;fill:rgb(11.372549%,11.372549%,10.588235%);fill-opacity:1;" d="M 10.976562 7.585938 L 10.929688 7.53125 L 10.589844 7.15625 L 10.589844 7.585938 L 10.511719 7.585938 L 10.511719 6.984375 L 10.570312 6.984375 L 10.945312 7.398438 L 10.945312 6.984375 L 11.027344 6.984375 L 11.027344 7.585938 L 10.976562 7.585938 "/>
</g>
</svg>
