<?xml version="1.0" encoding="UTF-8"?>
<svg xmlns="http://www.w3.org/2000/svg" xmlns:xlink="http://www.w3.org/1999/xlink" width="16px" height="16px" viewBox="0 0 16 16" version="1.1">
<g id="surface1">
<path style=" stroke:none;fill-rule:nonzero;fill:rgb(0%,15.686275%,25.490196%);fill-opacity:1;" d="M 9.09375 10.589844 C 9.132812 10.636719 9.199219 10.652344 9.253906 10.632812 L 9.253906 11.453125 C 9.222656 11.449219 9.191406 11.449219 9.15625 11.453125 C 8.457031 11.433594 7.777344 11.199219 7.210938 10.785156 C 7.554688 10.460938 7.835938 10.074219 8.039062 9.648438 C 8.203125 9.652344 8.367188 9.644531 8.527344 9.625 C 8.621094 9.621094 8.710938 9.621094 8.804688 9.625 C 8.847656 9.625 8.925781 9.601562 8.910156 9.519531 C 8.898438 9.460938 8.882812 9.40625 8.859375 9.351562 C 8.847656 9.339844 8.84375 9.316406 8.851562 9.296875 C 8.859375 9.28125 8.878906 9.269531 8.898438 9.269531 C 8.917969 9.273438 8.9375 9.285156 8.941406 9.304688 C 8.964844 9.355469 8.988281 9.402344 9.007812 9.453125 C 9.042969 9.515625 9.09375 9.570312 9.152344 9.613281 C 9.195312 9.640625 9.238281 9.667969 9.289062 9.6875 C 9.386719 9.71875 9.476562 9.773438 9.550781 9.847656 C 9.574219 9.871094 9.597656 9.898438 9.613281 9.925781 C 9.683594 10.015625 9.703125 10.058594 9.613281 10.167969 C 9.535156 10.261719 9.417969 10.324219 9.296875 10.339844 C 9.21875 10.359375 9.136719 10.316406 9.109375 10.242188 C 9.109375 10.242188 9.089844 10.214844 9.085938 10.199219 L 9.035156 10.113281 C 9.011719 10.074219 8.964844 10.050781 8.921875 10.058594 C 8.84375 10.066406 8.765625 10.078125 8.6875 10.101562 C 8.6875 10.101562 8.640625 10.125 8.652344 10.128906 C 8.691406 10.199219 8.738281 10.265625 8.792969 10.328125 C 8.816406 10.351562 8.847656 10.367188 8.886719 10.367188 C 8.964844 10.367188 8.964844 10.367188 8.996094 10.433594 C 9.011719 10.46875 9.027344 10.5 9.042969 10.53125 C 9.058594 10.558594 9.078125 10.582031 9.097656 10.601562 Z M 9.382812 9.921875 C 9.3125 9.929688 9.238281 9.9375 9.171875 9.957031 C 9.175781 10.015625 9.191406 10.070312 9.21875 10.125 C 9.222656 10.144531 9.234375 10.160156 9.253906 10.167969 C 9.269531 10.175781 9.289062 10.179688 9.308594 10.175781 C 9.335938 10.171875 9.363281 10.164062 9.386719 10.152344 C 9.433594 10.125 9.453125 10.074219 9.4375 10.023438 C 9.429688 9.984375 9.410156 9.949219 9.382812 9.921875 Z M 11.382812 8.898438 C 11.363281 8.84375 11.328125 8.792969 11.277344 8.757812 L 11.152344 8.664062 L 11.089844 8.636719 C 11.066406 8.625 11.039062 8.632812 11.023438 8.65625 L 10.984375 8.714844 C 10.96875 8.742188 10.9375 8.75 10.910156 8.738281 C 10.886719 8.738281 10.871094 8.707031 10.867188 8.675781 C 10.867188 8.664062 10.867188 8.648438 10.867188 8.636719 C 10.886719 8.542969 10.929688 8.457031 10.988281 8.386719 C 10.996094 8.371094 11.003906 8.363281 11.019531 8.355469 C 11.042969 8.335938 11.074219 8.335938 11.097656 8.355469 C 11.183594 8.445312 11.277344 8.53125 11.371094 8.609375 C 11.457031 8.6875 11.507812 8.796875 11.507812 8.914062 C 11.511719 8.925781 11.511719 8.941406 11.507812 8.957031 C 11.5 8.972656 11.484375 8.984375 11.464844 8.984375 C 11.445312 8.992188 11.425781 8.984375 11.414062 8.964844 C 11.402344 8.945312 11.390625 8.921875 11.386719 8.898438 Z M 11.179688 9.433594 C 11.207031 9.425781 11.234375 9.4375 11.246094 9.464844 C 11.246094 9.46875 11.246094 9.476562 11.246094 9.484375 C 11.246094 9.496094 11.246094 9.511719 11.246094 9.523438 C 11.246094 9.628906 11.214844 9.683594 11.085938 9.695312 C 11.03125 9.695312 11.015625 9.675781 11.011719 9.644531 C 10.996094 9.582031 11.023438 9.515625 11.078125 9.476562 C 11.109375 9.457031 11.140625 9.441406 11.175781 9.433594 Z M 14.964844 4.539062 L 14.160156 6.769531 L 13.136719 6.769531 L 13.136719 8.105469 C 13.113281 9.921875 11.65625 11.394531 9.839844 11.441406 L 9.671875 11.441406 L 9.671875 10.441406 L 9.734375 10.414062 C 9.785156 10.394531 9.828125 10.355469 9.859375 10.308594 C 9.886719 10.257812 9.941406 10.230469 10 10.230469 C 10.09375 10.230469 10.109375 10.230469 10.125 10.128906 C 10.140625 10.03125 10.152344 9.964844 10.167969 9.890625 C 10.183594 9.820312 10.171875 9.75 10.136719 9.691406 C 10.070312 9.582031 10 9.472656 9.925781 9.355469 C 9.851562 9.238281 9.851562 9.277344 9.78125 9.355469 L 9.84375 9.46875 L 9.992188 9.679688 C 10.011719 9.699219 10.019531 9.726562 10.027344 9.753906 C 10.042969 9.859375 10.027344 9.96875 9.976562 10.0625 C 9.957031 10.066406 9.941406 10.078125 9.933594 10.09375 C 9.925781 10.078125 9.921875 10.066406 9.914062 10.050781 C 9.914062 10.027344 9.914062 10 9.914062 9.976562 C 9.917969 9.890625 9.886719 9.804688 9.828125 9.738281 C 9.757812 9.644531 9.695312 9.558594 9.628906 9.464844 C 9.597656 9.429688 9.582031 9.382812 9.585938 9.332031 C 9.589844 9.285156 9.613281 9.238281 9.648438 9.207031 C 9.683594 9.175781 9.714844 9.148438 9.753906 9.121094 C 9.800781 9.078125 9.835938 9.023438 9.859375 8.960938 C 9.875 8.914062 9.890625 8.867188 9.902344 8.820312 C 9.925781 8.703125 9.9375 8.582031 9.933594 8.460938 L 9.933594 8.371094 C 9.929688 8.347656 9.9375 8.324219 9.957031 8.308594 C 9.96875 8.285156 10 8.28125 10.023438 8.296875 C 10.03125 8.300781 10.035156 8.304688 10.039062 8.308594 C 10.050781 8.328125 10.058594 8.347656 10.066406 8.371094 C 10.09375 8.480469 10.101562 8.589844 10.089844 8.703125 C 10.074219 8.835938 10.046875 8.96875 10.007812 9.097656 C 10 9.121094 10 9.152344 10.007812 9.175781 C 10.027344 9.179688 10.046875 9.179688 10.066406 9.175781 L 10.179688 9.175781 C 10.304688 9.167969 10.425781 9.109375 10.511719 9.015625 L 10.644531 8.894531 C 10.664062 8.882812 10.6875 8.882812 10.703125 8.894531 C 10.726562 8.902344 10.738281 8.929688 10.734375 8.953125 C 10.726562 8.984375 10.714844 9.015625 10.699219 9.046875 C 10.679688 9.097656 10.652344 9.144531 10.621094 9.191406 C 10.554688 9.289062 10.503906 9.390625 10.460938 9.496094 C 10.4375 9.5625 10.40625 9.628906 10.378906 9.699219 C 10.351562 9.765625 10.378906 9.785156 10.441406 9.777344 C 10.503906 9.769531 10.511719 9.777344 10.515625 9.835938 L 10.515625 9.902344 C 10.515625 9.929688 10.515625 9.953125 10.515625 9.976562 C 10.535156 10.066406 10.621094 10.128906 10.710938 10.109375 L 10.734375 10.105469 C 10.777344 10.085938 10.820312 10.066406 10.859375 10.039062 L 10.949219 9.988281 C 11.03125 9.933594 11.128906 9.898438 11.226562 9.890625 L 11.351562 9.890625 C 11.417969 9.894531 11.484375 9.863281 11.523438 9.8125 C 11.546875 9.78125 11.574219 9.753906 11.605469 9.730469 C 11.644531 9.695312 11.703125 9.695312 11.742188 9.730469 L 11.875 9.820312 C 11.941406 9.871094 12.011719 9.910156 12.085938 9.941406 C 12.15625 9.972656 12.230469 9.988281 12.304688 9.980469 L 12.335938 9.980469 C 12.324219 9.96875 12.3125 9.953125 12.296875 9.941406 C 12.261719 9.917969 12.226562 9.890625 12.195312 9.863281 C 12.144531 9.820312 12.101562 9.777344 12.0625 9.726562 C 12.007812 9.667969 11.960938 9.605469 11.914062 9.542969 C 11.886719 9.503906 11.859375 9.46875 11.835938 9.429688 C 11.820312 9.40625 11.816406 9.382812 11.8125 9.359375 C 11.8125 9.347656 11.816406 9.335938 11.824219 9.324219 C 11.832031 9.316406 11.84375 9.3125 11.855469 9.3125 C 11.859375 9.308594 11.867188 9.308594 11.875 9.3125 C 11.898438 9.320312 11.917969 9.332031 11.9375 9.347656 L 12.128906 9.53125 C 12.167969 9.566406 12.207031 9.609375 12.246094 9.648438 C 12.289062 9.695312 12.34375 9.726562 12.40625 9.746094 C 12.464844 9.773438 12.53125 9.773438 12.59375 9.746094 L 12.546875 9.710938 C 12.378906 9.628906 12.238281 9.5 12.132812 9.34375 C 12.054688 9.234375 11.988281 9.117188 11.933594 8.996094 C 11.871094 8.855469 11.824219 8.703125 11.773438 8.558594 C 11.722656 8.410156 11.644531 8.199219 11.578125 8.023438 C 11.53125 7.910156 11.46875 7.804688 11.386719 7.710938 C 11.28125 7.582031 11.160156 7.46875 11.023438 7.375 C 10.886719 7.28125 10.742188 7.207031 10.601562 7.125 C 10.359375 6.992188 10.109375 6.886719 9.878906 6.730469 L 9.800781 6.691406 L 9.726562 6.664062 L 9.6875 6.664062 L 9.6875 4.539062 Z M 9.730469 7.3125 C 9.714844 7.296875 9.699219 7.28125 9.6875 7.265625 C 9.671875 7.238281 9.671875 7.203125 9.6875 7.175781 C 9.703125 7.152344 9.730469 7.132812 9.761719 7.136719 L 9.800781 7.136719 C 9.828125 7.148438 9.855469 7.164062 9.882812 7.175781 C 10 7.253906 10.101562 7.359375 10.171875 7.480469 C 10.199219 7.53125 10.214844 7.589844 10.21875 7.648438 C 10.21875 7.667969 10.21875 7.699219 10.191406 7.707031 C 10.164062 7.71875 10.148438 7.707031 10.132812 7.679688 C 10.050781 7.554688 9.949219 7.453125 9.824219 7.375 L 9.730469 7.308594 Z M 6.863281 10.503906 C 6.808594 10.554688 6.753906 10.605469 6.691406 10.65625 C 6.632812 10.703125 6.574219 10.746094 6.511719 10.792969 C 5.925781 11.226562 5.21875 11.460938 4.488281 11.460938 C 2.988281 11.46875 1.652344 10.507812 1.1875 9.082031 C 0.71875 7.65625 1.226562 6.089844 2.441406 5.207031 C 3.65625 4.324219 5.300781 4.328125 6.511719 5.214844 C 5.976562 5.738281 5.601562 6.402344 5.429688 7.128906 C 4.941406 6.613281 4.125 6.589844 3.605469 7.078125 C 3.089844 7.566406 3.0625 8.382812 3.550781 8.902344 C 4.039062 9.417969 4.851562 9.445312 5.375 8.960938 C 5.394531 8.941406 5.414062 8.921875 5.429688 8.902344 C 5.5 8.828125 5.558594 8.75 5.609375 8.664062 C 5.722656 8.46875 5.78125 8.246094 5.78125 8.023438 C 5.777344 7.070312 6.171875 6.160156 6.863281 5.503906 C 6.917969 5.453125 6.972656 5.402344 7.03125 5.355469 C 7.09375 5.308594 7.152344 5.257812 7.210938 5.214844 C 7.804688 4.78125 8.519531 4.546875 9.253906 4.546875 L 9.253906 6.664062 C 9.242188 6.675781 9.226562 6.683594 9.210938 6.691406 C 9.175781 6.707031 9.132812 6.714844 9.09375 6.71875 C 8.789062 6.753906 8.503906 6.898438 8.292969 7.121094 C 8.226562 7.191406 8.164062 7.273438 8.109375 7.359375 C 8 7.554688 7.941406 7.777344 7.941406 8 C 7.941406 8.949219 7.550781 9.859375 6.859375 10.507812 Z M 6.863281 10.503906 "/>
</g>
</svg>
