<?xml version="1.0" encoding="UTF-8"?>
<svg xmlns="http://www.w3.org/2000/svg" xmlns:xlink="http://www.w3.org/1999/xlink" width="16px" height="16px" viewBox="0 0 16 16" version="1.1">
<g id="surface1">
<rect x="0" y="0" width="16" height="16" style="fill:rgb(100%,100%,100%);fill-opacity:0.0117647;stroke:none;"/>
<path style="fill:none;stroke-width:1.5;stroke-linecap:butt;stroke-linejoin:round;stroke:rgb(55.294118%,73.333333%,51.372549%);stroke-opacity:1;stroke-miterlimit:4;" d="M 22.001953 7.001953 L 12 1.998047 L 1.998047 7.001953 L 1.998047 16.998047 L 12 22.001953 L 22.001953 16.998047 Z M 22.001953 7.001953 " transform="matrix(0.666667,0,0,0.666667,0,0)"/>
<path style="fill:none;stroke-width:1.5;stroke-linecap:round;stroke-linejoin:round;stroke:rgb(55.294118%,73.333333%,51.372549%);stroke-opacity:1;stroke-miterlimit:4;" d="M 1.998047 7.001953 L 12 12 " transform="matrix(0.666667,0,0,0.666667,0,0)"/>
<path style="fill:none;stroke-width:1.5;stroke-linecap:round;stroke-linejoin:round;stroke:rgb(55.294118%,73.333333%,51.372549%);stroke-opacity:1;stroke-miterlimit:4;" d="M 12 22.001953 L 12 12 " transform="matrix(0.666667,0,0,0.666667,0,0)"/>
<path style="fill:none;stroke-width:1.5;stroke-linecap:round;stroke-linejoin:round;stroke:rgb(55.294118%,73.333333%,51.372549%);stroke-opacity:1;stroke-miterlimit:4;" d="M 22.001953 7.001953 L 12 12 " transform="matrix(0.666667,0,0,0.666667,0,0)"/>
<path style="fill:none;stroke-width:1.5;stroke-linecap:round;stroke-linejoin:round;stroke:rgb(55.294118%,73.333333%,51.372549%);stroke-opacity:1;stroke-miterlimit:4;" d="M 16.998047 4.5 L 7.001953 9.498047 " transform="matrix(0.666667,0,0,0.666667,0,0)"/>
</g>
</svg>
