<?xml version="1.0" encoding="UTF-8"?>
<svg xmlns="http://www.w3.org/2000/svg" xmlns:xlink="http://www.w3.org/1999/xlink" width="16px" height="16px" viewBox="0 0 16 16" version="1.1">
<defs>
<clipPath id="clip1">
  <path d="M 15.9375 8 C 15.9375 12.382812 12.382812 15.9375 8 15.9375 C 3.617188 15.9375 0.0625 12.382812 0.0625 8 C 0.0625 3.617188 3.617188 0.0625 8 0.0625 C 12.382812 0.0625 15.9375 3.617188 15.9375 8 Z M 15.9375 8 "/>
</clipPath>
<clipPath id="clip2">
  <path d="M 1 1 L 10 1 L 10 9 L 1 9 Z M 1 1 "/>
</clipPath>
<clipPath id="clip3">
  <path d="M 15.9375 8 C 15.9375 12.382812 12.382812 15.9375 8 15.9375 C 3.617188 15.9375 0.0625 12.382812 0.0625 8 C 0.0625 3.617188 3.617188 0.0625 8 0.0625 C 12.382812 0.0625 15.9375 3.617188 15.9375 8 Z M 15.9375 8 "/>
</clipPath>
</defs>
<g id="surface1">
<g clip-path="url(#clip1)" clip-rule="nonzero">
<path style=" stroke:none;fill-rule:nonzero;fill:rgb(78.039216%,27.45098%,23.921569%);fill-opacity:1;" d="M 16.125 14.886719 C 16.125 15.585938 15.800781 16.15625 15.40625 16.15625 L -0.691406 16.15625 C -1.085938 16.15625 -1.410156 15.585938 -1.410156 14.886719 L -1.410156 1.113281 C -1.410156 0.414062 -1.085938 -0.15625 -0.691406 -0.15625 L 15.40625 -0.15625 C 15.800781 -0.15625 16.125 0.414062 16.125 1.113281 Z M 16.125 14.886719 "/>
</g>
<g clip-path="url(#clip2)" clip-rule="nonzero">
<g clip-path="url(#clip3)" clip-rule="nonzero">
<path style=" stroke:none;fill-rule:evenodd;fill:rgb(98.823529%,80.784314%,13.333333%);fill-opacity:1;" d="M 4.070312 3.945312 L 3.574219 2.425781 L 3.082031 3.945312 L 1.484375 3.945312 L 2.777344 4.882812 L 2.28125 6.402344 L 3.574219 5.464844 L 4.867188 6.402344 L 4.375 4.882812 L 5.667969 3.945312 Z M 7.132812 2.683594 L 7.40625 3.140625 L 7.453125 2.609375 L 7.972656 2.488281 L 7.480469 2.28125 L 7.527344 1.75 L 7.179688 2.152344 L 6.6875 1.945312 L 6.960938 2.402344 L 6.613281 2.800781 Z M 8.507812 4.085938 L 8.582031 4.613281 L 8.832031 4.144531 L 9.355469 4.234375 L 8.984375 3.851562 L 9.234375 3.382812 L 8.753906 3.617188 L 8.382812 3.234375 L 8.460938 3.761719 L 7.980469 3.996094 Z M 9.394531 5.839844 L 8.863281 5.859375 L 8.679688 5.359375 L 8.535156 5.871094 L 8.003906 5.890625 L 8.445312 6.1875 L 8.296875 6.699219 L 8.71875 6.371094 L 9.160156 6.667969 L 8.976562 6.167969 Z M 7.5 6.871094 L 7.167969 7.289062 L 6.667969 7.097656 L 6.960938 7.542969 L 6.628906 7.960938 L 7.140625 7.820312 L 7.433594 8.265625 L 7.460938 7.730469 L 7.972656 7.589844 L 7.476562 7.402344 Z M 7.5 6.871094 "/>
</g>
</g>
</g>
</svg>
