<?xml version="1.0" encoding="UTF-8"?>
<svg xmlns="http://www.w3.org/2000/svg" xmlns:xlink="http://www.w3.org/1999/xlink" width="16px" height="16px" viewBox="0 0 16 16" version="1.1">
<defs>
<clipPath id="clip1">
  <path d="M 0 0 L 6 0 L 6 16 L 0 16 Z M 0 0 "/>
</clipPath>
<clipPath id="clip2">
  <path d="M 15.9375 8 C 15.9375 12.382812 12.382812 15.9375 8 15.9375 C 3.617188 15.9375 0.0625 12.382812 0.0625 8 C 0.0625 3.617188 3.617188 0.0625 8 0.0625 C 12.382812 0.0625 15.9375 3.617188 15.9375 8 Z M 15.9375 8 "/>
</clipPath>
<clipPath id="clip3">
  <path d="M 5 0 L 11 0 L 11 16 L 5 16 Z M 5 0 "/>
</clipPath>
<clipPath id="clip4">
  <path d="M 15.9375 8 C 15.9375 12.382812 12.382812 15.9375 8 15.9375 C 3.617188 15.9375 0.0625 12.382812 0.0625 8 C 0.0625 3.617188 3.617188 0.0625 8 0.0625 C 12.382812 0.0625 15.9375 3.617188 15.9375 8 Z M 15.9375 8 "/>
</clipPath>
<clipPath id="clip5">
  <path d="M 10 0 L 16 0 L 16 16 L 10 16 Z M 10 0 "/>
</clipPath>
<clipPath id="clip6">
  <path d="M 15.9375 8 C 15.9375 12.382812 12.382812 15.9375 8 15.9375 C 3.617188 15.9375 0.0625 12.382812 0.0625 8 C 0.0625 3.617188 3.617188 0.0625 8 0.0625 C 12.382812 0.0625 15.9375 3.617188 15.9375 8 Z M 15.9375 8 "/>
</clipPath>
</defs>
<g id="surface1">
<g clip-path="url(#clip1)" clip-rule="nonzero">
<g clip-path="url(#clip2)" clip-rule="nonzero">
<path style=" stroke:none;fill-rule:nonzero;fill:rgb(30.196078%,70.588235%,44.705882%);fill-opacity:1;" d="M -0.0664062 -0.15625 L 5.3125 -0.15625 L 5.3125 16.25 L -0.0664062 16.25 Z M -0.0664062 -0.15625 "/>
</g>
</g>
<g clip-path="url(#clip3)" clip-rule="nonzero">
<g clip-path="url(#clip4)" clip-rule="nonzero">
<path style=" stroke:none;fill-rule:nonzero;fill:rgb(100%,100%,100%);fill-opacity:1;" d="M 5.3125 -0.15625 L 10.695312 -0.15625 L 10.695312 16.25 L 5.3125 16.25 Z M 5.3125 -0.15625 "/>
</g>
</g>
<g clip-path="url(#clip5)" clip-rule="nonzero">
<g clip-path="url(#clip6)" clip-rule="nonzero">
<path style=" stroke:none;fill-rule:nonzero;fill:rgb(78.039216%,27.45098%,23.921569%);fill-opacity:1;" d="M 10.695312 -0.15625 L 16.074219 -0.15625 L 16.074219 16.25 L 10.695312 16.25 Z M 10.695312 -0.15625 "/>
</g>
</g>
</g>
</svg>
