<?xml version="1.0" encoding="UTF-8"?>
<svg xmlns="http://www.w3.org/2000/svg" xmlns:xlink="http://www.w3.org/1999/xlink" width="16px" height="16px" viewBox="0 0 16 16" version="1.1">
<g id="surface1">
<path style=" stroke:none;fill-rule:nonzero;fill:rgb(0%,0%,0%);fill-opacity:1;" d="M 15.796875 14.855469 L 11.207031 10.261719 C 12.113281 9.175781 12.65625 7.789062 12.65625 6.273438 C 12.65625 2.816406 9.820312 0.0078125 6.332031 0.0078125 C 2.84375 0.0078125 0 2.820312 0 6.277344 C 0 9.730469 2.835938 12.542969 6.324219 12.542969 C 7.808594 12.542969 9.171875 12.035156 10.253906 11.183594 L 14.859375 15.792969 C 15.128906 16.0625 15.53125 16.0625 15.796875 15.792969 C 16.066406 15.523438 16.066406 15.121094 15.796875 14.855469 Z M 1.34375 6.277344 C 1.34375 3.5625 3.582031 1.355469 6.324219 1.355469 C 9.070312 1.355469 11.304688 3.5625 11.304688 6.277344 C 11.304688 8.992188 9.070312 11.199219 6.324219 11.199219 C 3.582031 11.199219 1.34375 8.988281 1.34375 6.277344 Z M 1.34375 6.277344 "/>
</g>
</svg>
