<?xml version="1.0" encoding="UTF-8"?>
<svg xmlns="http://www.w3.org/2000/svg" xmlns:xlink="http://www.w3.org/1999/xlink" width="16px" height="16px" viewBox="0 0 16 16" version="1.1">
<g id="surface1">
<path style=" stroke:none;fill-rule:nonzero;fill:rgb(0%,0%,0%);fill-opacity:1;" d="M 16 14.734375 L 11.277344 10.011719 C 12.058594 8.964844 12.53125 7.671875 12.53125 6.265625 C 12.53125 2.808594 9.71875 0 6.265625 0 C 2.808594 0 0 2.808594 0 6.265625 C 0 9.71875 2.808594 12.53125 6.265625 12.53125 C 7.671875 12.53125 8.964844 12.058594 10.011719 11.277344 L 14.734375 16 Z M 0.597656 6.265625 C 0.597656 3.140625 3.140625 0.597656 6.265625 0.597656 C 9.390625 0.597656 11.933594 3.140625 11.933594 6.265625 C 11.933594 9.390625 9.390625 11.933594 6.265625 11.933594 C 3.140625 11.933594 0.597656 9.390625 0.597656 6.265625 Z M 0.597656 6.265625 "/>
</g>
</svg>
