<?xml version="1.0" encoding="UTF-8"?>
<svg xmlns="http://www.w3.org/2000/svg" xmlns:xlink="http://www.w3.org/1999/xlink" width="16px" height="16px" viewBox="0 0 16 16" version="1.1">
<g id="surface1">
<path style=" stroke:none;fill-rule:nonzero;fill:rgb(0%,0%,0%);fill-opacity:1;" d="M 1.777344 3.058594 L 0 2.589844 L 0.511719 0.65625 L 3.777344 1.519531 L 3.777344 2.914062 L 16 2.914062 L 13.914062 9.710938 L 3.777344 9.710938 L 3.777344 11.246094 L 13.488281 11.246094 L 12.945312 13.179688 L 11.617188 13.179688 C 11.777344 13.402344 11.871094 13.675781 11.871094 13.972656 C 11.871094 14.730469 11.257812 15.34375 10.5 15.34375 C 9.742188 15.34375 9.128906 14.730469 9.128906 13.972656 C 9.128906 13.675781 9.222656 13.402344 9.382812 13.179688 L 5.617188 13.179688 C 5.777344 13.402344 5.871094 13.675781 5.871094 13.972656 C 5.871094 14.730469 5.257812 15.34375 4.5 15.34375 C 3.742188 15.34375 3.128906 14.730469 3.128906 13.972656 C 3.128906 13.675781 3.222656 13.402344 3.382812 13.179688 L 1.777344 13.179688 Z M 1.777344 3.058594 "/>
</g>
</svg>
