<?xml version="1.0" encoding="UTF-8"?>
<svg xmlns="http://www.w3.org/2000/svg" xmlns:xlink="http://www.w3.org/1999/xlink" width="16px" height="16px" viewBox="0 0 16 16" version="1.1">
<defs>
<clipPath id="clip1">
  <path d="M 15.9375 8 C 15.9375 12.382812 12.382812 15.9375 8 15.9375 C 3.617188 15.9375 0.0625 12.382812 0.0625 8 C 0.0625 3.617188 3.617188 0.0625 8 0.0625 C 12.382812 0.0625 15.9375 3.617188 15.9375 8 Z M 15.9375 8 "/>
</clipPath>
<clipPath id="clip2">
  <path d="M 0 0 L 8 0 L 8 9 L 0 9 Z M 0 0 "/>
</clipPath>
<clipPath id="clip3">
  <path d="M 15.9375 8 C 15.9375 12.382812 12.382812 15.9375 8 15.9375 C 3.617188 15.9375 0.0625 12.382812 0.0625 8 C 0.0625 3.617188 3.617188 0.0625 8 0.0625 C 12.382812 0.0625 15.9375 3.617188 15.9375 8 Z M 15.9375 8 "/>
</clipPath>
<clipPath id="clip4">
  <path d="M 0 0 L 1 0 L 1 2 L 0 2 Z M 0 0 "/>
</clipPath>
<clipPath id="clip5">
  <path d="M 15.9375 8 C 15.9375 12.382812 12.382812 15.9375 8 15.9375 C 3.617188 15.9375 0.0625 12.382812 0.0625 8 C 0.0625 3.617188 3.617188 0.0625 8 0.0625 C 12.382812 0.0625 15.9375 3.617188 15.9375 8 Z M 15.9375 8 "/>
</clipPath>
<clipPath id="clip6">
  <path d="M 0 0 L 1 0 L 1 1 L 0 1 Z M 0 0 "/>
</clipPath>
<clipPath id="clip7">
  <path d="M 15.9375 8 C 15.9375 12.382812 12.382812 15.9375 8 15.9375 C 3.617188 15.9375 0.0625 12.382812 0.0625 8 C 0.0625 3.617188 3.617188 0.0625 8 0.0625 C 12.382812 0.0625 15.9375 3.617188 15.9375 8 Z M 15.9375 8 "/>
</clipPath>
<clipPath id="clip8">
  <path d="M 0 0 L 3 0 L 3 2 L 0 2 Z M 0 0 "/>
</clipPath>
<clipPath id="clip9">
  <path d="M 15.9375 8 C 15.9375 12.382812 12.382812 15.9375 8 15.9375 C 3.617188 15.9375 0.0625 12.382812 0.0625 8 C 0.0625 3.617188 3.617188 0.0625 8 0.0625 C 12.382812 0.0625 15.9375 3.617188 15.9375 8 Z M 15.9375 8 "/>
</clipPath>
<clipPath id="clip10">
  <path d="M 1 0 L 3 0 L 3 1 L 1 1 Z M 1 0 "/>
</clipPath>
<clipPath id="clip11">
  <path d="M 15.9375 8 C 15.9375 12.382812 12.382812 15.9375 8 15.9375 C 3.617188 15.9375 0.0625 12.382812 0.0625 8 C 0.0625 3.617188 3.617188 0.0625 8 0.0625 C 12.382812 0.0625 15.9375 3.617188 15.9375 8 Z M 15.9375 8 "/>
</clipPath>
<clipPath id="clip12">
  <path d="M 2 0 L 3 0 L 3 1 L 2 1 Z M 2 0 "/>
</clipPath>
<clipPath id="clip13">
  <path d="M 15.9375 8 C 15.9375 12.382812 12.382812 15.9375 8 15.9375 C 3.617188 15.9375 0.0625 12.382812 0.0625 8 C 0.0625 3.617188 3.617188 0.0625 8 0.0625 C 12.382812 0.0625 15.9375 3.617188 15.9375 8 Z M 15.9375 8 "/>
</clipPath>
<clipPath id="clip14">
  <path d="M 1 0 L 5 0 L 5 2 L 1 2 Z M 1 0 "/>
</clipPath>
<clipPath id="clip15">
  <path d="M 15.9375 8 C 15.9375 12.382812 12.382812 15.9375 8 15.9375 C 3.617188 15.9375 0.0625 12.382812 0.0625 8 C 0.0625 3.617188 3.617188 0.0625 8 0.0625 C 12.382812 0.0625 15.9375 3.617188 15.9375 8 Z M 15.9375 8 "/>
</clipPath>
<clipPath id="clip16">
  <path d="M 3 0 L 5 0 L 5 1 L 3 1 Z M 3 0 "/>
</clipPath>
<clipPath id="clip17">
  <path d="M 15.9375 8 C 15.9375 12.382812 12.382812 15.9375 8 15.9375 C 3.617188 15.9375 0.0625 12.382812 0.0625 8 C 0.0625 3.617188 3.617188 0.0625 8 0.0625 C 12.382812 0.0625 15.9375 3.617188 15.9375 8 Z M 15.9375 8 "/>
</clipPath>
<clipPath id="clip18">
  <path d="M 4 0 L 5 0 L 5 1 L 4 1 Z M 4 0 "/>
</clipPath>
<clipPath id="clip19">
  <path d="M 15.9375 8 C 15.9375 12.382812 12.382812 15.9375 8 15.9375 C 3.617188 15.9375 0.0625 12.382812 0.0625 8 C 0.0625 3.617188 3.617188 0.0625 8 0.0625 C 12.382812 0.0625 15.9375 3.617188 15.9375 8 Z M 15.9375 8 "/>
</clipPath>
<clipPath id="clip20">
  <path d="M 4 0 L 7 0 L 7 2 L 4 2 Z M 4 0 "/>
</clipPath>
<clipPath id="clip21">
  <path d="M 15.9375 8 C 15.9375 12.382812 12.382812 15.9375 8 15.9375 C 3.617188 15.9375 0.0625 12.382812 0.0625 8 C 0.0625 3.617188 3.617188 0.0625 8 0.0625 C 12.382812 0.0625 15.9375 3.617188 15.9375 8 Z M 15.9375 8 "/>
</clipPath>
<clipPath id="clip22">
  <path d="M 5 0 L 7 0 L 7 1 L 5 1 Z M 5 0 "/>
</clipPath>
<clipPath id="clip23">
  <path d="M 15.9375 8 C 15.9375 12.382812 12.382812 15.9375 8 15.9375 C 3.617188 15.9375 0.0625 12.382812 0.0625 8 C 0.0625 3.617188 3.617188 0.0625 8 0.0625 C 12.382812 0.0625 15.9375 3.617188 15.9375 8 Z M 15.9375 8 "/>
</clipPath>
<clipPath id="clip24">
  <path d="M 6 0 L 7 0 L 7 1 L 6 1 Z M 6 0 "/>
</clipPath>
<clipPath id="clip25">
  <path d="M 15.9375 8 C 15.9375 12.382812 12.382812 15.9375 8 15.9375 C 3.617188 15.9375 0.0625 12.382812 0.0625 8 C 0.0625 3.617188 3.617188 0.0625 8 0.0625 C 12.382812 0.0625 15.9375 3.617188 15.9375 8 Z M 15.9375 8 "/>
</clipPath>
<clipPath id="clip26">
  <path d="M 0 0 L 7 0 L 7 3 L 0 3 Z M 0 0 "/>
</clipPath>
<clipPath id="clip27">
  <path d="M 15.9375 8 C 15.9375 12.382812 12.382812 15.9375 8 15.9375 C 3.617188 15.9375 0.0625 12.382812 0.0625 8 C 0.0625 3.617188 3.617188 0.0625 8 0.0625 C 12.382812 0.0625 15.9375 3.617188 15.9375 8 Z M 15.9375 8 "/>
</clipPath>
<clipPath id="clip28">
  <path d="M 0 1 L 2 1 L 2 3 L 0 3 Z M 0 1 "/>
</clipPath>
<clipPath id="clip29">
  <path d="M 15.9375 8 C 15.9375 12.382812 12.382812 15.9375 8 15.9375 C 3.617188 15.9375 0.0625 12.382812 0.0625 8 C 0.0625 3.617188 3.617188 0.0625 8 0.0625 C 12.382812 0.0625 15.9375 3.617188 15.9375 8 Z M 15.9375 8 "/>
</clipPath>
<clipPath id="clip30">
  <path d="M 0 1 L 2 1 L 2 2 L 0 2 Z M 0 1 "/>
</clipPath>
<clipPath id="clip31">
  <path d="M 15.9375 8 C 15.9375 12.382812 12.382812 15.9375 8 15.9375 C 3.617188 15.9375 0.0625 12.382812 0.0625 8 C 0.0625 3.617188 3.617188 0.0625 8 0.0625 C 12.382812 0.0625 15.9375 3.617188 15.9375 8 Z M 15.9375 8 "/>
</clipPath>
<clipPath id="clip32">
  <path d="M 1 1 L 2 1 L 2 2 L 1 2 Z M 1 1 "/>
</clipPath>
<clipPath id="clip33">
  <path d="M 15.9375 8 C 15.9375 12.382812 12.382812 15.9375 8 15.9375 C 3.617188 15.9375 0.0625 12.382812 0.0625 8 C 0.0625 3.617188 3.617188 0.0625 8 0.0625 C 12.382812 0.0625 15.9375 3.617188 15.9375 8 Z M 15.9375 8 "/>
</clipPath>
<clipPath id="clip34">
  <path d="M 0 1 L 4 1 L 4 3 L 0 3 Z M 0 1 "/>
</clipPath>
<clipPath id="clip35">
  <path d="M 15.9375 8 C 15.9375 12.382812 12.382812 15.9375 8 15.9375 C 3.617188 15.9375 0.0625 12.382812 0.0625 8 C 0.0625 3.617188 3.617188 0.0625 8 0.0625 C 12.382812 0.0625 15.9375 3.617188 15.9375 8 Z M 15.9375 8 "/>
</clipPath>
<clipPath id="clip36">
  <path d="M 2 1 L 4 1 L 4 2 L 2 2 Z M 2 1 "/>
</clipPath>
<clipPath id="clip37">
  <path d="M 15.9375 8 C 15.9375 12.382812 12.382812 15.9375 8 15.9375 C 3.617188 15.9375 0.0625 12.382812 0.0625 8 C 0.0625 3.617188 3.617188 0.0625 8 0.0625 C 12.382812 0.0625 15.9375 3.617188 15.9375 8 Z M 15.9375 8 "/>
</clipPath>
<clipPath id="clip38">
  <path d="M 3 1 L 4 1 L 4 2 L 3 2 Z M 3 1 "/>
</clipPath>
<clipPath id="clip39">
  <path d="M 15.9375 8 C 15.9375 12.382812 12.382812 15.9375 8 15.9375 C 3.617188 15.9375 0.0625 12.382812 0.0625 8 C 0.0625 3.617188 3.617188 0.0625 8 0.0625 C 12.382812 0.0625 15.9375 3.617188 15.9375 8 Z M 15.9375 8 "/>
</clipPath>
<clipPath id="clip40">
  <path d="M 2 1 L 6 1 L 6 3 L 2 3 Z M 2 1 "/>
</clipPath>
<clipPath id="clip41">
  <path d="M 15.9375 8 C 15.9375 12.382812 12.382812 15.9375 8 15.9375 C 3.617188 15.9375 0.0625 12.382812 0.0625 8 C 0.0625 3.617188 3.617188 0.0625 8 0.0625 C 12.382812 0.0625 15.9375 3.617188 15.9375 8 Z M 15.9375 8 "/>
</clipPath>
<clipPath id="clip42">
  <path d="M 4 1 L 6 1 L 6 2 L 4 2 Z M 4 1 "/>
</clipPath>
<clipPath id="clip43">
  <path d="M 15.9375 8 C 15.9375 12.382812 12.382812 15.9375 8 15.9375 C 3.617188 15.9375 0.0625 12.382812 0.0625 8 C 0.0625 3.617188 3.617188 0.0625 8 0.0625 C 12.382812 0.0625 15.9375 3.617188 15.9375 8 Z M 15.9375 8 "/>
</clipPath>
<clipPath id="clip44">
  <path d="M 5 1 L 6 1 L 6 2 L 5 2 Z M 5 1 "/>
</clipPath>
<clipPath id="clip45">
  <path d="M 15.9375 8 C 15.9375 12.382812 12.382812 15.9375 8 15.9375 C 3.617188 15.9375 0.0625 12.382812 0.0625 8 C 0.0625 3.617188 3.617188 0.0625 8 0.0625 C 12.382812 0.0625 15.9375 3.617188 15.9375 8 Z M 15.9375 8 "/>
</clipPath>
<clipPath id="clip46">
  <path d="M 0 1 L 6 1 L 6 3 L 0 3 Z M 0 1 "/>
</clipPath>
<clipPath id="clip47">
  <path d="M 15.9375 8 C 15.9375 12.382812 12.382812 15.9375 8 15.9375 C 3.617188 15.9375 0.0625 12.382812 0.0625 8 C 0.0625 3.617188 3.617188 0.0625 8 0.0625 C 12.382812 0.0625 15.9375 3.617188 15.9375 8 Z M 15.9375 8 "/>
</clipPath>
<clipPath id="clip48">
  <path d="M 0 2 L 1 2 L 1 3 L 0 3 Z M 0 2 "/>
</clipPath>
<clipPath id="clip49">
  <path d="M 15.9375 8 C 15.9375 12.382812 12.382812 15.9375 8 15.9375 C 3.617188 15.9375 0.0625 12.382812 0.0625 8 C 0.0625 3.617188 3.617188 0.0625 8 0.0625 C 12.382812 0.0625 15.9375 3.617188 15.9375 8 Z M 15.9375 8 "/>
</clipPath>
<clipPath id="clip50">
  <path d="M 0 2 L 3 2 L 3 3 L 0 3 Z M 0 2 "/>
</clipPath>
<clipPath id="clip51">
  <path d="M 15.9375 8 C 15.9375 12.382812 12.382812 15.9375 8 15.9375 C 3.617188 15.9375 0.0625 12.382812 0.0625 8 C 0.0625 3.617188 3.617188 0.0625 8 0.0625 C 12.382812 0.0625 15.9375 3.617188 15.9375 8 Z M 15.9375 8 "/>
</clipPath>
<clipPath id="clip52">
  <path d="M 1 2 L 3 2 L 3 3 L 1 3 Z M 1 2 "/>
</clipPath>
<clipPath id="clip53">
  <path d="M 15.9375 8 C 15.9375 12.382812 12.382812 15.9375 8 15.9375 C 3.617188 15.9375 0.0625 12.382812 0.0625 8 C 0.0625 3.617188 3.617188 0.0625 8 0.0625 C 12.382812 0.0625 15.9375 3.617188 15.9375 8 Z M 15.9375 8 "/>
</clipPath>
<clipPath id="clip54">
  <path d="M 2 2 L 3 2 L 3 3 L 2 3 Z M 2 2 "/>
</clipPath>
<clipPath id="clip55">
  <path d="M 15.9375 8 C 15.9375 12.382812 12.382812 15.9375 8 15.9375 C 3.617188 15.9375 0.0625 12.382812 0.0625 8 C 0.0625 3.617188 3.617188 0.0625 8 0.0625 C 12.382812 0.0625 15.9375 3.617188 15.9375 8 Z M 15.9375 8 "/>
</clipPath>
<clipPath id="clip56">
  <path d="M 1 2 L 5 2 L 5 3 L 1 3 Z M 1 2 "/>
</clipPath>
<clipPath id="clip57">
  <path d="M 15.9375 8 C 15.9375 12.382812 12.382812 15.9375 8 15.9375 C 3.617188 15.9375 0.0625 12.382812 0.0625 8 C 0.0625 3.617188 3.617188 0.0625 8 0.0625 C 12.382812 0.0625 15.9375 3.617188 15.9375 8 Z M 15.9375 8 "/>
</clipPath>
<clipPath id="clip58">
  <path d="M 3 2 L 5 2 L 5 3 L 3 3 Z M 3 2 "/>
</clipPath>
<clipPath id="clip59">
  <path d="M 15.9375 8 C 15.9375 12.382812 12.382812 15.9375 8 15.9375 C 3.617188 15.9375 0.0625 12.382812 0.0625 8 C 0.0625 3.617188 3.617188 0.0625 8 0.0625 C 12.382812 0.0625 15.9375 3.617188 15.9375 8 Z M 15.9375 8 "/>
</clipPath>
<clipPath id="clip60">
  <path d="M 4 2 L 5 2 L 5 3 L 4 3 Z M 4 2 "/>
</clipPath>
<clipPath id="clip61">
  <path d="M 15.9375 8 C 15.9375 12.382812 12.382812 15.9375 8 15.9375 C 3.617188 15.9375 0.0625 12.382812 0.0625 8 C 0.0625 3.617188 3.617188 0.0625 8 0.0625 C 12.382812 0.0625 15.9375 3.617188 15.9375 8 Z M 15.9375 8 "/>
</clipPath>
<clipPath id="clip62">
  <path d="M 4 2 L 7 2 L 7 3 L 4 3 Z M 4 2 "/>
</clipPath>
<clipPath id="clip63">
  <path d="M 15.9375 8 C 15.9375 12.382812 12.382812 15.9375 8 15.9375 C 3.617188 15.9375 0.0625 12.382812 0.0625 8 C 0.0625 3.617188 3.617188 0.0625 8 0.0625 C 12.382812 0.0625 15.9375 3.617188 15.9375 8 Z M 15.9375 8 "/>
</clipPath>
<clipPath id="clip64">
  <path d="M 5 2 L 7 2 L 7 3 L 5 3 Z M 5 2 "/>
</clipPath>
<clipPath id="clip65">
  <path d="M 15.9375 8 C 15.9375 12.382812 12.382812 15.9375 8 15.9375 C 3.617188 15.9375 0.0625 12.382812 0.0625 8 C 0.0625 3.617188 3.617188 0.0625 8 0.0625 C 12.382812 0.0625 15.9375 3.617188 15.9375 8 Z M 15.9375 8 "/>
</clipPath>
<clipPath id="clip66">
  <path d="M 6 2 L 7 2 L 7 3 L 6 3 Z M 6 2 "/>
</clipPath>
<clipPath id="clip67">
  <path d="M 15.9375 8 C 15.9375 12.382812 12.382812 15.9375 8 15.9375 C 3.617188 15.9375 0.0625 12.382812 0.0625 8 C 0.0625 3.617188 3.617188 0.0625 8 0.0625 C 12.382812 0.0625 15.9375 3.617188 15.9375 8 Z M 15.9375 8 "/>
</clipPath>
<clipPath id="clip68">
  <path d="M 0 3 L 2 3 L 2 4 L 0 4 Z M 0 3 "/>
</clipPath>
<clipPath id="clip69">
  <path d="M 15.9375 8 C 15.9375 12.382812 12.382812 15.9375 8 15.9375 C 3.617188 15.9375 0.0625 12.382812 0.0625 8 C 0.0625 3.617188 3.617188 0.0625 8 0.0625 C 12.382812 0.0625 15.9375 3.617188 15.9375 8 Z M 15.9375 8 "/>
</clipPath>
<clipPath id="clip70">
  <path d="M 0 2 L 2 2 L 2 4 L 0 4 Z M 0 2 "/>
</clipPath>
<clipPath id="clip71">
  <path d="M 15.9375 8 C 15.9375 12.382812 12.382812 15.9375 8 15.9375 C 3.617188 15.9375 0.0625 12.382812 0.0625 8 C 0.0625 3.617188 3.617188 0.0625 8 0.0625 C 12.382812 0.0625 15.9375 3.617188 15.9375 8 Z M 15.9375 8 "/>
</clipPath>
<clipPath id="clip72">
  <path d="M 1 3 L 2 3 L 2 4 L 1 4 Z M 1 3 "/>
</clipPath>
<clipPath id="clip73">
  <path d="M 15.9375 8 C 15.9375 12.382812 12.382812 15.9375 8 15.9375 C 3.617188 15.9375 0.0625 12.382812 0.0625 8 C 0.0625 3.617188 3.617188 0.0625 8 0.0625 C 12.382812 0.0625 15.9375 3.617188 15.9375 8 Z M 15.9375 8 "/>
</clipPath>
<clipPath id="clip74">
  <path d="M 0 3 L 4 3 L 4 4 L 0 4 Z M 0 3 "/>
</clipPath>
<clipPath id="clip75">
  <path d="M 15.9375 8 C 15.9375 12.382812 12.382812 15.9375 8 15.9375 C 3.617188 15.9375 0.0625 12.382812 0.0625 8 C 0.0625 3.617188 3.617188 0.0625 8 0.0625 C 12.382812 0.0625 15.9375 3.617188 15.9375 8 Z M 15.9375 8 "/>
</clipPath>
<clipPath id="clip76">
  <path d="M 2 3 L 4 3 L 4 4 L 2 4 Z M 2 3 "/>
</clipPath>
<clipPath id="clip77">
  <path d="M 15.9375 8 C 15.9375 12.382812 12.382812 15.9375 8 15.9375 C 3.617188 15.9375 0.0625 12.382812 0.0625 8 C 0.0625 3.617188 3.617188 0.0625 8 0.0625 C 12.382812 0.0625 15.9375 3.617188 15.9375 8 Z M 15.9375 8 "/>
</clipPath>
<clipPath id="clip78">
  <path d="M 2 2 L 4 2 L 4 4 L 2 4 Z M 2 2 "/>
</clipPath>
<clipPath id="clip79">
  <path d="M 15.9375 8 C 15.9375 12.382812 12.382812 15.9375 8 15.9375 C 3.617188 15.9375 0.0625 12.382812 0.0625 8 C 0.0625 3.617188 3.617188 0.0625 8 0.0625 C 12.382812 0.0625 15.9375 3.617188 15.9375 8 Z M 15.9375 8 "/>
</clipPath>
<clipPath id="clip80">
  <path d="M 3 3 L 4 3 L 4 4 L 3 4 Z M 3 3 "/>
</clipPath>
<clipPath id="clip81">
  <path d="M 15.9375 8 C 15.9375 12.382812 12.382812 15.9375 8 15.9375 C 3.617188 15.9375 0.0625 12.382812 0.0625 8 C 0.0625 3.617188 3.617188 0.0625 8 0.0625 C 12.382812 0.0625 15.9375 3.617188 15.9375 8 Z M 15.9375 8 "/>
</clipPath>
<clipPath id="clip82">
  <path d="M 2 3 L 6 3 L 6 4 L 2 4 Z M 2 3 "/>
</clipPath>
<clipPath id="clip83">
  <path d="M 15.9375 8 C 15.9375 12.382812 12.382812 15.9375 8 15.9375 C 3.617188 15.9375 0.0625 12.382812 0.0625 8 C 0.0625 3.617188 3.617188 0.0625 8 0.0625 C 12.382812 0.0625 15.9375 3.617188 15.9375 8 Z M 15.9375 8 "/>
</clipPath>
<clipPath id="clip84">
  <path d="M 4 3 L 6 3 L 6 4 L 4 4 Z M 4 3 "/>
</clipPath>
<clipPath id="clip85">
  <path d="M 15.9375 8 C 15.9375 12.382812 12.382812 15.9375 8 15.9375 C 3.617188 15.9375 0.0625 12.382812 0.0625 8 C 0.0625 3.617188 3.617188 0.0625 8 0.0625 C 12.382812 0.0625 15.9375 3.617188 15.9375 8 Z M 15.9375 8 "/>
</clipPath>
<clipPath id="clip86">
  <path d="M 4 2 L 6 2 L 6 4 L 4 4 Z M 4 2 "/>
</clipPath>
<clipPath id="clip87">
  <path d="M 15.9375 8 C 15.9375 12.382812 12.382812 15.9375 8 15.9375 C 3.617188 15.9375 0.0625 12.382812 0.0625 8 C 0.0625 3.617188 3.617188 0.0625 8 0.0625 C 12.382812 0.0625 15.9375 3.617188 15.9375 8 Z M 15.9375 8 "/>
</clipPath>
<clipPath id="clip88">
  <path d="M 5 3 L 6 3 L 6 4 L 5 4 Z M 5 3 "/>
</clipPath>
<clipPath id="clip89">
  <path d="M 15.9375 8 C 15.9375 12.382812 12.382812 15.9375 8 15.9375 C 3.617188 15.9375 0.0625 12.382812 0.0625 8 C 0.0625 3.617188 3.617188 0.0625 8 0.0625 C 12.382812 0.0625 15.9375 3.617188 15.9375 8 Z M 15.9375 8 "/>
</clipPath>
<clipPath id="clip90">
  <path d="M 0 3 L 6 3 L 6 5 L 0 5 Z M 0 3 "/>
</clipPath>
<clipPath id="clip91">
  <path d="M 15.9375 8 C 15.9375 12.382812 12.382812 15.9375 8 15.9375 C 3.617188 15.9375 0.0625 12.382812 0.0625 8 C 0.0625 3.617188 3.617188 0.0625 8 0.0625 C 12.382812 0.0625 15.9375 3.617188 15.9375 8 Z M 15.9375 8 "/>
</clipPath>
<clipPath id="clip92">
  <path d="M 0 4 L 1 4 L 1 5 L 0 5 Z M 0 4 "/>
</clipPath>
<clipPath id="clip93">
  <path d="M 15.9375 8 C 15.9375 12.382812 12.382812 15.9375 8 15.9375 C 3.617188 15.9375 0.0625 12.382812 0.0625 8 C 0.0625 3.617188 3.617188 0.0625 8 0.0625 C 12.382812 0.0625 15.9375 3.617188 15.9375 8 Z M 15.9375 8 "/>
</clipPath>
<clipPath id="clip94">
  <path d="M 0 3 L 1 3 L 1 5 L 0 5 Z M 0 3 "/>
</clipPath>
<clipPath id="clip95">
  <path d="M 15.9375 8 C 15.9375 12.382812 12.382812 15.9375 8 15.9375 C 3.617188 15.9375 0.0625 12.382812 0.0625 8 C 0.0625 3.617188 3.617188 0.0625 8 0.0625 C 12.382812 0.0625 15.9375 3.617188 15.9375 8 Z M 15.9375 8 "/>
</clipPath>
<clipPath id="clip96">
  <path d="M 0 4 L 1 4 L 1 5 L 0 5 Z M 0 4 "/>
</clipPath>
<clipPath id="clip97">
  <path d="M 15.9375 8 C 15.9375 12.382812 12.382812 15.9375 8 15.9375 C 3.617188 15.9375 0.0625 12.382812 0.0625 8 C 0.0625 3.617188 3.617188 0.0625 8 0.0625 C 12.382812 0.0625 15.9375 3.617188 15.9375 8 Z M 15.9375 8 "/>
</clipPath>
<clipPath id="clip98">
  <path d="M 0 4 L 3 4 L 3 5 L 0 5 Z M 0 4 "/>
</clipPath>
<clipPath id="clip99">
  <path d="M 15.9375 8 C 15.9375 12.382812 12.382812 15.9375 8 15.9375 C 3.617188 15.9375 0.0625 12.382812 0.0625 8 C 0.0625 3.617188 3.617188 0.0625 8 0.0625 C 12.382812 0.0625 15.9375 3.617188 15.9375 8 Z M 15.9375 8 "/>
</clipPath>
<clipPath id="clip100">
  <path d="M 1 4 L 3 4 L 3 5 L 1 5 Z M 1 4 "/>
</clipPath>
<clipPath id="clip101">
  <path d="M 15.9375 8 C 15.9375 12.382812 12.382812 15.9375 8 15.9375 C 3.617188 15.9375 0.0625 12.382812 0.0625 8 C 0.0625 3.617188 3.617188 0.0625 8 0.0625 C 12.382812 0.0625 15.9375 3.617188 15.9375 8 Z M 15.9375 8 "/>
</clipPath>
<clipPath id="clip102">
  <path d="M 1 3 L 3 3 L 3 5 L 1 5 Z M 1 3 "/>
</clipPath>
<clipPath id="clip103">
  <path d="M 15.9375 8 C 15.9375 12.382812 12.382812 15.9375 8 15.9375 C 3.617188 15.9375 0.0625 12.382812 0.0625 8 C 0.0625 3.617188 3.617188 0.0625 8 0.0625 C 12.382812 0.0625 15.9375 3.617188 15.9375 8 Z M 15.9375 8 "/>
</clipPath>
<clipPath id="clip104">
  <path d="M 2 4 L 3 4 L 3 5 L 2 5 Z M 2 4 "/>
</clipPath>
<clipPath id="clip105">
  <path d="M 15.9375 8 C 15.9375 12.382812 12.382812 15.9375 8 15.9375 C 3.617188 15.9375 0.0625 12.382812 0.0625 8 C 0.0625 3.617188 3.617188 0.0625 8 0.0625 C 12.382812 0.0625 15.9375 3.617188 15.9375 8 Z M 15.9375 8 "/>
</clipPath>
<clipPath id="clip106">
  <path d="M 1 4 L 5 4 L 5 5 L 1 5 Z M 1 4 "/>
</clipPath>
<clipPath id="clip107">
  <path d="M 15.9375 8 C 15.9375 12.382812 12.382812 15.9375 8 15.9375 C 3.617188 15.9375 0.0625 12.382812 0.0625 8 C 0.0625 3.617188 3.617188 0.0625 8 0.0625 C 12.382812 0.0625 15.9375 3.617188 15.9375 8 Z M 15.9375 8 "/>
</clipPath>
<clipPath id="clip108">
  <path d="M 3 4 L 5 4 L 5 5 L 3 5 Z M 3 4 "/>
</clipPath>
<clipPath id="clip109">
  <path d="M 15.9375 8 C 15.9375 12.382812 12.382812 15.9375 8 15.9375 C 3.617188 15.9375 0.0625 12.382812 0.0625 8 C 0.0625 3.617188 3.617188 0.0625 8 0.0625 C 12.382812 0.0625 15.9375 3.617188 15.9375 8 Z M 15.9375 8 "/>
</clipPath>
<clipPath id="clip110">
  <path d="M 3 3 L 5 3 L 5 5 L 3 5 Z M 3 3 "/>
</clipPath>
<clipPath id="clip111">
  <path d="M 15.9375 8 C 15.9375 12.382812 12.382812 15.9375 8 15.9375 C 3.617188 15.9375 0.0625 12.382812 0.0625 8 C 0.0625 3.617188 3.617188 0.0625 8 0.0625 C 12.382812 0.0625 15.9375 3.617188 15.9375 8 Z M 15.9375 8 "/>
</clipPath>
<clipPath id="clip112">
  <path d="M 4 4 L 5 4 L 5 5 L 4 5 Z M 4 4 "/>
</clipPath>
<clipPath id="clip113">
  <path d="M 15.9375 8 C 15.9375 12.382812 12.382812 15.9375 8 15.9375 C 3.617188 15.9375 0.0625 12.382812 0.0625 8 C 0.0625 3.617188 3.617188 0.0625 8 0.0625 C 12.382812 0.0625 15.9375 3.617188 15.9375 8 Z M 15.9375 8 "/>
</clipPath>
<clipPath id="clip114">
  <path d="M 4 4 L 7 4 L 7 5 L 4 5 Z M 4 4 "/>
</clipPath>
<clipPath id="clip115">
  <path d="M 15.9375 8 C 15.9375 12.382812 12.382812 15.9375 8 15.9375 C 3.617188 15.9375 0.0625 12.382812 0.0625 8 C 0.0625 3.617188 3.617188 0.0625 8 0.0625 C 12.382812 0.0625 15.9375 3.617188 15.9375 8 Z M 15.9375 8 "/>
</clipPath>
<clipPath id="clip116">
  <path d="M 5 4 L 7 4 L 7 5 L 5 5 Z M 5 4 "/>
</clipPath>
<clipPath id="clip117">
  <path d="M 15.9375 8 C 15.9375 12.382812 12.382812 15.9375 8 15.9375 C 3.617188 15.9375 0.0625 12.382812 0.0625 8 C 0.0625 3.617188 3.617188 0.0625 8 0.0625 C 12.382812 0.0625 15.9375 3.617188 15.9375 8 Z M 15.9375 8 "/>
</clipPath>
<clipPath id="clip118">
  <path d="M 6 3 L 7 3 L 7 5 L 6 5 Z M 6 3 "/>
</clipPath>
<clipPath id="clip119">
  <path d="M 15.9375 8 C 15.9375 12.382812 12.382812 15.9375 8 15.9375 C 3.617188 15.9375 0.0625 12.382812 0.0625 8 C 0.0625 3.617188 3.617188 0.0625 8 0.0625 C 12.382812 0.0625 15.9375 3.617188 15.9375 8 Z M 15.9375 8 "/>
</clipPath>
<clipPath id="clip120">
  <path d="M 6 4 L 7 4 L 7 5 L 6 5 Z M 6 4 "/>
</clipPath>
<clipPath id="clip121">
  <path d="M 15.9375 8 C 15.9375 12.382812 12.382812 15.9375 8 15.9375 C 3.617188 15.9375 0.0625 12.382812 0.0625 8 C 0.0625 3.617188 3.617188 0.0625 8 0.0625 C 12.382812 0.0625 15.9375 3.617188 15.9375 8 Z M 15.9375 8 "/>
</clipPath>
<clipPath id="clip122">
  <path d="M 0 5 L 2 5 L 2 6 L 0 6 Z M 0 5 "/>
</clipPath>
<clipPath id="clip123">
  <path d="M 15.9375 8 C 15.9375 12.382812 12.382812 15.9375 8 15.9375 C 3.617188 15.9375 0.0625 12.382812 0.0625 8 C 0.0625 3.617188 3.617188 0.0625 8 0.0625 C 12.382812 0.0625 15.9375 3.617188 15.9375 8 Z M 15.9375 8 "/>
</clipPath>
<clipPath id="clip124">
  <path d="M 0 4 L 2 4 L 2 6 L 0 6 Z M 0 4 "/>
</clipPath>
<clipPath id="clip125">
  <path d="M 15.9375 8 C 15.9375 12.382812 12.382812 15.9375 8 15.9375 C 3.617188 15.9375 0.0625 12.382812 0.0625 8 C 0.0625 3.617188 3.617188 0.0625 8 0.0625 C 12.382812 0.0625 15.9375 3.617188 15.9375 8 Z M 15.9375 8 "/>
</clipPath>
<clipPath id="clip126">
  <path d="M 1 4 L 2 4 L 2 6 L 1 6 Z M 1 4 "/>
</clipPath>
<clipPath id="clip127">
  <path d="M 15.9375 8 C 15.9375 12.382812 12.382812 15.9375 8 15.9375 C 3.617188 15.9375 0.0625 12.382812 0.0625 8 C 0.0625 3.617188 3.617188 0.0625 8 0.0625 C 12.382812 0.0625 15.9375 3.617188 15.9375 8 Z M 15.9375 8 "/>
</clipPath>
<clipPath id="clip128">
  <path d="M 0 5 L 4 5 L 4 6 L 0 6 Z M 0 5 "/>
</clipPath>
<clipPath id="clip129">
  <path d="M 15.9375 8 C 15.9375 12.382812 12.382812 15.9375 8 15.9375 C 3.617188 15.9375 0.0625 12.382812 0.0625 8 C 0.0625 3.617188 3.617188 0.0625 8 0.0625 C 12.382812 0.0625 15.9375 3.617188 15.9375 8 Z M 15.9375 8 "/>
</clipPath>
<clipPath id="clip130">
  <path d="M 2 4 L 4 4 L 4 6 L 2 6 Z M 2 4 "/>
</clipPath>
<clipPath id="clip131">
  <path d="M 15.9375 8 C 15.9375 12.382812 12.382812 15.9375 8 15.9375 C 3.617188 15.9375 0.0625 12.382812 0.0625 8 C 0.0625 3.617188 3.617188 0.0625 8 0.0625 C 12.382812 0.0625 15.9375 3.617188 15.9375 8 Z M 15.9375 8 "/>
</clipPath>
<clipPath id="clip132">
  <path d="M 3 4 L 4 4 L 4 6 L 3 6 Z M 3 4 "/>
</clipPath>
<clipPath id="clip133">
  <path d="M 15.9375 8 C 15.9375 12.382812 12.382812 15.9375 8 15.9375 C 3.617188 15.9375 0.0625 12.382812 0.0625 8 C 0.0625 3.617188 3.617188 0.0625 8 0.0625 C 12.382812 0.0625 15.9375 3.617188 15.9375 8 Z M 15.9375 8 "/>
</clipPath>
<clipPath id="clip134">
  <path d="M 2 5 L 6 5 L 6 6 L 2 6 Z M 2 5 "/>
</clipPath>
<clipPath id="clip135">
  <path d="M 15.9375 8 C 15.9375 12.382812 12.382812 15.9375 8 15.9375 C 3.617188 15.9375 0.0625 12.382812 0.0625 8 C 0.0625 3.617188 3.617188 0.0625 8 0.0625 C 12.382812 0.0625 15.9375 3.617188 15.9375 8 Z M 15.9375 8 "/>
</clipPath>
<clipPath id="clip136">
  <path d="M 4 4 L 6 4 L 6 6 L 4 6 Z M 4 4 "/>
</clipPath>
<clipPath id="clip137">
  <path d="M 15.9375 8 C 15.9375 12.382812 12.382812 15.9375 8 15.9375 C 3.617188 15.9375 0.0625 12.382812 0.0625 8 C 0.0625 3.617188 3.617188 0.0625 8 0.0625 C 12.382812 0.0625 15.9375 3.617188 15.9375 8 Z M 15.9375 8 "/>
</clipPath>
<clipPath id="clip138">
  <path d="M 5 4 L 6 4 L 6 6 L 5 6 Z M 5 4 "/>
</clipPath>
<clipPath id="clip139">
  <path d="M 15.9375 8 C 15.9375 12.382812 12.382812 15.9375 8 15.9375 C 3.617188 15.9375 0.0625 12.382812 0.0625 8 C 0.0625 3.617188 3.617188 0.0625 8 0.0625 C 12.382812 0.0625 15.9375 3.617188 15.9375 8 Z M 15.9375 8 "/>
</clipPath>
<clipPath id="clip140">
  <path d="M 0 5 L 6 5 L 6 7 L 0 7 Z M 0 5 "/>
</clipPath>
<clipPath id="clip141">
  <path d="M 15.9375 8 C 15.9375 12.382812 12.382812 15.9375 8 15.9375 C 3.617188 15.9375 0.0625 12.382812 0.0625 8 C 0.0625 3.617188 3.617188 0.0625 8 0.0625 C 12.382812 0.0625 15.9375 3.617188 15.9375 8 Z M 15.9375 8 "/>
</clipPath>
<clipPath id="clip142">
  <path d="M 0 5 L 1 5 L 1 7 L 0 7 Z M 0 5 "/>
</clipPath>
<clipPath id="clip143">
  <path d="M 15.9375 8 C 15.9375 12.382812 12.382812 15.9375 8 15.9375 C 3.617188 15.9375 0.0625 12.382812 0.0625 8 C 0.0625 3.617188 3.617188 0.0625 8 0.0625 C 12.382812 0.0625 15.9375 3.617188 15.9375 8 Z M 15.9375 8 "/>
</clipPath>
<clipPath id="clip144">
  <path d="M 0 5 L 1 5 L 1 6 L 0 6 Z M 0 5 "/>
</clipPath>
<clipPath id="clip145">
  <path d="M 15.9375 8 C 15.9375 12.382812 12.382812 15.9375 8 15.9375 C 3.617188 15.9375 0.0625 12.382812 0.0625 8 C 0.0625 3.617188 3.617188 0.0625 8 0.0625 C 12.382812 0.0625 15.9375 3.617188 15.9375 8 Z M 15.9375 8 "/>
</clipPath>
<clipPath id="clip146">
  <path d="M 0 5 L 1 5 L 1 7 L 0 7 Z M 0 5 "/>
</clipPath>
<clipPath id="clip147">
  <path d="M 15.9375 8 C 15.9375 12.382812 12.382812 15.9375 8 15.9375 C 3.617188 15.9375 0.0625 12.382812 0.0625 8 C 0.0625 3.617188 3.617188 0.0625 8 0.0625 C 12.382812 0.0625 15.9375 3.617188 15.9375 8 Z M 15.9375 8 "/>
</clipPath>
<clipPath id="clip148">
  <path d="M 0 5 L 3 5 L 3 7 L 0 7 Z M 0 5 "/>
</clipPath>
<clipPath id="clip149">
  <path d="M 15.9375 8 C 15.9375 12.382812 12.382812 15.9375 8 15.9375 C 3.617188 15.9375 0.0625 12.382812 0.0625 8 C 0.0625 3.617188 3.617188 0.0625 8 0.0625 C 12.382812 0.0625 15.9375 3.617188 15.9375 8 Z M 15.9375 8 "/>
</clipPath>
<clipPath id="clip150">
  <path d="M 1 5 L 3 5 L 3 7 L 1 7 Z M 1 5 "/>
</clipPath>
<clipPath id="clip151">
  <path d="M 15.9375 8 C 15.9375 12.382812 12.382812 15.9375 8 15.9375 C 3.617188 15.9375 0.0625 12.382812 0.0625 8 C 0.0625 3.617188 3.617188 0.0625 8 0.0625 C 12.382812 0.0625 15.9375 3.617188 15.9375 8 Z M 15.9375 8 "/>
</clipPath>
<clipPath id="clip152">
  <path d="M 1 5 L 3 5 L 3 6 L 1 6 Z M 1 5 "/>
</clipPath>
<clipPath id="clip153">
  <path d="M 15.9375 8 C 15.9375 12.382812 12.382812 15.9375 8 15.9375 C 3.617188 15.9375 0.0625 12.382812 0.0625 8 C 0.0625 3.617188 3.617188 0.0625 8 0.0625 C 12.382812 0.0625 15.9375 3.617188 15.9375 8 Z M 15.9375 8 "/>
</clipPath>
<clipPath id="clip154">
  <path d="M 2 5 L 3 5 L 3 7 L 2 7 Z M 2 5 "/>
</clipPath>
<clipPath id="clip155">
  <path d="M 15.9375 8 C 15.9375 12.382812 12.382812 15.9375 8 15.9375 C 3.617188 15.9375 0.0625 12.382812 0.0625 8 C 0.0625 3.617188 3.617188 0.0625 8 0.0625 C 12.382812 0.0625 15.9375 3.617188 15.9375 8 Z M 15.9375 8 "/>
</clipPath>
<clipPath id="clip156">
  <path d="M 1 5 L 5 5 L 5 7 L 1 7 Z M 1 5 "/>
</clipPath>
<clipPath id="clip157">
  <path d="M 15.9375 8 C 15.9375 12.382812 12.382812 15.9375 8 15.9375 C 3.617188 15.9375 0.0625 12.382812 0.0625 8 C 0.0625 3.617188 3.617188 0.0625 8 0.0625 C 12.382812 0.0625 15.9375 3.617188 15.9375 8 Z M 15.9375 8 "/>
</clipPath>
<clipPath id="clip158">
  <path d="M 3 5 L 5 5 L 5 7 L 3 7 Z M 3 5 "/>
</clipPath>
<clipPath id="clip159">
  <path d="M 15.9375 8 C 15.9375 12.382812 12.382812 15.9375 8 15.9375 C 3.617188 15.9375 0.0625 12.382812 0.0625 8 C 0.0625 3.617188 3.617188 0.0625 8 0.0625 C 12.382812 0.0625 15.9375 3.617188 15.9375 8 Z M 15.9375 8 "/>
</clipPath>
<clipPath id="clip160">
  <path d="M 3 5 L 5 5 L 5 6 L 3 6 Z M 3 5 "/>
</clipPath>
<clipPath id="clip161">
  <path d="M 15.9375 8 C 15.9375 12.382812 12.382812 15.9375 8 15.9375 C 3.617188 15.9375 0.0625 12.382812 0.0625 8 C 0.0625 3.617188 3.617188 0.0625 8 0.0625 C 12.382812 0.0625 15.9375 3.617188 15.9375 8 Z M 15.9375 8 "/>
</clipPath>
<clipPath id="clip162">
  <path d="M 4 5 L 5 5 L 5 7 L 4 7 Z M 4 5 "/>
</clipPath>
<clipPath id="clip163">
  <path d="M 15.9375 8 C 15.9375 12.382812 12.382812 15.9375 8 15.9375 C 3.617188 15.9375 0.0625 12.382812 0.0625 8 C 0.0625 3.617188 3.617188 0.0625 8 0.0625 C 12.382812 0.0625 15.9375 3.617188 15.9375 8 Z M 15.9375 8 "/>
</clipPath>
<clipPath id="clip164">
  <path d="M 4 5 L 7 5 L 7 7 L 4 7 Z M 4 5 "/>
</clipPath>
<clipPath id="clip165">
  <path d="M 15.9375 8 C 15.9375 12.382812 12.382812 15.9375 8 15.9375 C 3.617188 15.9375 0.0625 12.382812 0.0625 8 C 0.0625 3.617188 3.617188 0.0625 8 0.0625 C 12.382812 0.0625 15.9375 3.617188 15.9375 8 Z M 15.9375 8 "/>
</clipPath>
<clipPath id="clip166">
  <path d="M 5 5 L 7 5 L 7 7 L 5 7 Z M 5 5 "/>
</clipPath>
<clipPath id="clip167">
  <path d="M 15.9375 8 C 15.9375 12.382812 12.382812 15.9375 8 15.9375 C 3.617188 15.9375 0.0625 12.382812 0.0625 8 C 0.0625 3.617188 3.617188 0.0625 8 0.0625 C 12.382812 0.0625 15.9375 3.617188 15.9375 8 Z M 15.9375 8 "/>
</clipPath>
<clipPath id="clip168">
  <path d="M 6 5 L 7 5 L 7 6 L 6 6 Z M 6 5 "/>
</clipPath>
<clipPath id="clip169">
  <path d="M 15.9375 8 C 15.9375 12.382812 12.382812 15.9375 8 15.9375 C 3.617188 15.9375 0.0625 12.382812 0.0625 8 C 0.0625 3.617188 3.617188 0.0625 8 0.0625 C 12.382812 0.0625 15.9375 3.617188 15.9375 8 Z M 15.9375 8 "/>
</clipPath>
<clipPath id="clip170">
  <path d="M 6 5 L 7 5 L 7 7 L 6 7 Z M 6 5 "/>
</clipPath>
<clipPath id="clip171">
  <path d="M 15.9375 8 C 15.9375 12.382812 12.382812 15.9375 8 15.9375 C 3.617188 15.9375 0.0625 12.382812 0.0625 8 C 0.0625 3.617188 3.617188 0.0625 8 0.0625 C 12.382812 0.0625 15.9375 3.617188 15.9375 8 Z M 15.9375 8 "/>
</clipPath>
<clipPath id="clip172">
  <path d="M 0 6 L 2 6 L 2 8 L 0 8 Z M 0 6 "/>
</clipPath>
<clipPath id="clip173">
  <path d="M 15.9375 8 C 15.9375 12.382812 12.382812 15.9375 8 15.9375 C 3.617188 15.9375 0.0625 12.382812 0.0625 8 C 0.0625 3.617188 3.617188 0.0625 8 0.0625 C 12.382812 0.0625 15.9375 3.617188 15.9375 8 Z M 15.9375 8 "/>
</clipPath>
<clipPath id="clip174">
  <path d="M 0 6 L 2 6 L 2 7 L 0 7 Z M 0 6 "/>
</clipPath>
<clipPath id="clip175">
  <path d="M 15.9375 8 C 15.9375 12.382812 12.382812 15.9375 8 15.9375 C 3.617188 15.9375 0.0625 12.382812 0.0625 8 C 0.0625 3.617188 3.617188 0.0625 8 0.0625 C 12.382812 0.0625 15.9375 3.617188 15.9375 8 Z M 15.9375 8 "/>
</clipPath>
<clipPath id="clip176">
  <path d="M 1 6 L 2 6 L 2 7 L 1 7 Z M 1 6 "/>
</clipPath>
<clipPath id="clip177">
  <path d="M 15.9375 8 C 15.9375 12.382812 12.382812 15.9375 8 15.9375 C 3.617188 15.9375 0.0625 12.382812 0.0625 8 C 0.0625 3.617188 3.617188 0.0625 8 0.0625 C 12.382812 0.0625 15.9375 3.617188 15.9375 8 Z M 15.9375 8 "/>
</clipPath>
<clipPath id="clip178">
  <path d="M 0 6 L 4 6 L 4 8 L 0 8 Z M 0 6 "/>
</clipPath>
<clipPath id="clip179">
  <path d="M 15.9375 8 C 15.9375 12.382812 12.382812 15.9375 8 15.9375 C 3.617188 15.9375 0.0625 12.382812 0.0625 8 C 0.0625 3.617188 3.617188 0.0625 8 0.0625 C 12.382812 0.0625 15.9375 3.617188 15.9375 8 Z M 15.9375 8 "/>
</clipPath>
<clipPath id="clip180">
  <path d="M 2 6 L 4 6 L 4 7 L 2 7 Z M 2 6 "/>
</clipPath>
<clipPath id="clip181">
  <path d="M 15.9375 8 C 15.9375 12.382812 12.382812 15.9375 8 15.9375 C 3.617188 15.9375 0.0625 12.382812 0.0625 8 C 0.0625 3.617188 3.617188 0.0625 8 0.0625 C 12.382812 0.0625 15.9375 3.617188 15.9375 8 Z M 15.9375 8 "/>
</clipPath>
<clipPath id="clip182">
  <path d="M 3 6 L 4 6 L 4 7 L 3 7 Z M 3 6 "/>
</clipPath>
<clipPath id="clip183">
  <path d="M 15.9375 8 C 15.9375 12.382812 12.382812 15.9375 8 15.9375 C 3.617188 15.9375 0.0625 12.382812 0.0625 8 C 0.0625 3.617188 3.617188 0.0625 8 0.0625 C 12.382812 0.0625 15.9375 3.617188 15.9375 8 Z M 15.9375 8 "/>
</clipPath>
<clipPath id="clip184">
  <path d="M 2 6 L 6 6 L 6 8 L 2 8 Z M 2 6 "/>
</clipPath>
<clipPath id="clip185">
  <path d="M 15.9375 8 C 15.9375 12.382812 12.382812 15.9375 8 15.9375 C 3.617188 15.9375 0.0625 12.382812 0.0625 8 C 0.0625 3.617188 3.617188 0.0625 8 0.0625 C 12.382812 0.0625 15.9375 3.617188 15.9375 8 Z M 15.9375 8 "/>
</clipPath>
<clipPath id="clip186">
  <path d="M 4 6 L 6 6 L 6 7 L 4 7 Z M 4 6 "/>
</clipPath>
<clipPath id="clip187">
  <path d="M 15.9375 8 C 15.9375 12.382812 12.382812 15.9375 8 15.9375 C 3.617188 15.9375 0.0625 12.382812 0.0625 8 C 0.0625 3.617188 3.617188 0.0625 8 0.0625 C 12.382812 0.0625 15.9375 3.617188 15.9375 8 Z M 15.9375 8 "/>
</clipPath>
<clipPath id="clip188">
  <path d="M 5 6 L 6 6 L 6 7 L 5 7 Z M 5 6 "/>
</clipPath>
<clipPath id="clip189">
  <path d="M 15.9375 8 C 15.9375 12.382812 12.382812 15.9375 8 15.9375 C 3.617188 15.9375 0.0625 12.382812 0.0625 8 C 0.0625 3.617188 3.617188 0.0625 8 0.0625 C 12.382812 0.0625 15.9375 3.617188 15.9375 8 Z M 15.9375 8 "/>
</clipPath>
<clipPath id="clip190">
  <path d="M 0 6 L 6 6 L 6 9 L 0 9 Z M 0 6 "/>
</clipPath>
<clipPath id="clip191">
  <path d="M 15.9375 8 C 15.9375 12.382812 12.382812 15.9375 8 15.9375 C 3.617188 15.9375 0.0625 12.382812 0.0625 8 C 0.0625 3.617188 3.617188 0.0625 8 0.0625 C 12.382812 0.0625 15.9375 3.617188 15.9375 8 Z M 15.9375 8 "/>
</clipPath>
<clipPath id="clip192">
  <path d="M 0 7 L 1 7 L 1 9 L 0 9 Z M 0 7 "/>
</clipPath>
<clipPath id="clip193">
  <path d="M 15.9375 8 C 15.9375 12.382812 12.382812 15.9375 8 15.9375 C 3.617188 15.9375 0.0625 12.382812 0.0625 8 C 0.0625 3.617188 3.617188 0.0625 8 0.0625 C 12.382812 0.0625 15.9375 3.617188 15.9375 8 Z M 15.9375 8 "/>
</clipPath>
<clipPath id="clip194">
  <path d="M 0 7 L 1 7 L 1 8 L 0 8 Z M 0 7 "/>
</clipPath>
<clipPath id="clip195">
  <path d="M 15.9375 8 C 15.9375 12.382812 12.382812 15.9375 8 15.9375 C 3.617188 15.9375 0.0625 12.382812 0.0625 8 C 0.0625 3.617188 3.617188 0.0625 8 0.0625 C 12.382812 0.0625 15.9375 3.617188 15.9375 8 Z M 15.9375 8 "/>
</clipPath>
<clipPath id="clip196">
  <path d="M 0 7 L 3 7 L 3 9 L 0 9 Z M 0 7 "/>
</clipPath>
<clipPath id="clip197">
  <path d="M 15.9375 8 C 15.9375 12.382812 12.382812 15.9375 8 15.9375 C 3.617188 15.9375 0.0625 12.382812 0.0625 8 C 0.0625 3.617188 3.617188 0.0625 8 0.0625 C 12.382812 0.0625 15.9375 3.617188 15.9375 8 Z M 15.9375 8 "/>
</clipPath>
<clipPath id="clip198">
  <path d="M 1 7 L 3 7 L 3 8 L 1 8 Z M 1 7 "/>
</clipPath>
<clipPath id="clip199">
  <path d="M 15.9375 8 C 15.9375 12.382812 12.382812 15.9375 8 15.9375 C 3.617188 15.9375 0.0625 12.382812 0.0625 8 C 0.0625 3.617188 3.617188 0.0625 8 0.0625 C 12.382812 0.0625 15.9375 3.617188 15.9375 8 Z M 15.9375 8 "/>
</clipPath>
<clipPath id="clip200">
  <path d="M 2 7 L 3 7 L 3 8 L 2 8 Z M 2 7 "/>
</clipPath>
<clipPath id="clip201">
  <path d="M 15.9375 8 C 15.9375 12.382812 12.382812 15.9375 8 15.9375 C 3.617188 15.9375 0.0625 12.382812 0.0625 8 C 0.0625 3.617188 3.617188 0.0625 8 0.0625 C 12.382812 0.0625 15.9375 3.617188 15.9375 8 Z M 15.9375 8 "/>
</clipPath>
<clipPath id="clip202">
  <path d="M 1 7 L 5 7 L 5 9 L 1 9 Z M 1 7 "/>
</clipPath>
<clipPath id="clip203">
  <path d="M 15.9375 8 C 15.9375 12.382812 12.382812 15.9375 8 15.9375 C 3.617188 15.9375 0.0625 12.382812 0.0625 8 C 0.0625 3.617188 3.617188 0.0625 8 0.0625 C 12.382812 0.0625 15.9375 3.617188 15.9375 8 Z M 15.9375 8 "/>
</clipPath>
<clipPath id="clip204">
  <path d="M 3 7 L 5 7 L 5 8 L 3 8 Z M 3 7 "/>
</clipPath>
<clipPath id="clip205">
  <path d="M 15.9375 8 C 15.9375 12.382812 12.382812 15.9375 8 15.9375 C 3.617188 15.9375 0.0625 12.382812 0.0625 8 C 0.0625 3.617188 3.617188 0.0625 8 0.0625 C 12.382812 0.0625 15.9375 3.617188 15.9375 8 Z M 15.9375 8 "/>
</clipPath>
<clipPath id="clip206">
  <path d="M 4 7 L 5 7 L 5 8 L 4 8 Z M 4 7 "/>
</clipPath>
<clipPath id="clip207">
  <path d="M 15.9375 8 C 15.9375 12.382812 12.382812 15.9375 8 15.9375 C 3.617188 15.9375 0.0625 12.382812 0.0625 8 C 0.0625 3.617188 3.617188 0.0625 8 0.0625 C 12.382812 0.0625 15.9375 3.617188 15.9375 8 Z M 15.9375 8 "/>
</clipPath>
<clipPath id="clip208">
  <path d="M 4 7 L 7 7 L 7 9 L 4 9 Z M 4 7 "/>
</clipPath>
<clipPath id="clip209">
  <path d="M 15.9375 8 C 15.9375 12.382812 12.382812 15.9375 8 15.9375 C 3.617188 15.9375 0.0625 12.382812 0.0625 8 C 0.0625 3.617188 3.617188 0.0625 8 0.0625 C 12.382812 0.0625 15.9375 3.617188 15.9375 8 Z M 15.9375 8 "/>
</clipPath>
<clipPath id="clip210">
  <path d="M 5 7 L 7 7 L 7 8 L 5 8 Z M 5 7 "/>
</clipPath>
<clipPath id="clip211">
  <path d="M 15.9375 8 C 15.9375 12.382812 12.382812 15.9375 8 15.9375 C 3.617188 15.9375 0.0625 12.382812 0.0625 8 C 0.0625 3.617188 3.617188 0.0625 8 0.0625 C 12.382812 0.0625 15.9375 3.617188 15.9375 8 Z M 15.9375 8 "/>
</clipPath>
<clipPath id="clip212">
  <path d="M 6 7 L 7 7 L 7 8 L 6 8 Z M 6 7 "/>
</clipPath>
<clipPath id="clip213">
  <path d="M 15.9375 8 C 15.9375 12.382812 12.382812 15.9375 8 15.9375 C 3.617188 15.9375 0.0625 12.382812 0.0625 8 C 0.0625 3.617188 3.617188 0.0625 8 0.0625 C 12.382812 0.0625 15.9375 3.617188 15.9375 8 Z M 15.9375 8 "/>
</clipPath>
<clipPath id="clip214">
  <path d="M 6 7 L 7 7 L 7 9 L 6 9 Z M 6 7 "/>
</clipPath>
<clipPath id="clip215">
  <path d="M 15.9375 8 C 15.9375 12.382812 12.382812 15.9375 8 15.9375 C 3.617188 15.9375 0.0625 12.382812 0.0625 8 C 0.0625 3.617188 3.617188 0.0625 8 0.0625 C 12.382812 0.0625 15.9375 3.617188 15.9375 8 Z M 15.9375 8 "/>
</clipPath>
</defs>
<g id="surface1">
<g clip-path="url(#clip1)" clip-rule="nonzero">
<path style=" stroke:none;fill-rule:nonzero;fill:rgb(100%,100%,100%);fill-opacity:1;" d="M 25.59375 14.875 C 25.59375 15.53125 25.054688 16.070312 24.398438 16.070312 L -3.765625 16.070312 C -4.421875 16.070312 -4.960938 15.53125 -4.960938 14.875 L -4.960938 1.140625 C -4.960938 0.484375 -4.421875 -0.0546875 -3.765625 -0.0546875 L 24.398438 -0.0546875 C 25.054688 -0.0546875 25.59375 0.484375 25.59375 1.140625 Z M 25.59375 14.875 "/>
<path style=" stroke:none;fill-rule:nonzero;fill:rgb(78.039216%,27.45098%,23.921569%);fill-opacity:1;" d="M -5.039062 -0.0546875 L 25.59375 -0.0546875 L 25.59375 1.1875 L -5.039062 1.1875 Z M -5.039062 2.425781 L 25.59375 2.425781 L 25.59375 3.667969 L -5.039062 3.667969 Z M -5.039062 4.90625 L 25.59375 4.90625 L 25.59375 6.148438 L -5.039062 6.148438 Z M -5.039062 7.386719 L 25.59375 7.386719 L 25.59375 8.628906 L -5.039062 8.628906 Z M -5.039062 9.867188 L 25.59375 9.867188 L 25.59375 11.109375 L -5.039062 11.109375 Z M -5.039062 12.347656 L 25.59375 12.347656 L 25.59375 13.589844 L -5.039062 13.589844 Z M -5.039062 14.828125 L 25.59375 14.828125 L 25.59375 16.070312 L -5.039062 16.070312 Z M -5.039062 14.828125 "/>
</g>
<g clip-path="url(#clip2)" clip-rule="nonzero">
<g clip-path="url(#clip3)" clip-rule="nonzero">
<path style=" stroke:none;fill-rule:nonzero;fill:rgb(20.784314%,25.882353%,38.039216%);fill-opacity:1;" d="M -5.039062 -0.0546875 L 7.214844 -0.0546875 L 7.214844 8.628906 L -5.039062 8.628906 Z M -5.039062 -0.0546875 "/>
</g>
</g>
<g clip-path="url(#clip4)" clip-rule="nonzero">
<g clip-path="url(#clip5)" clip-rule="nonzero">
<path style=" stroke:none;fill-rule:nonzero;fill:rgb(100%,100%,100%);fill-opacity:1;" d="M -1.828125 0.710938 L -1.667969 1.207031 L -2.089844 0.898438 Z M 0.203125 0.898438 L -0.21875 1.207031 L -0.0585938 0.710938 Z M 0.203125 0.898438 "/>
</g>
</g>
<g clip-path="url(#clip6)" clip-rule="nonzero">
<g clip-path="url(#clip7)" clip-rule="nonzero">
<path style=" stroke:none;fill-rule:nonzero;fill:rgb(100%,100%,100%);fill-opacity:1;" d="M 0.0234375 0.957031 L -0.402344 0.652344 L 0.121094 0.652344 Z M 0.0234375 0.957031 "/>
<path style=" stroke:none;fill-rule:nonzero;fill:rgb(100%,100%,100%);fill-opacity:1;" d="M -0.0898438 0.804688 L 0.0703125 0.308594 L 0.234375 0.804688 Z M -0.0898438 0.804688 "/>
<path style=" stroke:none;fill-rule:nonzero;fill:rgb(100%,100%,100%);fill-opacity:1;" d="M 0.0234375 0.652344 L 0.542969 0.652344 L 0.121094 0.957031 Z M 0.0234375 0.652344 "/>
</g>
</g>
<g clip-path="url(#clip8)" clip-rule="nonzero">
<g clip-path="url(#clip9)" clip-rule="nonzero">
<path style=" stroke:none;fill-rule:nonzero;fill:rgb(100%,100%,100%);fill-opacity:1;" d="M 0.203125 0.710938 L 0.363281 1.207031 L -0.0585938 0.898438 Z M 2.234375 0.898438 L 1.8125 1.207031 L 1.972656 0.710938 Z M 2.234375 0.898438 "/>
</g>
</g>
<g clip-path="url(#clip10)" clip-rule="nonzero">
<g clip-path="url(#clip11)" clip-rule="nonzero">
<path style=" stroke:none;fill-rule:nonzero;fill:rgb(100%,100%,100%);fill-opacity:1;" d="M 2.054688 0.957031 L 1.628906 0.652344 L 2.152344 0.652344 Z M 2.054688 0.957031 "/>
<path style=" stroke:none;fill-rule:nonzero;fill:rgb(100%,100%,100%);fill-opacity:1;" d="M 1.941406 0.804688 L 2.101562 0.308594 L 2.265625 0.804688 Z M 1.941406 0.804688 "/>
</g>
</g>
<g clip-path="url(#clip12)" clip-rule="nonzero">
<g clip-path="url(#clip13)" clip-rule="nonzero">
<path style=" stroke:none;fill-rule:nonzero;fill:rgb(100%,100%,100%);fill-opacity:1;" d="M 2.054688 0.652344 L 2.574219 0.652344 L 2.152344 0.957031 Z M 2.054688 0.652344 "/>
</g>
</g>
<g clip-path="url(#clip14)" clip-rule="nonzero">
<g clip-path="url(#clip15)" clip-rule="nonzero">
<path style=" stroke:none;fill-rule:nonzero;fill:rgb(100%,100%,100%);fill-opacity:1;" d="M 2.234375 0.710938 L 2.394531 1.207031 L 1.972656 0.898438 Z M 4.265625 0.898438 L 3.84375 1.207031 L 4.003906 0.710938 Z M 4.265625 0.898438 "/>
</g>
</g>
<g clip-path="url(#clip16)" clip-rule="nonzero">
<g clip-path="url(#clip17)" clip-rule="nonzero">
<path style=" stroke:none;fill-rule:nonzero;fill:rgb(100%,100%,100%);fill-opacity:1;" d="M 4.085938 0.957031 L 3.660156 0.652344 L 4.183594 0.652344 Z M 4.085938 0.957031 "/>
<path style=" stroke:none;fill-rule:nonzero;fill:rgb(100%,100%,100%);fill-opacity:1;" d="M 3.972656 0.804688 L 4.132812 0.308594 L 4.296875 0.804688 Z M 3.972656 0.804688 "/>
</g>
</g>
<g clip-path="url(#clip18)" clip-rule="nonzero">
<g clip-path="url(#clip19)" clip-rule="nonzero">
<path style=" stroke:none;fill-rule:nonzero;fill:rgb(100%,100%,100%);fill-opacity:1;" d="M 4.085938 0.652344 L 4.605469 0.652344 L 4.183594 0.957031 Z M 4.085938 0.652344 "/>
</g>
</g>
<g clip-path="url(#clip20)" clip-rule="nonzero">
<g clip-path="url(#clip21)" clip-rule="nonzero">
<path style=" stroke:none;fill-rule:nonzero;fill:rgb(100%,100%,100%);fill-opacity:1;" d="M 4.265625 0.710938 L 4.425781 1.207031 L 4.003906 0.898438 Z M 6.296875 0.898438 L 5.875 1.207031 L 6.035156 0.710938 Z M 6.296875 0.898438 "/>
</g>
</g>
<g clip-path="url(#clip22)" clip-rule="nonzero">
<g clip-path="url(#clip23)" clip-rule="nonzero">
<path style=" stroke:none;fill-rule:nonzero;fill:rgb(100%,100%,100%);fill-opacity:1;" d="M 6.117188 0.957031 L 5.695312 0.652344 L 6.214844 0.652344 Z M 6.117188 0.957031 "/>
</g>
</g>
<g clip-path="url(#clip24)" clip-rule="nonzero">
<g clip-path="url(#clip25)" clip-rule="nonzero">
<path style=" stroke:none;fill-rule:nonzero;fill:rgb(100%,100%,100%);fill-opacity:1;" d="M 6.003906 0.804688 L 6.164062 0.308594 L 6.328125 0.804688 Z M 6.003906 0.804688 "/>
<path style=" stroke:none;fill-rule:nonzero;fill:rgb(100%,100%,100%);fill-opacity:1;" d="M 6.117188 0.652344 L 6.636719 0.652344 L 6.214844 0.957031 Z M 6.117188 0.652344 "/>
</g>
</g>
<g clip-path="url(#clip26)" clip-rule="nonzero">
<g clip-path="url(#clip27)" clip-rule="nonzero">
<path style=" stroke:none;fill-rule:nonzero;fill:rgb(100%,100%,100%);fill-opacity:1;" d="M 6.296875 0.710938 L 6.457031 1.207031 L 6.035156 0.898438 Z M -2.84375 1.769531 L -3.265625 2.078125 L -3.105469 1.582031 Z M -2.84375 1.769531 "/>
</g>
</g>
<g clip-path="url(#clip28)" clip-rule="nonzero">
<g clip-path="url(#clip29)" clip-rule="nonzero">
<path style=" stroke:none;fill-rule:nonzero;fill:rgb(100%,100%,100%);fill-opacity:1;" d="M -0.8125 1.582031 L -0.652344 2.078125 L -1.074219 1.769531 Z M 1.21875 1.769531 L 0.796875 2.078125 L 0.957031 1.582031 Z M 1.21875 1.769531 "/>
</g>
</g>
<g clip-path="url(#clip30)" clip-rule="nonzero">
<g clip-path="url(#clip31)" clip-rule="nonzero">
<path style=" stroke:none;fill-rule:nonzero;fill:rgb(100%,100%,100%);fill-opacity:1;" d="M 1.039062 1.828125 L 0.613281 1.523438 L 1.136719 1.523438 Z M 1.039062 1.828125 "/>
<path style=" stroke:none;fill-rule:nonzero;fill:rgb(100%,100%,100%);fill-opacity:1;" d="M 0.925781 1.675781 L 1.085938 1.179688 L 1.25 1.675781 Z M 0.925781 1.675781 "/>
</g>
</g>
<g clip-path="url(#clip32)" clip-rule="nonzero">
<g clip-path="url(#clip33)" clip-rule="nonzero">
<path style=" stroke:none;fill-rule:nonzero;fill:rgb(100%,100%,100%);fill-opacity:1;" d="M 1.039062 1.523438 L 1.558594 1.523438 L 1.136719 1.828125 Z M 1.039062 1.523438 "/>
</g>
</g>
<g clip-path="url(#clip34)" clip-rule="nonzero">
<g clip-path="url(#clip35)" clip-rule="nonzero">
<path style=" stroke:none;fill-rule:nonzero;fill:rgb(100%,100%,100%);fill-opacity:1;" d="M 1.21875 1.582031 L 1.378906 2.078125 L 0.957031 1.769531 Z M 3.25 1.769531 L 2.828125 2.078125 L 2.988281 1.582031 Z M 3.25 1.769531 "/>
</g>
</g>
<g clip-path="url(#clip36)" clip-rule="nonzero">
<g clip-path="url(#clip37)" clip-rule="nonzero">
<path style=" stroke:none;fill-rule:nonzero;fill:rgb(100%,100%,100%);fill-opacity:1;" d="M 3.070312 1.828125 L 2.644531 1.523438 L 3.167969 1.523438 Z M 3.070312 1.828125 "/>
<path style=" stroke:none;fill-rule:nonzero;fill:rgb(100%,100%,100%);fill-opacity:1;" d="M 2.957031 1.675781 L 3.117188 1.179688 L 3.28125 1.675781 Z M 2.957031 1.675781 "/>
</g>
</g>
<g clip-path="url(#clip38)" clip-rule="nonzero">
<g clip-path="url(#clip39)" clip-rule="nonzero">
<path style=" stroke:none;fill-rule:nonzero;fill:rgb(100%,100%,100%);fill-opacity:1;" d="M 3.070312 1.523438 L 3.589844 1.523438 L 3.167969 1.828125 Z M 3.070312 1.523438 "/>
</g>
</g>
<g clip-path="url(#clip40)" clip-rule="nonzero">
<g clip-path="url(#clip41)" clip-rule="nonzero">
<path style=" stroke:none;fill-rule:nonzero;fill:rgb(100%,100%,100%);fill-opacity:1;" d="M 3.25 1.582031 L 3.410156 2.078125 L 2.988281 1.769531 Z M 5.28125 1.769531 L 4.859375 2.078125 L 5.019531 1.582031 Z M 5.28125 1.769531 "/>
</g>
</g>
<g clip-path="url(#clip42)" clip-rule="nonzero">
<g clip-path="url(#clip43)" clip-rule="nonzero">
<path style=" stroke:none;fill-rule:nonzero;fill:rgb(100%,100%,100%);fill-opacity:1;" d="M 5.101562 1.828125 L 4.679688 1.523438 L 5.199219 1.523438 Z M 5.101562 1.828125 "/>
<path style=" stroke:none;fill-rule:nonzero;fill:rgb(100%,100%,100%);fill-opacity:1;" d="M 4.988281 1.675781 L 5.148438 1.179688 L 5.3125 1.675781 Z M 4.988281 1.675781 "/>
</g>
</g>
<g clip-path="url(#clip44)" clip-rule="nonzero">
<g clip-path="url(#clip45)" clip-rule="nonzero">
<path style=" stroke:none;fill-rule:nonzero;fill:rgb(100%,100%,100%);fill-opacity:1;" d="M 5.101562 1.523438 L 5.621094 1.523438 L 5.199219 1.828125 Z M 5.101562 1.523438 "/>
</g>
</g>
<g clip-path="url(#clip46)" clip-rule="nonzero">
<g clip-path="url(#clip47)" clip-rule="nonzero">
<path style=" stroke:none;fill-rule:nonzero;fill:rgb(100%,100%,100%);fill-opacity:1;" d="M 5.28125 1.582031 L 5.441406 2.078125 L 5.019531 1.769531 Z M -3.859375 2.640625 L -4.285156 2.949219 L -4.121094 2.449219 Z M -3.859375 2.640625 "/>
</g>
</g>
<g clip-path="url(#clip48)" clip-rule="nonzero">
<g clip-path="url(#clip49)" clip-rule="nonzero">
<path style=" stroke:none;fill-rule:nonzero;fill:rgb(100%,100%,100%);fill-opacity:1;" d="M -1.828125 2.449219 L -1.667969 2.949219 L -2.089844 2.640625 Z M 0.203125 2.640625 L -0.21875 2.949219 L -0.0585938 2.449219 Z M 0.203125 2.640625 "/>
<path style=" stroke:none;fill-rule:nonzero;fill:rgb(100%,100%,100%);fill-opacity:1;" d="M 0.0234375 2.699219 L -0.402344 2.390625 L 0.121094 2.390625 Z M 0.0234375 2.699219 "/>
<path style=" stroke:none;fill-rule:nonzero;fill:rgb(100%,100%,100%);fill-opacity:1;" d="M -0.0898438 2.546875 L 0.0703125 2.050781 L 0.234375 2.546875 Z M -0.0898438 2.546875 "/>
<path style=" stroke:none;fill-rule:nonzero;fill:rgb(100%,100%,100%);fill-opacity:1;" d="M 0.0234375 2.390625 L 0.542969 2.390625 L 0.121094 2.699219 Z M 0.0234375 2.390625 "/>
</g>
</g>
<g clip-path="url(#clip50)" clip-rule="nonzero">
<g clip-path="url(#clip51)" clip-rule="nonzero">
<path style=" stroke:none;fill-rule:nonzero;fill:rgb(100%,100%,100%);fill-opacity:1;" d="M 0.203125 2.449219 L 0.363281 2.949219 L -0.0585938 2.640625 Z M 2.234375 2.640625 L 1.8125 2.949219 L 1.972656 2.449219 Z M 2.234375 2.640625 "/>
</g>
</g>
<g clip-path="url(#clip52)" clip-rule="nonzero">
<g clip-path="url(#clip53)" clip-rule="nonzero">
<path style=" stroke:none;fill-rule:nonzero;fill:rgb(100%,100%,100%);fill-opacity:1;" d="M 2.054688 2.699219 L 1.628906 2.390625 L 2.152344 2.390625 Z M 2.054688 2.699219 "/>
<path style=" stroke:none;fill-rule:nonzero;fill:rgb(100%,100%,100%);fill-opacity:1;" d="M 1.941406 2.546875 L 2.101562 2.050781 L 2.265625 2.546875 Z M 1.941406 2.546875 "/>
</g>
</g>
<g clip-path="url(#clip54)" clip-rule="nonzero">
<g clip-path="url(#clip55)" clip-rule="nonzero">
<path style=" stroke:none;fill-rule:nonzero;fill:rgb(100%,100%,100%);fill-opacity:1;" d="M 2.054688 2.390625 L 2.574219 2.390625 L 2.152344 2.699219 Z M 2.054688 2.390625 "/>
</g>
</g>
<g clip-path="url(#clip56)" clip-rule="nonzero">
<g clip-path="url(#clip57)" clip-rule="nonzero">
<path style=" stroke:none;fill-rule:nonzero;fill:rgb(100%,100%,100%);fill-opacity:1;" d="M 2.234375 2.449219 L 2.394531 2.949219 L 1.972656 2.640625 Z M 4.265625 2.640625 L 3.84375 2.949219 L 4.003906 2.449219 Z M 4.265625 2.640625 "/>
</g>
</g>
<g clip-path="url(#clip58)" clip-rule="nonzero">
<g clip-path="url(#clip59)" clip-rule="nonzero">
<path style=" stroke:none;fill-rule:nonzero;fill:rgb(100%,100%,100%);fill-opacity:1;" d="M 4.085938 2.699219 L 3.660156 2.390625 L 4.183594 2.390625 Z M 4.085938 2.699219 "/>
<path style=" stroke:none;fill-rule:nonzero;fill:rgb(100%,100%,100%);fill-opacity:1;" d="M 3.972656 2.546875 L 4.132812 2.050781 L 4.296875 2.546875 Z M 3.972656 2.546875 "/>
</g>
</g>
<g clip-path="url(#clip60)" clip-rule="nonzero">
<g clip-path="url(#clip61)" clip-rule="nonzero">
<path style=" stroke:none;fill-rule:nonzero;fill:rgb(100%,100%,100%);fill-opacity:1;" d="M 4.085938 2.390625 L 4.605469 2.390625 L 4.183594 2.699219 Z M 4.085938 2.390625 "/>
</g>
</g>
<g clip-path="url(#clip62)" clip-rule="nonzero">
<g clip-path="url(#clip63)" clip-rule="nonzero">
<path style=" stroke:none;fill-rule:nonzero;fill:rgb(100%,100%,100%);fill-opacity:1;" d="M 4.265625 2.449219 L 4.425781 2.949219 L 4.003906 2.640625 Z M 6.296875 2.640625 L 5.875 2.949219 L 6.035156 2.449219 Z M 6.296875 2.640625 "/>
</g>
</g>
<g clip-path="url(#clip64)" clip-rule="nonzero">
<g clip-path="url(#clip65)" clip-rule="nonzero">
<path style=" stroke:none;fill-rule:nonzero;fill:rgb(100%,100%,100%);fill-opacity:1;" d="M 6.117188 2.699219 L 5.695312 2.390625 L 6.214844 2.390625 Z M 6.117188 2.699219 "/>
</g>
</g>
<g clip-path="url(#clip66)" clip-rule="nonzero">
<g clip-path="url(#clip67)" clip-rule="nonzero">
<path style=" stroke:none;fill-rule:nonzero;fill:rgb(100%,100%,100%);fill-opacity:1;" d="M 6.003906 2.546875 L 6.164062 2.050781 L 6.328125 2.546875 Z M 6.003906 2.546875 "/>
<path style=" stroke:none;fill-rule:nonzero;fill:rgb(100%,100%,100%);fill-opacity:1;" d="M 6.117188 2.390625 L 6.636719 2.390625 L 6.214844 2.699219 Z M 6.117188 2.390625 "/>
<path style=" stroke:none;fill-rule:nonzero;fill:rgb(100%,100%,100%);fill-opacity:1;" d="M 6.296875 2.449219 L 6.457031 2.949219 L 6.035156 2.640625 Z M 6.296875 2.449219 "/>
</g>
</g>
<g clip-path="url(#clip68)" clip-rule="nonzero">
<g clip-path="url(#clip69)" clip-rule="nonzero">
<path style=" stroke:none;fill-rule:nonzero;fill:rgb(100%,100%,100%);fill-opacity:1;" d="M -0.8125 3.292969 L -0.652344 3.789062 L -1.074219 3.480469 Z M 1.21875 3.480469 L 0.796875 3.789062 L 0.957031 3.292969 Z M 1.21875 3.480469 "/>
<path style=" stroke:none;fill-rule:nonzero;fill:rgb(100%,100%,100%);fill-opacity:1;" d="M 1.039062 3.539062 L 0.613281 3.234375 L 1.136719 3.234375 Z M 1.039062 3.539062 "/>
</g>
</g>
<g clip-path="url(#clip70)" clip-rule="nonzero">
<g clip-path="url(#clip71)" clip-rule="nonzero">
<path style=" stroke:none;fill-rule:nonzero;fill:rgb(100%,100%,100%);fill-opacity:1;" d="M 0.925781 3.386719 L 1.085938 2.890625 L 1.25 3.386719 Z M 0.925781 3.386719 "/>
</g>
</g>
<g clip-path="url(#clip72)" clip-rule="nonzero">
<g clip-path="url(#clip73)" clip-rule="nonzero">
<path style=" stroke:none;fill-rule:nonzero;fill:rgb(100%,100%,100%);fill-opacity:1;" d="M 1.039062 3.234375 L 1.558594 3.234375 L 1.136719 3.539062 Z M 1.039062 3.234375 "/>
</g>
</g>
<g clip-path="url(#clip74)" clip-rule="nonzero">
<g clip-path="url(#clip75)" clip-rule="nonzero">
<path style=" stroke:none;fill-rule:nonzero;fill:rgb(100%,100%,100%);fill-opacity:1;" d="M 1.21875 3.292969 L 1.378906 3.789062 L 0.957031 3.480469 Z M 3.25 3.480469 L 2.828125 3.789062 L 2.988281 3.292969 Z M 3.25 3.480469 "/>
</g>
</g>
<g clip-path="url(#clip76)" clip-rule="nonzero">
<g clip-path="url(#clip77)" clip-rule="nonzero">
<path style=" stroke:none;fill-rule:nonzero;fill:rgb(100%,100%,100%);fill-opacity:1;" d="M 3.070312 3.539062 L 2.644531 3.234375 L 3.167969 3.234375 Z M 3.070312 3.539062 "/>
</g>
</g>
<g clip-path="url(#clip78)" clip-rule="nonzero">
<g clip-path="url(#clip79)" clip-rule="nonzero">
<path style=" stroke:none;fill-rule:nonzero;fill:rgb(100%,100%,100%);fill-opacity:1;" d="M 2.957031 3.386719 L 3.117188 2.890625 L 3.28125 3.386719 Z M 2.957031 3.386719 "/>
</g>
</g>
<g clip-path="url(#clip80)" clip-rule="nonzero">
<g clip-path="url(#clip81)" clip-rule="nonzero">
<path style=" stroke:none;fill-rule:nonzero;fill:rgb(100%,100%,100%);fill-opacity:1;" d="M 3.070312 3.234375 L 3.589844 3.234375 L 3.167969 3.539062 Z M 3.070312 3.234375 "/>
</g>
</g>
<g clip-path="url(#clip82)" clip-rule="nonzero">
<g clip-path="url(#clip83)" clip-rule="nonzero">
<path style=" stroke:none;fill-rule:nonzero;fill:rgb(100%,100%,100%);fill-opacity:1;" d="M 3.25 3.292969 L 3.410156 3.789062 L 2.988281 3.480469 Z M 5.28125 3.480469 L 4.859375 3.789062 L 5.019531 3.292969 Z M 5.28125 3.480469 "/>
</g>
</g>
<g clip-path="url(#clip84)" clip-rule="nonzero">
<g clip-path="url(#clip85)" clip-rule="nonzero">
<path style=" stroke:none;fill-rule:nonzero;fill:rgb(100%,100%,100%);fill-opacity:1;" d="M 5.101562 3.539062 L 4.679688 3.234375 L 5.199219 3.234375 Z M 5.101562 3.539062 "/>
</g>
</g>
<g clip-path="url(#clip86)" clip-rule="nonzero">
<g clip-path="url(#clip87)" clip-rule="nonzero">
<path style=" stroke:none;fill-rule:nonzero;fill:rgb(100%,100%,100%);fill-opacity:1;" d="M 4.988281 3.386719 L 5.148438 2.890625 L 5.3125 3.386719 Z M 4.988281 3.386719 "/>
</g>
</g>
<g clip-path="url(#clip88)" clip-rule="nonzero">
<g clip-path="url(#clip89)" clip-rule="nonzero">
<path style=" stroke:none;fill-rule:nonzero;fill:rgb(100%,100%,100%);fill-opacity:1;" d="M 5.101562 3.234375 L 5.621094 3.234375 L 5.199219 3.539062 Z M 5.101562 3.234375 "/>
</g>
</g>
<g clip-path="url(#clip90)" clip-rule="nonzero">
<g clip-path="url(#clip91)" clip-rule="nonzero">
<path style=" stroke:none;fill-rule:nonzero;fill:rgb(100%,100%,100%);fill-opacity:1;" d="M 5.28125 3.292969 L 5.441406 3.789062 L 5.019531 3.480469 Z M -3.859375 4.351562 L -4.285156 4.660156 L -4.121094 4.164062 Z M -3.859375 4.351562 "/>
</g>
</g>
<g clip-path="url(#clip92)" clip-rule="nonzero">
<g clip-path="url(#clip93)" clip-rule="nonzero">
<path style=" stroke:none;fill-rule:nonzero;fill:rgb(100%,100%,100%);fill-opacity:1;" d="M -1.828125 4.164062 L -1.667969 4.660156 L -2.089844 4.351562 Z M 0.203125 4.351562 L -0.21875 4.660156 L -0.0585938 4.164062 Z M 0.203125 4.351562 "/>
<path style=" stroke:none;fill-rule:nonzero;fill:rgb(100%,100%,100%);fill-opacity:1;" d="M 0.0234375 4.410156 L -0.402344 4.105469 L 0.121094 4.105469 Z M 0.0234375 4.410156 "/>
</g>
</g>
<g clip-path="url(#clip94)" clip-rule="nonzero">
<g clip-path="url(#clip95)" clip-rule="nonzero">
<path style=" stroke:none;fill-rule:nonzero;fill:rgb(100%,100%,100%);fill-opacity:1;" d="M -0.0898438 4.257812 L 0.0703125 3.761719 L 0.234375 4.257812 Z M -0.0898438 4.257812 "/>
</g>
</g>
<g clip-path="url(#clip96)" clip-rule="nonzero">
<g clip-path="url(#clip97)" clip-rule="nonzero">
<path style=" stroke:none;fill-rule:nonzero;fill:rgb(100%,100%,100%);fill-opacity:1;" d="M 0.0234375 4.105469 L 0.542969 4.105469 L 0.121094 4.410156 Z M 0.0234375 4.105469 "/>
</g>
</g>
<g clip-path="url(#clip98)" clip-rule="nonzero">
<g clip-path="url(#clip99)" clip-rule="nonzero">
<path style=" stroke:none;fill-rule:nonzero;fill:rgb(100%,100%,100%);fill-opacity:1;" d="M 0.203125 4.164062 L 0.363281 4.660156 L -0.0585938 4.351562 Z M 2.234375 4.351562 L 1.8125 4.660156 L 1.972656 4.164062 Z M 2.234375 4.351562 "/>
</g>
</g>
<g clip-path="url(#clip100)" clip-rule="nonzero">
<g clip-path="url(#clip101)" clip-rule="nonzero">
<path style=" stroke:none;fill-rule:nonzero;fill:rgb(100%,100%,100%);fill-opacity:1;" d="M 2.054688 4.410156 L 1.628906 4.105469 L 2.152344 4.105469 Z M 2.054688 4.410156 "/>
</g>
</g>
<g clip-path="url(#clip102)" clip-rule="nonzero">
<g clip-path="url(#clip103)" clip-rule="nonzero">
<path style=" stroke:none;fill-rule:nonzero;fill:rgb(100%,100%,100%);fill-opacity:1;" d="M 1.941406 4.257812 L 2.101562 3.761719 L 2.265625 4.257812 Z M 1.941406 4.257812 "/>
</g>
</g>
<g clip-path="url(#clip104)" clip-rule="nonzero">
<g clip-path="url(#clip105)" clip-rule="nonzero">
<path style=" stroke:none;fill-rule:nonzero;fill:rgb(100%,100%,100%);fill-opacity:1;" d="M 2.054688 4.105469 L 2.574219 4.105469 L 2.152344 4.410156 Z M 2.054688 4.105469 "/>
</g>
</g>
<g clip-path="url(#clip106)" clip-rule="nonzero">
<g clip-path="url(#clip107)" clip-rule="nonzero">
<path style=" stroke:none;fill-rule:nonzero;fill:rgb(100%,100%,100%);fill-opacity:1;" d="M 2.234375 4.164062 L 2.394531 4.660156 L 1.972656 4.351562 Z M 4.265625 4.351562 L 3.84375 4.660156 L 4.003906 4.164062 Z M 4.265625 4.351562 "/>
</g>
</g>
<g clip-path="url(#clip108)" clip-rule="nonzero">
<g clip-path="url(#clip109)" clip-rule="nonzero">
<path style=" stroke:none;fill-rule:nonzero;fill:rgb(100%,100%,100%);fill-opacity:1;" d="M 4.085938 4.410156 L 3.660156 4.105469 L 4.183594 4.105469 Z M 4.085938 4.410156 "/>
</g>
</g>
<g clip-path="url(#clip110)" clip-rule="nonzero">
<g clip-path="url(#clip111)" clip-rule="nonzero">
<path style=" stroke:none;fill-rule:nonzero;fill:rgb(100%,100%,100%);fill-opacity:1;" d="M 3.972656 4.257812 L 4.132812 3.761719 L 4.296875 4.257812 Z M 3.972656 4.257812 "/>
</g>
</g>
<g clip-path="url(#clip112)" clip-rule="nonzero">
<g clip-path="url(#clip113)" clip-rule="nonzero">
<path style=" stroke:none;fill-rule:nonzero;fill:rgb(100%,100%,100%);fill-opacity:1;" d="M 4.085938 4.105469 L 4.605469 4.105469 L 4.183594 4.410156 Z M 4.085938 4.105469 "/>
</g>
</g>
<g clip-path="url(#clip114)" clip-rule="nonzero">
<g clip-path="url(#clip115)" clip-rule="nonzero">
<path style=" stroke:none;fill-rule:nonzero;fill:rgb(100%,100%,100%);fill-opacity:1;" d="M 4.265625 4.164062 L 4.425781 4.660156 L 4.003906 4.351562 Z M 6.296875 4.351562 L 5.875 4.660156 L 6.035156 4.164062 Z M 6.296875 4.351562 "/>
</g>
</g>
<g clip-path="url(#clip116)" clip-rule="nonzero">
<g clip-path="url(#clip117)" clip-rule="nonzero">
<path style=" stroke:none;fill-rule:nonzero;fill:rgb(100%,100%,100%);fill-opacity:1;" d="M 6.117188 4.410156 L 5.695312 4.105469 L 6.214844 4.105469 Z M 6.117188 4.410156 "/>
</g>
</g>
<g clip-path="url(#clip118)" clip-rule="nonzero">
<g clip-path="url(#clip119)" clip-rule="nonzero">
<path style=" stroke:none;fill-rule:nonzero;fill:rgb(100%,100%,100%);fill-opacity:1;" d="M 6.003906 4.257812 L 6.164062 3.761719 L 6.328125 4.257812 Z M 6.003906 4.257812 "/>
</g>
</g>
<g clip-path="url(#clip120)" clip-rule="nonzero">
<g clip-path="url(#clip121)" clip-rule="nonzero">
<path style=" stroke:none;fill-rule:nonzero;fill:rgb(100%,100%,100%);fill-opacity:1;" d="M 6.117188 4.105469 L 6.636719 4.105469 L 6.214844 4.410156 Z M 6.117188 4.105469 "/>
<path style=" stroke:none;fill-rule:nonzero;fill:rgb(100%,100%,100%);fill-opacity:1;" d="M 6.296875 4.164062 L 6.457031 4.660156 L 6.035156 4.351562 Z M 6.296875 4.164062 "/>
</g>
</g>
<g clip-path="url(#clip122)" clip-rule="nonzero">
<g clip-path="url(#clip123)" clip-rule="nonzero">
<path style=" stroke:none;fill-rule:nonzero;fill:rgb(100%,100%,100%);fill-opacity:1;" d="M -0.8125 5.003906 L -0.652344 5.5 L -1.074219 5.195312 Z M 1.21875 5.195312 L 0.796875 5.5 L 0.957031 5.003906 Z M 1.21875 5.195312 "/>
</g>
</g>
<g clip-path="url(#clip124)" clip-rule="nonzero">
<g clip-path="url(#clip125)" clip-rule="nonzero">
<path style=" stroke:none;fill-rule:nonzero;fill:rgb(100%,100%,100%);fill-opacity:1;" d="M 1.039062 5.253906 L 0.613281 4.945312 L 1.136719 4.945312 Z M 1.039062 5.253906 "/>
<path style=" stroke:none;fill-rule:nonzero;fill:rgb(100%,100%,100%);fill-opacity:1;" d="M 0.925781 5.097656 L 1.085938 4.601562 L 1.25 5.097656 Z M 0.925781 5.097656 "/>
</g>
</g>
<g clip-path="url(#clip126)" clip-rule="nonzero">
<g clip-path="url(#clip127)" clip-rule="nonzero">
<path style=" stroke:none;fill-rule:nonzero;fill:rgb(100%,100%,100%);fill-opacity:1;" d="M 1.039062 4.945312 L 1.558594 4.945312 L 1.136719 5.253906 Z M 1.039062 4.945312 "/>
</g>
</g>
<g clip-path="url(#clip128)" clip-rule="nonzero">
<g clip-path="url(#clip129)" clip-rule="nonzero">
<path style=" stroke:none;fill-rule:nonzero;fill:rgb(100%,100%,100%);fill-opacity:1;" d="M 1.21875 5.003906 L 1.378906 5.5 L 0.957031 5.195312 Z M 3.25 5.195312 L 2.828125 5.5 L 2.988281 5.003906 Z M 3.25 5.195312 "/>
</g>
</g>
<g clip-path="url(#clip130)" clip-rule="nonzero">
<g clip-path="url(#clip131)" clip-rule="nonzero">
<path style=" stroke:none;fill-rule:nonzero;fill:rgb(100%,100%,100%);fill-opacity:1;" d="M 3.070312 5.253906 L 2.644531 4.945312 L 3.167969 4.945312 Z M 3.070312 5.253906 "/>
<path style=" stroke:none;fill-rule:nonzero;fill:rgb(100%,100%,100%);fill-opacity:1;" d="M 2.957031 5.097656 L 3.117188 4.601562 L 3.28125 5.097656 Z M 2.957031 5.097656 "/>
</g>
</g>
<g clip-path="url(#clip132)" clip-rule="nonzero">
<g clip-path="url(#clip133)" clip-rule="nonzero">
<path style=" stroke:none;fill-rule:nonzero;fill:rgb(100%,100%,100%);fill-opacity:1;" d="M 3.070312 4.945312 L 3.589844 4.945312 L 3.167969 5.253906 Z M 3.070312 4.945312 "/>
</g>
</g>
<g clip-path="url(#clip134)" clip-rule="nonzero">
<g clip-path="url(#clip135)" clip-rule="nonzero">
<path style=" stroke:none;fill-rule:nonzero;fill:rgb(100%,100%,100%);fill-opacity:1;" d="M 3.25 5.003906 L 3.410156 5.5 L 2.988281 5.195312 Z M 5.28125 5.195312 L 4.859375 5.5 L 5.019531 5.003906 Z M 5.28125 5.195312 "/>
</g>
</g>
<g clip-path="url(#clip136)" clip-rule="nonzero">
<g clip-path="url(#clip137)" clip-rule="nonzero">
<path style=" stroke:none;fill-rule:nonzero;fill:rgb(100%,100%,100%);fill-opacity:1;" d="M 5.101562 5.253906 L 4.679688 4.945312 L 5.199219 4.945312 Z M 5.101562 5.253906 "/>
<path style=" stroke:none;fill-rule:nonzero;fill:rgb(100%,100%,100%);fill-opacity:1;" d="M 4.988281 5.097656 L 5.148438 4.601562 L 5.3125 5.097656 Z M 4.988281 5.097656 "/>
</g>
</g>
<g clip-path="url(#clip138)" clip-rule="nonzero">
<g clip-path="url(#clip139)" clip-rule="nonzero">
<path style=" stroke:none;fill-rule:nonzero;fill:rgb(100%,100%,100%);fill-opacity:1;" d="M 5.101562 4.945312 L 5.621094 4.945312 L 5.199219 5.253906 Z M 5.101562 4.945312 "/>
</g>
</g>
<g clip-path="url(#clip140)" clip-rule="nonzero">
<g clip-path="url(#clip141)" clip-rule="nonzero">
<path style=" stroke:none;fill-rule:nonzero;fill:rgb(100%,100%,100%);fill-opacity:1;" d="M 5.28125 5.003906 L 5.441406 5.5 L 5.019531 5.195312 Z M -3.859375 6.066406 L -4.285156 6.371094 L -4.121094 5.875 Z M -3.859375 6.066406 "/>
</g>
</g>
<g clip-path="url(#clip142)" clip-rule="nonzero">
<g clip-path="url(#clip143)" clip-rule="nonzero">
<path style=" stroke:none;fill-rule:nonzero;fill:rgb(100%,100%,100%);fill-opacity:1;" d="M -1.828125 5.875 L -1.667969 6.371094 L -2.089844 6.066406 Z M 0.203125 6.066406 L -0.21875 6.371094 L -0.0585938 5.875 Z M 0.203125 6.066406 "/>
<path style=" stroke:none;fill-rule:nonzero;fill:rgb(100%,100%,100%);fill-opacity:1;" d="M 0.0234375 6.125 L -0.402344 5.816406 L 0.121094 5.816406 Z M 0.0234375 6.125 "/>
</g>
</g>
<g clip-path="url(#clip144)" clip-rule="nonzero">
<g clip-path="url(#clip145)" clip-rule="nonzero">
<path style=" stroke:none;fill-rule:nonzero;fill:rgb(100%,100%,100%);fill-opacity:1;" d="M -0.0898438 5.96875 L 0.0703125 5.472656 L 0.234375 5.96875 Z M -0.0898438 5.96875 "/>
</g>
</g>
<g clip-path="url(#clip146)" clip-rule="nonzero">
<g clip-path="url(#clip147)" clip-rule="nonzero">
<path style=" stroke:none;fill-rule:nonzero;fill:rgb(100%,100%,100%);fill-opacity:1;" d="M 0.0234375 5.816406 L 0.542969 5.816406 L 0.121094 6.125 Z M 0.0234375 5.816406 "/>
</g>
</g>
<g clip-path="url(#clip148)" clip-rule="nonzero">
<g clip-path="url(#clip149)" clip-rule="nonzero">
<path style=" stroke:none;fill-rule:nonzero;fill:rgb(100%,100%,100%);fill-opacity:1;" d="M 0.203125 5.875 L 0.363281 6.371094 L -0.0585938 6.066406 Z M 2.234375 6.066406 L 1.8125 6.371094 L 1.972656 5.875 Z M 2.234375 6.066406 "/>
</g>
</g>
<g clip-path="url(#clip150)" clip-rule="nonzero">
<g clip-path="url(#clip151)" clip-rule="nonzero">
<path style=" stroke:none;fill-rule:nonzero;fill:rgb(100%,100%,100%);fill-opacity:1;" d="M 2.054688 6.125 L 1.628906 5.816406 L 2.152344 5.816406 Z M 2.054688 6.125 "/>
</g>
</g>
<g clip-path="url(#clip152)" clip-rule="nonzero">
<g clip-path="url(#clip153)" clip-rule="nonzero">
<path style=" stroke:none;fill-rule:nonzero;fill:rgb(100%,100%,100%);fill-opacity:1;" d="M 1.941406 5.96875 L 2.101562 5.472656 L 2.265625 5.96875 Z M 1.941406 5.96875 "/>
</g>
</g>
<g clip-path="url(#clip154)" clip-rule="nonzero">
<g clip-path="url(#clip155)" clip-rule="nonzero">
<path style=" stroke:none;fill-rule:nonzero;fill:rgb(100%,100%,100%);fill-opacity:1;" d="M 2.054688 5.816406 L 2.574219 5.816406 L 2.152344 6.125 Z M 2.054688 5.816406 "/>
</g>
</g>
<g clip-path="url(#clip156)" clip-rule="nonzero">
<g clip-path="url(#clip157)" clip-rule="nonzero">
<path style=" stroke:none;fill-rule:nonzero;fill:rgb(100%,100%,100%);fill-opacity:1;" d="M 2.234375 5.875 L 2.394531 6.371094 L 1.972656 6.066406 Z M 4.265625 6.066406 L 3.84375 6.371094 L 4.003906 5.875 Z M 4.265625 6.066406 "/>
</g>
</g>
<g clip-path="url(#clip158)" clip-rule="nonzero">
<g clip-path="url(#clip159)" clip-rule="nonzero">
<path style=" stroke:none;fill-rule:nonzero;fill:rgb(100%,100%,100%);fill-opacity:1;" d="M 4.085938 6.125 L 3.660156 5.816406 L 4.183594 5.816406 Z M 4.085938 6.125 "/>
</g>
</g>
<g clip-path="url(#clip160)" clip-rule="nonzero">
<g clip-path="url(#clip161)" clip-rule="nonzero">
<path style=" stroke:none;fill-rule:nonzero;fill:rgb(100%,100%,100%);fill-opacity:1;" d="M 3.972656 5.96875 L 4.132812 5.472656 L 4.296875 5.96875 Z M 3.972656 5.96875 "/>
</g>
</g>
<g clip-path="url(#clip162)" clip-rule="nonzero">
<g clip-path="url(#clip163)" clip-rule="nonzero">
<path style=" stroke:none;fill-rule:nonzero;fill:rgb(100%,100%,100%);fill-opacity:1;" d="M 4.085938 5.816406 L 4.605469 5.816406 L 4.183594 6.125 Z M 4.085938 5.816406 "/>
</g>
</g>
<g clip-path="url(#clip164)" clip-rule="nonzero">
<g clip-path="url(#clip165)" clip-rule="nonzero">
<path style=" stroke:none;fill-rule:nonzero;fill:rgb(100%,100%,100%);fill-opacity:1;" d="M 4.265625 5.875 L 4.425781 6.371094 L 4.003906 6.066406 Z M 6.296875 6.066406 L 5.875 6.371094 L 6.035156 5.875 Z M 6.296875 6.066406 "/>
</g>
</g>
<g clip-path="url(#clip166)" clip-rule="nonzero">
<g clip-path="url(#clip167)" clip-rule="nonzero">
<path style=" stroke:none;fill-rule:nonzero;fill:rgb(100%,100%,100%);fill-opacity:1;" d="M 6.117188 6.125 L 5.695312 5.816406 L 6.214844 5.816406 Z M 6.117188 6.125 "/>
</g>
</g>
<g clip-path="url(#clip168)" clip-rule="nonzero">
<g clip-path="url(#clip169)" clip-rule="nonzero">
<path style=" stroke:none;fill-rule:nonzero;fill:rgb(100%,100%,100%);fill-opacity:1;" d="M 6.003906 5.96875 L 6.164062 5.472656 L 6.328125 5.96875 Z M 6.003906 5.96875 "/>
</g>
</g>
<g clip-path="url(#clip170)" clip-rule="nonzero">
<g clip-path="url(#clip171)" clip-rule="nonzero">
<path style=" stroke:none;fill-rule:nonzero;fill:rgb(100%,100%,100%);fill-opacity:1;" d="M 6.117188 5.816406 L 6.636719 5.816406 L 6.214844 6.125 Z M 6.117188 5.816406 "/>
<path style=" stroke:none;fill-rule:nonzero;fill:rgb(100%,100%,100%);fill-opacity:1;" d="M 6.296875 5.875 L 6.457031 6.371094 L 6.035156 6.066406 Z M 6.296875 5.875 "/>
</g>
</g>
<g clip-path="url(#clip172)" clip-rule="nonzero">
<g clip-path="url(#clip173)" clip-rule="nonzero">
<path style=" stroke:none;fill-rule:nonzero;fill:rgb(100%,100%,100%);fill-opacity:1;" d="M -0.8125 6.714844 L -0.652344 7.214844 L -1.074219 6.90625 Z M 1.21875 6.90625 L 0.796875 7.214844 L 0.957031 6.714844 Z M 1.21875 6.90625 "/>
</g>
</g>
<g clip-path="url(#clip174)" clip-rule="nonzero">
<g clip-path="url(#clip175)" clip-rule="nonzero">
<path style=" stroke:none;fill-rule:nonzero;fill:rgb(100%,100%,100%);fill-opacity:1;" d="M 1.039062 6.964844 L 0.613281 6.65625 L 1.136719 6.65625 Z M 1.039062 6.964844 "/>
<path style=" stroke:none;fill-rule:nonzero;fill:rgb(100%,100%,100%);fill-opacity:1;" d="M 0.925781 6.8125 L 1.085938 6.316406 L 1.25 6.8125 Z M 0.925781 6.8125 "/>
</g>
</g>
<g clip-path="url(#clip176)" clip-rule="nonzero">
<g clip-path="url(#clip177)" clip-rule="nonzero">
<path style=" stroke:none;fill-rule:nonzero;fill:rgb(100%,100%,100%);fill-opacity:1;" d="M 1.039062 6.65625 L 1.558594 6.65625 L 1.136719 6.964844 Z M 1.039062 6.65625 "/>
</g>
</g>
<g clip-path="url(#clip178)" clip-rule="nonzero">
<g clip-path="url(#clip179)" clip-rule="nonzero">
<path style=" stroke:none;fill-rule:nonzero;fill:rgb(100%,100%,100%);fill-opacity:1;" d="M 1.21875 6.714844 L 1.378906 7.214844 L 0.957031 6.90625 Z M 3.25 6.90625 L 2.828125 7.214844 L 2.988281 6.714844 Z M 3.25 6.90625 "/>
</g>
</g>
<g clip-path="url(#clip180)" clip-rule="nonzero">
<g clip-path="url(#clip181)" clip-rule="nonzero">
<path style=" stroke:none;fill-rule:nonzero;fill:rgb(100%,100%,100%);fill-opacity:1;" d="M 3.070312 6.964844 L 2.644531 6.65625 L 3.167969 6.65625 Z M 3.070312 6.964844 "/>
<path style=" stroke:none;fill-rule:nonzero;fill:rgb(100%,100%,100%);fill-opacity:1;" d="M 2.957031 6.8125 L 3.117188 6.316406 L 3.28125 6.8125 Z M 2.957031 6.8125 "/>
</g>
</g>
<g clip-path="url(#clip182)" clip-rule="nonzero">
<g clip-path="url(#clip183)" clip-rule="nonzero">
<path style=" stroke:none;fill-rule:nonzero;fill:rgb(100%,100%,100%);fill-opacity:1;" d="M 3.070312 6.65625 L 3.589844 6.65625 L 3.167969 6.964844 Z M 3.070312 6.65625 "/>
</g>
</g>
<g clip-path="url(#clip184)" clip-rule="nonzero">
<g clip-path="url(#clip185)" clip-rule="nonzero">
<path style=" stroke:none;fill-rule:nonzero;fill:rgb(100%,100%,100%);fill-opacity:1;" d="M 3.25 6.714844 L 3.410156 7.214844 L 2.988281 6.90625 Z M 5.28125 6.90625 L 4.859375 7.214844 L 5.019531 6.714844 Z M 5.28125 6.90625 "/>
</g>
</g>
<g clip-path="url(#clip186)" clip-rule="nonzero">
<g clip-path="url(#clip187)" clip-rule="nonzero">
<path style=" stroke:none;fill-rule:nonzero;fill:rgb(100%,100%,100%);fill-opacity:1;" d="M 5.101562 6.964844 L 4.679688 6.65625 L 5.199219 6.65625 Z M 5.101562 6.964844 "/>
<path style=" stroke:none;fill-rule:nonzero;fill:rgb(100%,100%,100%);fill-opacity:1;" d="M 4.988281 6.8125 L 5.148438 6.316406 L 5.3125 6.8125 Z M 4.988281 6.8125 "/>
</g>
</g>
<g clip-path="url(#clip188)" clip-rule="nonzero">
<g clip-path="url(#clip189)" clip-rule="nonzero">
<path style=" stroke:none;fill-rule:nonzero;fill:rgb(100%,100%,100%);fill-opacity:1;" d="M 5.101562 6.65625 L 5.621094 6.65625 L 5.199219 6.964844 Z M 5.101562 6.65625 "/>
</g>
</g>
<g clip-path="url(#clip190)" clip-rule="nonzero">
<g clip-path="url(#clip191)" clip-rule="nonzero">
<path style=" stroke:none;fill-rule:nonzero;fill:rgb(100%,100%,100%);fill-opacity:1;" d="M 5.28125 6.714844 L 5.441406 7.214844 L 5.019531 6.90625 Z M -3.859375 7.777344 L -4.285156 8.082031 L -4.121094 7.585938 Z M -3.859375 7.777344 "/>
</g>
</g>
<g clip-path="url(#clip192)" clip-rule="nonzero">
<g clip-path="url(#clip193)" clip-rule="nonzero">
<path style=" stroke:none;fill-rule:nonzero;fill:rgb(100%,100%,100%);fill-opacity:1;" d="M -1.828125 7.585938 L -1.667969 8.082031 L -2.089844 7.777344 Z M 0.203125 7.777344 L -0.21875 8.082031 L -0.0585938 7.585938 Z M 0.203125 7.777344 "/>
</g>
</g>
<g clip-path="url(#clip194)" clip-rule="nonzero">
<g clip-path="url(#clip195)" clip-rule="nonzero">
<path style=" stroke:none;fill-rule:nonzero;fill:rgb(100%,100%,100%);fill-opacity:1;" d="M 0.0234375 7.835938 L -0.402344 7.527344 L 0.121094 7.527344 Z M 0.0234375 7.835938 "/>
<path style=" stroke:none;fill-rule:nonzero;fill:rgb(100%,100%,100%);fill-opacity:1;" d="M -0.0898438 7.683594 L 0.0703125 7.183594 L 0.234375 7.683594 Z M -0.0898438 7.683594 "/>
<path style=" stroke:none;fill-rule:nonzero;fill:rgb(100%,100%,100%);fill-opacity:1;" d="M 0.0234375 7.527344 L 0.542969 7.527344 L 0.121094 7.835938 Z M 0.0234375 7.527344 "/>
</g>
</g>
<g clip-path="url(#clip196)" clip-rule="nonzero">
<g clip-path="url(#clip197)" clip-rule="nonzero">
<path style=" stroke:none;fill-rule:nonzero;fill:rgb(100%,100%,100%);fill-opacity:1;" d="M 0.203125 7.585938 L 0.363281 8.082031 L -0.0585938 7.777344 Z M 2.234375 7.777344 L 1.8125 8.082031 L 1.972656 7.585938 Z M 2.234375 7.777344 "/>
</g>
</g>
<g clip-path="url(#clip198)" clip-rule="nonzero">
<g clip-path="url(#clip199)" clip-rule="nonzero">
<path style=" stroke:none;fill-rule:nonzero;fill:rgb(100%,100%,100%);fill-opacity:1;" d="M 2.054688 7.835938 L 1.628906 7.527344 L 2.152344 7.527344 Z M 2.054688 7.835938 "/>
<path style=" stroke:none;fill-rule:nonzero;fill:rgb(100%,100%,100%);fill-opacity:1;" d="M 1.941406 7.683594 L 2.101562 7.183594 L 2.265625 7.683594 Z M 1.941406 7.683594 "/>
</g>
</g>
<g clip-path="url(#clip200)" clip-rule="nonzero">
<g clip-path="url(#clip201)" clip-rule="nonzero">
<path style=" stroke:none;fill-rule:nonzero;fill:rgb(100%,100%,100%);fill-opacity:1;" d="M 2.054688 7.527344 L 2.574219 7.527344 L 2.152344 7.835938 Z M 2.054688 7.527344 "/>
</g>
</g>
<g clip-path="url(#clip202)" clip-rule="nonzero">
<g clip-path="url(#clip203)" clip-rule="nonzero">
<path style=" stroke:none;fill-rule:nonzero;fill:rgb(100%,100%,100%);fill-opacity:1;" d="M 2.234375 7.585938 L 2.394531 8.082031 L 1.972656 7.777344 Z M 4.265625 7.777344 L 3.84375 8.082031 L 4.003906 7.585938 Z M 4.265625 7.777344 "/>
</g>
</g>
<g clip-path="url(#clip204)" clip-rule="nonzero">
<g clip-path="url(#clip205)" clip-rule="nonzero">
<path style=" stroke:none;fill-rule:nonzero;fill:rgb(100%,100%,100%);fill-opacity:1;" d="M 4.085938 7.835938 L 3.660156 7.527344 L 4.183594 7.527344 Z M 4.085938 7.835938 "/>
<path style=" stroke:none;fill-rule:nonzero;fill:rgb(100%,100%,100%);fill-opacity:1;" d="M 3.972656 7.683594 L 4.132812 7.183594 L 4.296875 7.683594 Z M 3.972656 7.683594 "/>
</g>
</g>
<g clip-path="url(#clip206)" clip-rule="nonzero">
<g clip-path="url(#clip207)" clip-rule="nonzero">
<path style=" stroke:none;fill-rule:nonzero;fill:rgb(100%,100%,100%);fill-opacity:1;" d="M 4.085938 7.527344 L 4.605469 7.527344 L 4.183594 7.835938 Z M 4.085938 7.527344 "/>
</g>
</g>
<g clip-path="url(#clip208)" clip-rule="nonzero">
<g clip-path="url(#clip209)" clip-rule="nonzero">
<path style=" stroke:none;fill-rule:nonzero;fill:rgb(100%,100%,100%);fill-opacity:1;" d="M 4.265625 7.585938 L 4.425781 8.082031 L 4.003906 7.777344 Z M 6.296875 7.777344 L 5.875 8.082031 L 6.035156 7.585938 Z M 6.296875 7.777344 "/>
</g>
</g>
<g clip-path="url(#clip210)" clip-rule="nonzero">
<g clip-path="url(#clip211)" clip-rule="nonzero">
<path style=" stroke:none;fill-rule:nonzero;fill:rgb(100%,100%,100%);fill-opacity:1;" d="M 6.117188 7.835938 L 5.695312 7.527344 L 6.214844 7.527344 Z M 6.117188 7.835938 "/>
</g>
</g>
<g clip-path="url(#clip212)" clip-rule="nonzero">
<g clip-path="url(#clip213)" clip-rule="nonzero">
<path style=" stroke:none;fill-rule:nonzero;fill:rgb(100%,100%,100%);fill-opacity:1;" d="M 6.003906 7.683594 L 6.164062 7.183594 L 6.328125 7.683594 Z M 6.003906 7.683594 "/>
<path style=" stroke:none;fill-rule:nonzero;fill:rgb(100%,100%,100%);fill-opacity:1;" d="M 6.117188 7.527344 L 6.636719 7.527344 L 6.214844 7.835938 Z M 6.117188 7.527344 "/>
</g>
</g>
<g clip-path="url(#clip214)" clip-rule="nonzero">
<g clip-path="url(#clip215)" clip-rule="nonzero">
<path style=" stroke:none;fill-rule:nonzero;fill:rgb(100%,100%,100%);fill-opacity:1;" d="M 6.296875 7.585938 L 6.457031 8.082031 L 6.035156 7.777344 Z M 6.296875 7.585938 "/>
</g>
</g>
</g>
</svg>
