<?xml version="1.0" encoding="UTF-8"?>
<svg xmlns="http://www.w3.org/2000/svg" xmlns:xlink="http://www.w3.org/1999/xlink" width="16px" height="16px" viewBox="0 0 16 16" version="1.1">
<g id="surface1">
<path style=" stroke:none;fill-rule:nonzero;fill:rgb(0%,0%,0%);fill-opacity:1;" d="M 8 8.523438 C 10.367188 8.523438 11.21875 6.152344 11.441406 4.203125 C 11.71875 1.804688 10.582031 0 8 0 C 5.417969 0 4.28125 1.804688 4.558594 4.203125 C 4.78125 6.152344 5.632812 8.523438 8 8.523438 Z M 8 8.523438 "/>
<path style=" stroke:none;fill-rule:nonzero;fill:rgb(0%,0%,0%);fill-opacity:1;" d="M 14.40625 14.167969 C 14.378906 13.410156 14.289062 12.652344 14.160156 11.910156 C 14 11.007812 13.796875 9.6875 13.007812 9.097656 C 12.554688 8.761719 11.964844 8.648438 11.445312 8.445312 C 11.191406 8.34375 10.960938 8.246094 10.75 8.132812 C 10.03125 8.921875 9.09375 9.335938 8 9.335938 C 6.90625 9.335938 5.96875 8.921875 5.25 8.132812 C 5.035156 8.246094 4.808594 8.34375 4.554688 8.445312 C 4.035156 8.648438 3.445312 8.757812 2.992188 9.097656 C 2.203125 9.6875 2 11.007812 1.839844 11.910156 C 1.710938 12.652344 1.621094 13.410156 1.59375 14.167969 C 1.574219 14.753906 1.863281 14.835938 2.355469 15.011719 C 2.96875 15.234375 3.601562 15.398438 4.238281 15.53125 C 5.46875 15.792969 6.738281 15.992188 8 16 C 9.261719 15.992188 10.53125 15.792969 11.761719 15.53125 C 12.398438 15.398438 13.03125 15.234375 13.644531 15.011719 C 14.136719 14.835938 14.425781 14.753906 14.40625 14.167969 Z M 14.40625 14.167969 "/>
</g>
</svg>
