<?xml version="1.0" encoding="UTF-8"?>
<svg xmlns="http://www.w3.org/2000/svg" xmlns:xlink="http://www.w3.org/1999/xlink" width="16px" height="16px" viewBox="0 0 16 16" version="1.1">
<g id="surface1">
<path style=" stroke:none;fill-rule:nonzero;fill:rgb(90.196078%,6.27451%,20.392157%);fill-opacity:1;" d="M 16 8 C 16 12.417969 12.417969 16 8 16 C 3.582031 16 0 12.417969 0 8 C 0 3.582031 3.582031 0 8 0 C 12.417969 0 16 3.582031 16 8 Z M 16 8 "/>
<path style="fill-rule:nonzero;fill:rgb(100%,100%,100%);fill-opacity:1;stroke-width:0.5;stroke-linecap:butt;stroke-linejoin:miter;stroke:rgb(100%,100%,100%);stroke-opacity:1;stroke-miterlimit:4;" d="M 28.666992 47.109375 L 12.143555 30.585938 L 26.748047 15.996094 L 43.286133 15.996094 L 43.286133 32.504883 Z M 14.003906 30.585938 L 28.666992 45.234375 L 41.99707 32.006836 L 41.99707 17.299805 L 27.304688 17.299805 Z M 14.003906 30.585938 " transform="matrix(0.266667,0,0,0.266667,0,0)"/>
<path style="fill-rule:nonzero;fill:rgb(100%,100%,100%);fill-opacity:1;stroke-width:0.5;stroke-linecap:butt;stroke-linejoin:miter;stroke:rgb(100%,100%,100%);stroke-opacity:1;stroke-miterlimit:4;" d="M 23.217773 33.251953 C 22.954102 33.251953 22.705078 33.09082 22.602539 32.841797 C 22.5 32.592773 22.558594 32.314453 22.749023 32.124023 L 30.424805 24.462891 C 30.673828 24.199219 31.098633 24.199219 31.362305 24.462891 C 31.625977 24.726562 31.625977 25.136719 31.362305 25.400391 L 23.701172 33.061523 C 23.569336 33.178711 23.393555 33.251953 23.217773 33.251953 Z M 23.217773 33.251953 " transform="matrix(0.266667,0,0,0.266667,0,0)"/>
<path style="fill-rule:nonzero;fill:rgb(100%,100%,100%);fill-opacity:1;stroke-width:0.5;stroke-linecap:butt;stroke-linejoin:miter;stroke:rgb(100%,100%,100%);stroke-opacity:1;stroke-miterlimit:4;" d="M 26.660156 36.694336 C 26.396484 36.679688 26.147461 36.518555 26.044922 36.269531 C 25.942383 36.020508 26.000977 35.742188 26.191406 35.551758 L 33.852539 27.890625 C 34.116211 27.626953 34.541016 27.626953 34.804688 27.890625 C 34.921875 28.007812 34.995117 28.183594 34.995117 28.359375 C 34.995117 28.535156 34.921875 28.710938 34.804688 28.828125 L 27.128906 36.489258 C 27.011719 36.621094 26.835938 36.694336 26.660156 36.694336 Z M 26.660156 36.694336 " transform="matrix(0.266667,0,0,0.266667,0,0)"/>
<path style="fill-rule:nonzero;fill:rgb(100%,100%,100%);fill-opacity:1;stroke-width:0.5;stroke-linecap:butt;stroke-linejoin:miter;stroke:rgb(100%,100%,100%);stroke-opacity:1;stroke-miterlimit:4;" d="M 36.679688 25.063477 C 36.020508 25.078125 35.375977 24.799805 34.907227 24.331055 C 33.94043 23.364258 33.94043 21.782227 34.907227 20.81543 C 35.90332 19.863281 37.456055 19.863281 38.4375 20.81543 C 39.404297 21.782227 39.404297 23.364258 38.4375 24.331055 C 37.983398 24.799805 37.338867 25.078125 36.679688 25.063477 Z M 36.679688 21.416016 C 36.196289 21.401367 35.771484 21.694336 35.581055 22.133789 C 35.405273 22.573242 35.507812 23.085938 35.859375 23.408203 C 36.313477 23.847656 37.045898 23.847656 37.5 23.408203 C 37.954102 22.954102 37.954102 22.22168 37.5 21.767578 C 37.280273 21.547852 36.987305 21.430664 36.679688 21.430664 Z M 36.679688 21.416016 " transform="matrix(0.266667,0,0,0.266667,0,0)"/>
</g>
</svg>
