<?xml version="1.0" encoding="UTF-8"?>
<svg xmlns="http://www.w3.org/2000/svg" xmlns:xlink="http://www.w3.org/1999/xlink" width="16px" height="16px" viewBox="0 0 16 16" version="1.1">
<g id="surface1">
<path style=" stroke:none;fill-rule:nonzero;fill:rgb(21.176471%,20.392157%,21.176471%);fill-opacity:1;" d="M 16 8 C 16 12.417969 12.417969 16 8 16 C 3.582031 16 0 12.417969 0 8 C 0 3.582031 3.582031 0 8 0 C 12.417969 0 16 3.582031 16 8 Z M 16 8 "/>
<path style="fill-rule:nonzero;fill:rgb(100%,100%,100%);fill-opacity:1;stroke-width:0.25;stroke-linecap:butt;stroke-linejoin:miter;stroke:rgb(100%,100%,100%);stroke-opacity:1;stroke-miterlimit:4;" d="M 27.333984 44.003906 C 27.333984 43.681641 27.392578 43.374023 27.509766 43.095703 C 27.626953 42.817383 27.788086 42.553711 27.993164 42.348633 C 28.212891 42.143555 28.461914 41.967773 28.725586 41.850586 C 29.018555 41.71875 29.326172 41.660156 29.648438 41.660156 C 29.970703 41.660156 30.27832 41.71875 30.556641 41.850586 C 30.834961 41.967773 31.083984 42.143555 31.303711 42.348633 C 31.508789 42.568359 31.68457 42.817383 31.801758 43.095703 C 31.933594 43.374023 32.006836 43.681641 32.006836 44.003906 C 32.006836 44.311523 31.948242 44.633789 31.816406 44.926758 C 31.68457 45.19043 31.523438 45.439453 31.303711 45.644531 C 30.864258 46.083984 30.27832 46.318359 29.663086 46.318359 C 29.047852 46.347656 28.447266 46.113281 27.993164 45.688477 C 27.539062 45.249023 27.304688 44.633789 27.333984 44.003906 Z M 30.908203 10.283203 L 30.908203 24.741211 C 30.908203 25.50293 30.908203 26.206055 30.908203 26.879883 C 30.908203 27.553711 30.908203 28.242188 30.849609 28.945312 C 30.791016 29.633789 30.791016 30.366211 30.74707 31.142578 C 30.688477 31.904297 30.629883 32.768555 30.585938 33.706055 L 28.916016 33.706055 C 28.87207 32.768555 28.813477 31.904297 28.769531 31.142578 C 28.725586 30.366211 28.681641 29.633789 28.652344 28.945312 C 28.623047 28.242188 28.652344 27.553711 28.59375 26.879883 C 28.535156 26.206055 28.59375 25.50293 28.59375 24.741211 L 28.59375 10.327148 Z M 30.908203 10.283203 " transform="matrix(0.266667,0,0,0.266667,0,0)"/>
</g>
</svg>
