<?xml version="1.0" encoding="UTF-8"?>
<svg xmlns="http://www.w3.org/2000/svg" xmlns:xlink="http://www.w3.org/1999/xlink" width="16px" height="16px" viewBox="0 0 16 16" version="1.1">
<g id="surface1">
<path style=" stroke:none;fill-rule:nonzero;fill:rgb(21.176471%,20.392157%,21.176471%);fill-opacity:1;" d="M 16 8 C 16 12.417969 12.417969 16 8 16 C 3.582031 16 0 12.417969 0 8 C 0 3.582031 3.582031 0 8 0 C 12.417969 0 16 3.582031 16 8 Z M 16 8 "/>
<path style="fill-rule:nonzero;fill:rgb(100%,100%,100%);fill-opacity:1;stroke-width:0.5;stroke-linecap:butt;stroke-linejoin:miter;stroke:rgb(100%,100%,100%);stroke-opacity:1;stroke-miterlimit:4;" d="M 44.868164 40.224609 C 45.864258 40.224609 46.816406 40.224609 47.753906 40.224609 C 48.706055 40.224609 48.867188 40.385742 48.823242 41.220703 C 48.852539 42.099609 48.706055 42.978516 48.383789 43.798828 C 47.709961 45.439453 46.083984 46.508789 44.311523 46.450195 C 37.617188 46.450195 30.9375 46.450195 24.243164 46.450195 C 22.338867 46.435547 20.683594 45.146484 20.185547 43.300781 C 19.980469 42.480469 19.921875 41.645508 19.995117 40.810547 C 20.068359 38.085938 20.214844 35.34668 20.185547 32.607422 C 20.126953 27.275391 19.423828 21.972656 18.09082 16.801758 C 17.915039 16.069336 17.695312 15.351562 17.475586 14.633789 C 17.373047 14.355469 17.241211 14.106445 17.080078 13.87207 C 16.743164 13.31543 16.157227 12.949219 15.498047 12.875977 C 14.853516 12.802734 14.194336 13.037109 13.754883 13.520508 C 12.963867 14.282227 12.65625 15.395508 12.93457 16.450195 C 13.066406 17.036133 13.212891 17.592773 13.344727 18.178711 C 13.359375 18.28125 13.40332 18.383789 13.491211 18.442383 C 13.564453 18.515625 13.681641 18.530273 13.78418 18.515625 C 14.882812 18.515625 15.981445 18.515625 17.080078 18.515625 C 17.53418 18.515625 17.783203 18.706055 17.783203 19.057617 C 17.768555 19.40918 17.519531 19.599609 17.080078 19.599609 L 13.183594 19.599609 C 12.744141 19.599609 12.568359 19.467773 12.46582 19.042969 C 12.1875 18.046875 11.953125 17.021484 11.762695 15.996094 C 11.660156 15 11.953125 14.003906 12.568359 13.212891 C 13.198242 12.436523 14.106445 11.923828 15.117188 11.821289 C 15.65918 11.791992 16.230469 11.791992 16.787109 11.821289 L 37.280273 11.821289 C 39.331055 11.777344 41.176758 13.007812 41.923828 14.912109 C 42.202148 15.688477 42.392578 16.494141 42.495117 17.314453 C 43.037109 20.463867 43.608398 23.598633 44.033203 26.762695 C 44.648438 31.142578 44.926758 35.551758 44.853516 39.975586 C 44.853516 40.004883 44.853516 40.078125 44.868164 40.224609 Z M 17.724609 12.84668 C 17.988281 13.300781 18.222656 13.754883 18.427734 14.223633 C 18.691406 14.956055 18.896484 15.688477 19.086914 16.435547 C 20.537109 22.133789 21.269531 27.993164 21.254883 33.867188 C 21.254883 36.416016 21.09375 38.964844 21.035156 41.513672 C 21.005859 41.90918 21.049805 42.319336 21.123047 42.714844 C 21.342773 44.135742 22.5 45.234375 23.935547 45.351562 C 25.371094 45.46875 26.689453 44.575195 27.128906 43.212891 C 27.333984 42.524414 27.421875 41.806641 27.363281 41.088867 C 27.363281 40.356445 27.495117 40.224609 28.227539 40.224609 L 43.227539 40.224609 C 43.710938 40.224609 43.725586 40.224609 43.725586 39.726562 C 43.666992 37.485352 43.652344 35.244141 43.491211 33.017578 C 43.31543 30.498047 43.081055 28.022461 42.714844 25.488281 C 42.275391 22.382812 41.630859 19.291992 41.132812 16.186523 C 40.78125 14.238281 39.111328 12.832031 37.133789 12.832031 C 30.820312 12.875977 24.492188 12.832031 18.134766 12.832031 Z M 28.476562 41.323242 C 28.608398 42.832031 28.066406 44.311523 26.99707 45.395508 L 44.633789 45.395508 C 44.956055 45.380859 45.27832 45.307617 45.585938 45.19043 C 46.962891 44.589844 47.8125 43.198242 47.739258 41.704102 C 47.739258 41.367188 47.666016 41.279297 47.329102 41.279297 L 28.842773 41.279297 Z M 28.476562 41.323242 " transform="matrix(0.266667,0,0,0.266667,0,0)"/>
<path style="fill-rule:nonzero;fill:rgb(100%,100%,100%);fill-opacity:1;stroke-width:0.25;stroke-linecap:butt;stroke-linejoin:miter;stroke:rgb(100%,100%,100%);stroke-opacity:1;stroke-miterlimit:4;" d="M 23.466797 26.99707 C 23.452148 22.807617 26.542969 19.262695 30.703125 18.706055 C 31.333008 18.647461 31.977539 18.618164 32.62207 18.647461 C 33.105469 18.647461 33.295898 18.94043 33.222656 19.40918 C 33.046875 20.185547 33.530273 20.961914 34.306641 21.152344 C 34.863281 21.313477 34.96582 21.606445 34.672852 22.148438 C 34.335938 22.705078 34.40918 23.422852 34.863281 23.90625 C 35.332031 24.389648 36.049805 24.506836 36.635742 24.18457 C 37.207031 23.876953 37.543945 24.052734 37.646484 24.682617 C 37.675781 25.078125 37.866211 25.444336 38.173828 25.693359 C 38.496094 25.942383 38.891602 26.05957 39.287109 26.000977 C 40.063477 25.883789 40.224609 26.000977 40.224609 26.806641 C 40.371094 29.868164 38.818359 32.753906 36.210938 34.350586 C 33.588867 35.947266 30.322266 35.976562 27.65625 34.453125 C 25.004883 32.929688 23.393555 30.073242 23.466797 27.011719 Z M 32.094727 19.731445 C 29.267578 19.584961 26.630859 21.108398 25.356445 23.613281 C 23.862305 26.469727 24.404297 29.941406 26.689453 32.211914 C 28.974609 34.467773 32.460938 34.96582 35.288086 33.457031 C 37.646484 32.226562 39.125977 29.780273 39.111328 27.114258 C 37.983398 27.114258 36.972656 26.396484 36.621094 25.327148 C 34.49707 25.634766 33.208008 24.316406 33.486328 22.192383 C 33.500977 22.089844 33.457031 21.987305 33.383789 21.928711 C 32.607422 21.459961 32.124023 20.639648 32.094727 19.746094 Z M 32.094727 19.731445 " transform="matrix(0.266667,0,0,0.266667,0,0)"/>
<path style="fill-rule:nonzero;fill:rgb(100%,100%,100%);fill-opacity:1;stroke-width:0.25;stroke-linecap:butt;stroke-linejoin:miter;stroke:rgb(100%,100%,100%);stroke-opacity:1;stroke-miterlimit:4;" d="M 35.625 29.194336 C 35.170898 29.194336 34.790039 28.828125 34.790039 28.374023 C 34.833984 27.949219 35.185547 27.626953 35.610352 27.626953 C 36.035156 27.626953 36.386719 27.949219 36.445312 28.374023 C 36.430664 28.813477 36.064453 29.179688 35.625 29.194336 Z M 35.625 29.194336 " transform="matrix(0.266667,0,0,0.266667,0,0)"/>
<path style="fill-rule:nonzero;fill:rgb(100%,100%,100%);fill-opacity:1;stroke-width:0.25;stroke-linecap:butt;stroke-linejoin:miter;stroke:rgb(100%,100%,100%);stroke-opacity:1;stroke-miterlimit:4;" d="M 29.619141 22.924805 C 29.619141 22.705078 29.707031 22.5 29.868164 22.353516 C 30.029297 22.192383 30.234375 22.119141 30.454102 22.133789 C 30.908203 22.148438 31.274414 22.514648 31.259766 22.96875 C 31.245117 23.422852 30.878906 23.774414 30.424805 23.774414 C 29.970703 23.759766 29.604492 23.378906 29.619141 22.924805 Z M 29.619141 22.924805 " transform="matrix(0.266667,0,0,0.266667,0,0)"/>
<path style="fill-rule:nonzero;fill:rgb(100%,100%,100%);fill-opacity:1;stroke-width:0.25;stroke-linecap:butt;stroke-linejoin:miter;stroke:rgb(100%,100%,100%);stroke-opacity:1;stroke-miterlimit:4;" d="M 28.286133 26.513672 C 28.300781 26.733398 28.212891 26.938477 28.066406 27.084961 C 27.905273 27.246094 27.700195 27.333984 27.480469 27.333984 C 27.260742 27.333984 27.055664 27.246094 26.894531 27.084961 C 26.748047 26.923828 26.660156 26.71875 26.674805 26.499023 C 26.674805 26.05957 27.026367 25.693359 27.480469 25.693359 C 27.93457 25.693359 28.286133 26.05957 28.286133 26.499023 Z M 28.286133 26.513672 " transform="matrix(0.266667,0,0,0.266667,0,0)"/>
<path style="fill-rule:nonzero;fill:rgb(100%,100%,100%);fill-opacity:1;stroke-width:0.25;stroke-linecap:butt;stroke-linejoin:miter;stroke:rgb(100%,100%,100%);stroke-opacity:1;stroke-miterlimit:4;" d="M 31.59668 28.359375 C 31.142578 28.330078 30.791016 27.963867 30.791016 27.509766 C 30.791016 27.055664 31.157227 26.689453 31.611328 26.689453 C 32.06543 26.689453 32.431641 27.055664 32.431641 27.509766 C 32.431641 27.978516 32.06543 28.344727 31.59668 28.359375 Z M 31.59668 28.359375 " transform="matrix(0.266667,0,0,0.266667,0,0)"/>
<path style="fill-rule:nonzero;fill:rgb(100%,100%,100%);fill-opacity:1;stroke-width:0.25;stroke-linecap:butt;stroke-linejoin:miter;stroke:rgb(100%,100%,100%);stroke-opacity:1;stroke-miterlimit:4;" d="M 31.582031 30.849609 C 31.582031 31.069336 31.494141 31.274414 31.333008 31.420898 C 31.171875 31.582031 30.952148 31.655273 30.74707 31.640625 C 30.292969 31.640625 29.941406 31.274414 29.956055 30.834961 C 29.956055 30.615234 30.043945 30.395508 30.19043 30.249023 C 30.351562 30.102539 30.556641 30.014648 30.776367 30.014648 C 30.996094 30.014648 31.201172 30.102539 31.362305 30.263672 C 31.508789 30.424805 31.582031 30.629883 31.582031 30.849609 Z M 31.582031 30.849609 " transform="matrix(0.266667,0,0,0.266667,0,0)"/>
</g>
</svg>
