<?xml version="1.0" encoding="UTF-8"?>
<svg xmlns="http://www.w3.org/2000/svg" xmlns:xlink="http://www.w3.org/1999/xlink" width="16px" height="16px" viewBox="0 0 16 16" version="1.1">
<g id="surface1">
<path style=" stroke:none;fill-rule:nonzero;fill:rgb(21.176471%,20.392157%,21.176471%);fill-opacity:1;" d="M 16 8 C 16 12.417969 12.417969 16 8 16 C 3.582031 16 0 12.417969 0 8 C 0 3.582031 3.582031 0 8 0 C 12.417969 0 16 3.582031 16 8 Z M 16 8 "/>
<path style="fill-rule:nonzero;fill:rgb(100%,100%,100%);fill-opacity:1;stroke-width:0.5;stroke-linecap:butt;stroke-linejoin:miter;stroke:rgb(100%,100%,100%);stroke-opacity:1;stroke-miterlimit:4;" d="M 42.246094 45 L 17.329102 45 C 16.933594 45 16.611328 44.677734 16.59668 44.282227 L 16.59668 12.993164 C 16.611328 12.597656 16.933594 12.275391 17.329102 12.275391 L 42.246094 12.275391 C 42.451172 12.275391 42.641602 12.348633 42.773438 12.480469 C 42.919922 12.612305 42.993164 12.802734 42.993164 12.993164 L 42.993164 44.282227 C 42.993164 44.677734 42.670898 45 42.275391 45 Z M 18.046875 43.564453 L 41.52832 43.564453 L 41.52832 13.666992 L 18.046875 13.666992 Z M 18.046875 43.564453 " transform="matrix(0.266667,0,0,0.266667,0,0)"/>
<path style="fill-rule:nonzero;fill:rgb(100%,100%,100%);fill-opacity:1;stroke-width:0.5;stroke-linecap:butt;stroke-linejoin:miter;stroke:rgb(100%,100%,100%);stroke-opacity:1;stroke-miterlimit:4;" d="M 19.863281 19.526367 L 14.780273 19.526367 C 14.384766 19.526367 14.0625 19.204102 14.0625 18.793945 C 14.0625 18.398438 14.384766 18.076172 14.780273 18.076172 L 19.863281 18.076172 C 20.273438 18.076172 20.595703 18.398438 20.595703 18.793945 C 20.595703 19.204102 20.273438 19.526367 19.863281 19.526367 Z M 19.863281 19.526367 " transform="matrix(0.266667,0,0,0.266667,0,0)"/>
<path style="fill-rule:nonzero;fill:rgb(100%,100%,100%);fill-opacity:1;stroke-width:0.5;stroke-linecap:butt;stroke-linejoin:miter;stroke:rgb(100%,100%,100%);stroke-opacity:1;stroke-miterlimit:4;" d="M 19.863281 26.000977 L 14.780273 26.000977 C 14.384766 26.000977 14.0625 25.678711 14.0625 25.283203 C 14.0625 24.887695 14.384766 24.56543 14.780273 24.56543 L 19.863281 24.56543 C 20.273438 24.56543 20.595703 24.887695 20.595703 25.283203 C 20.595703 25.678711 20.273438 26.000977 19.863281 26.000977 Z M 19.863281 26.000977 " transform="matrix(0.266667,0,0,0.266667,0,0)"/>
<path style="fill-rule:nonzero;fill:rgb(100%,100%,100%);fill-opacity:1;stroke-width:0.5;stroke-linecap:butt;stroke-linejoin:miter;stroke:rgb(100%,100%,100%);stroke-opacity:1;stroke-miterlimit:4;" d="M 19.863281 32.504883 L 14.780273 32.504883 C 14.384766 32.490234 14.0625 32.167969 14.0625 31.772461 C 14.0625 31.376953 14.384766 31.054688 14.780273 31.054688 L 19.863281 31.054688 C 20.273438 31.054688 20.595703 31.376953 20.595703 31.772461 C 20.595703 32.167969 20.273438 32.490234 19.863281 32.504883 Z M 19.863281 32.504883 " transform="matrix(0.266667,0,0,0.266667,0,0)"/>
<path style="fill-rule:nonzero;fill:rgb(100%,100%,100%);fill-opacity:1;stroke-width:0.5;stroke-linecap:butt;stroke-linejoin:miter;stroke:rgb(100%,100%,100%);stroke-opacity:1;stroke-miterlimit:4;" d="M 19.863281 38.994141 L 14.780273 38.994141 C 14.384766 38.994141 14.0625 38.671875 14.0625 38.276367 C 14.0625 37.880859 14.384766 37.558594 14.780273 37.558594 L 19.863281 37.558594 C 20.273438 37.558594 20.595703 37.880859 20.595703 38.276367 C 20.595703 38.671875 20.273438 38.994141 19.863281 38.994141 Z M 19.863281 38.994141 " transform="matrix(0.266667,0,0,0.266667,0,0)"/>
<path style="fill-rule:nonzero;fill:rgb(100%,100%,100%);fill-opacity:1;stroke-width:0.5;stroke-linecap:butt;stroke-linejoin:miter;stroke:rgb(100%,100%,100%);stroke-opacity:1;stroke-miterlimit:4;" d="M 30.717773 28.154297 C 28.374023 27.978516 26.586914 25.942383 26.71875 23.583984 C 26.586914 21.225586 28.359375 19.189453 30.717773 19.013672 C 33.09082 19.174805 34.907227 21.210938 34.775391 23.583984 C 34.892578 25.957031 33.09082 27.993164 30.717773 28.154297 Z M 30.717773 20.463867 C 29.150391 20.625 27.978516 22.016602 28.110352 23.583984 C 27.978516 25.166016 29.150391 26.557617 30.717773 26.704102 C 32.299805 26.557617 33.457031 25.166016 33.325195 23.583984 C 33.457031 22.016602 32.299805 20.625 30.717773 20.463867 Z M 30.717773 20.463867 " transform="matrix(0.266667,0,0,0.266667,0,0)"/>
<path style="fill-rule:nonzero;fill:rgb(100%,100%,100%);fill-opacity:1;stroke-width:0.5;stroke-linecap:butt;stroke-linejoin:miter;stroke:rgb(100%,100%,100%);stroke-opacity:1;stroke-miterlimit:4;" d="M 37.133789 39.521484 L 24.316406 39.521484 C 23.935547 39.521484 23.613281 39.228516 23.583984 38.847656 L 23.305664 34.716797 C 23.291016 33.09082 24.272461 31.611328 25.78125 30.996094 C 28.974609 29.868164 32.460938 29.868164 35.654297 30.996094 C 37.148438 31.611328 38.129883 33.076172 38.129883 34.6875 L 37.866211 38.818359 C 37.836914 39.199219 37.514648 39.492188 37.133789 39.506836 Z M 25.004883 38.071289 L 36.459961 38.071289 L 36.694336 34.614258 C 36.665039 33.632812 36.064453 32.768555 35.15625 32.373047 C 32.285156 31.362305 29.150391 31.362305 26.279297 32.373047 C 25.385742 32.768555 24.785156 33.632812 24.741211 34.614258 Z M 25.004883 38.071289 " transform="matrix(0.266667,0,0,0.266667,0,0)"/>
</g>
</svg>
