<?xml version="1.0" encoding="UTF-8"?>
<svg xmlns="http://www.w3.org/2000/svg" xmlns:xlink="http://www.w3.org/1999/xlink" width="16px" height="16px" viewBox="0 0 16 16" version="1.1">
<g id="surface1">
<path style=" stroke:none;fill-rule:nonzero;fill:rgb(54.509804%,38.039216%,23.137255%);fill-opacity:1;" d="M 16 8 C 16 12.417969 12.417969 16 8 16 C 3.582031 16 0 12.417969 0 8 C 0 3.582031 3.582031 0 8 0 C 12.417969 0 16 3.582031 16 8 Z M 16 8 "/>
<path style="fill-rule:nonzero;fill:rgb(100%,100%,100%);fill-opacity:1;stroke-width:0.5;stroke-linecap:butt;stroke-linejoin:miter;stroke:rgb(100%,100%,100%);stroke-opacity:1;stroke-miterlimit:4;" d="M 15.19043 23.818359 C 15.014648 23.818359 14.838867 23.759766 14.707031 23.642578 L 10.195312 19.775391 C 10.004883 19.599609 9.902344 19.335938 9.946289 19.086914 C 9.990234 18.823242 10.166016 18.618164 10.415039 18.515625 L 23.232422 13.40332 C 23.481445 13.286133 23.774414 13.344727 23.979492 13.520508 L 28.491211 17.402344 C 28.681641 17.563477 28.769531 17.827148 28.725586 18.076172 C 28.696289 18.339844 28.520508 18.544922 28.286133 18.632812 L 15.454102 23.774414 C 15.380859 23.803711 15.27832 23.818359 15.19043 23.818359 Z M 12.084961 19.438477 L 15.336914 22.236328 L 26.601562 17.724609 L 23.364258 14.926758 Z M 12.084961 19.438477 " transform="matrix(0.266667,0,0,0.266667,0,0)"/>
<path style="fill-rule:nonzero;fill:rgb(100%,100%,100%);fill-opacity:1;stroke-width:0.5;stroke-linecap:butt;stroke-linejoin:miter;stroke:rgb(100%,100%,100%);stroke-opacity:1;stroke-miterlimit:4;" d="M 27.758789 45 C 27.597656 45 27.451172 44.956055 27.319336 44.853516 C 27.128906 44.72168 27.026367 44.501953 27.026367 44.267578 L 27.026367 29.838867 C 27.026367 29.428711 27.348633 29.106445 27.758789 29.106445 C 28.168945 29.106445 28.505859 29.428711 28.505859 29.838867 L 28.505859 43.286133 L 42.407227 38.891602 L 42.407227 31.743164 C 42.363281 31.464844 42.495117 31.186523 42.744141 31.040039 C 42.978516 30.878906 43.286133 30.878906 43.535156 31.040039 C 43.769531 31.186523 43.901367 31.464844 43.87207 31.743164 L 43.87207 39.433594 C 43.87207 39.755859 43.666992 40.03418 43.359375 40.136719 L 27.993164 45 C 27.919922 45.014648 27.84668 45.014648 27.773438 45 Z M 27.758789 45 " transform="matrix(0.266667,0,0,0.266667,0,0)"/>
<path style="fill-rule:nonzero;fill:rgb(100%,100%,100%);fill-opacity:1;stroke-width:0.5;stroke-linecap:butt;stroke-linejoin:miter;stroke:rgb(100%,100%,100%);stroke-opacity:1;stroke-miterlimit:4;" d="M 36.137695 33.999023 C 35.961914 33.999023 35.786133 33.94043 35.654297 33.823242 L 31.157227 30 C 30.952148 29.824219 30.864258 29.575195 30.908203 29.326172 C 30.952148 29.0625 31.12793 28.857422 31.362305 28.754883 L 44.179688 23.62793 C 44.428711 23.525391 44.72168 23.583984 44.926758 23.745117 L 49.438477 27.641602 C 49.643555 27.802734 49.731445 28.066406 49.6875 28.31543 C 49.643555 28.564453 49.467773 28.78418 49.233398 28.886719 L 36.416016 33.999023 C 36.328125 34.013672 36.225586 34.013672 36.137695 33.999023 Z M 33.00293 29.633789 L 36.240234 32.416992 L 47.519531 27.905273 L 44.267578 25.12207 Z M 33.00293 29.633789 " transform="matrix(0.266667,0,0,0.266667,0,0)"/>
<path style="fill-rule:nonzero;fill:rgb(100%,100%,100%);fill-opacity:1;stroke-width:0.5;stroke-linecap:butt;stroke-linejoin:miter;stroke:rgb(100%,100%,100%);stroke-opacity:1;stroke-miterlimit:4;" d="M 43.154297 23.525391 C 43.051758 23.525391 42.963867 23.510742 42.875977 23.481445 L 30 18.339844 C 29.765625 18.251953 29.604492 18.046875 29.545898 17.797852 C 29.501953 17.548828 29.575195 17.299805 29.765625 17.124023 L 34.174805 12.84668 C 34.379883 12.626953 34.6875 12.568359 34.96582 12.685547 L 47.797852 17.827148 C 48.032227 17.915039 48.193359 18.120117 48.251953 18.354492 C 48.295898 18.603516 48.222656 18.852539 48.046875 19.02832 L 43.623047 23.320312 C 43.491211 23.452148 43.31543 23.525391 43.125 23.525391 Z M 31.625977 17.387695 L 42.993164 21.928711 L 46.259766 18.764648 L 34.892578 14.223633 Z M 31.625977 17.387695 " transform="matrix(0.266667,0,0,0.266667,0,0)"/>
<path style="fill-rule:nonzero;fill:rgb(100%,100%,100%);fill-opacity:1;stroke-width:0.5;stroke-linecap:butt;stroke-linejoin:miter;stroke:rgb(100%,100%,100%);stroke-opacity:1;stroke-miterlimit:4;" d="M 27.509766 45 C 27.407227 45 27.319336 44.985352 27.231445 44.956055 L 15.366211 40.107422 C 15.087891 40.004883 14.897461 39.726562 14.897461 39.433594 L 14.897461 32.314453 C 14.897461 31.904297 15.234375 31.582031 15.644531 31.582031 C 16.054688 31.582031 16.376953 31.904297 16.376953 32.314453 L 16.376953 38.935547 L 27.788086 43.608398 C 28.081055 43.769531 28.227539 44.091797 28.168945 44.414062 C 28.095703 44.736328 27.832031 44.970703 27.509766 45 Z M 27.509766 45 " transform="matrix(0.266667,0,0,0.266667,0,0)"/>
<path style="fill-rule:nonzero;fill:rgb(100%,100%,100%);fill-opacity:1;stroke-width:0.5;stroke-linecap:butt;stroke-linejoin:miter;stroke:rgb(100%,100%,100%);stroke-opacity:1;stroke-miterlimit:4;" d="M 23.349609 34.863281 C 23.24707 34.863281 23.15918 34.848633 23.071289 34.804688 L 10.224609 29.663086 C 9.990234 29.589844 9.814453 29.384766 9.785156 29.135742 C 9.726562 28.886719 9.814453 28.637695 9.990234 28.461914 L 14.384766 24.18457 C 14.604492 23.979492 14.912109 23.90625 15.175781 24.023438 L 27.993164 29.165039 C 28.227539 29.25293 28.40332 29.458008 28.447266 29.692383 C 28.505859 29.941406 28.417969 30.19043 28.242188 30.366211 L 23.833008 34.658203 C 23.701172 34.790039 23.510742 34.87793 23.320312 34.863281 Z M 11.835938 28.725586 L 23.173828 33.266602 L 26.425781 30.117188 L 15.073242 25.576172 Z M 11.835938 28.725586 " transform="matrix(0.266667,0,0,0.266667,0,0)"/>
</g>
</svg>
