<?xml version="1.0" encoding="UTF-8"?>
<svg xmlns="http://www.w3.org/2000/svg" xmlns:xlink="http://www.w3.org/1999/xlink" width="16px" height="16px" viewBox="0 0 16 16" version="1.1">
<g id="surface1">
<path style=" stroke:none;fill-rule:nonzero;fill:rgb(91.764706%,40.784314%,9.411765%);fill-opacity:1;" d="M 16 8 C 16 12.417969 12.417969 16 8 16 C 3.582031 16 0 12.417969 0 8 C 0 3.582031 3.582031 0 8 0 C 12.417969 0 16 3.582031 16 8 Z M 16 8 "/>
<path style="fill-rule:nonzero;fill:rgb(100%,100%,100%);fill-opacity:1;stroke-width:0.5;stroke-linecap:butt;stroke-linejoin:miter;stroke:rgb(100%,100%,100%);stroke-opacity:1;stroke-miterlimit:4;" d="M 44.355469 47.373047 C 43.989258 47.373047 43.681641 47.094727 43.623047 46.728516 C 42.055664 33.339844 33.00293 30.263672 27.246094 29.692383 L 27.246094 36.474609 C 27.231445 36.767578 27.070312 37.03125 26.821289 37.148438 C 26.557617 37.280273 26.25 37.250977 26.030273 37.075195 L 11.000977 25.253906 C 10.825195 25.12207 10.708008 24.902344 10.708008 24.682617 C 10.708008 24.448242 10.810547 24.228516 11.000977 24.09668 L 26.000977 12.275391 C 26.235352 12.114258 26.52832 12.084961 26.791992 12.202148 C 27.041016 12.333984 27.202148 12.583008 27.216797 12.875977 L 27.216797 18.676758 C 34.262695 19.672852 39.433594 22.485352 42.568359 26.953125 C 45.981445 31.845703 46.875 38.774414 45.117188 46.494141 L 45.058594 46.743164 C 45 47.094727 44.692383 47.373047 44.326172 47.373047 Z M 26.484375 28.139648 L 26.542969 28.139648 C 31.040039 28.432617 41.118164 30.454102 44.326172 42.480469 C 45.014648 36.694336 43.989258 31.582031 41.323242 27.817383 C 38.334961 23.554688 33.325195 20.947266 26.323242 20.053711 C 25.957031 20.009766 25.678711 19.6875 25.678711 19.321289 L 25.678711 14.414062 L 12.65625 24.682617 L 25.737305 34.936523 L 25.737305 28.886719 C 25.751953 28.476562 26.074219 28.139648 26.484375 28.139648 Z M 26.484375 28.139648 " transform="matrix(0.266667,0,0,0.266667,0,0)"/>
</g>
</svg>
