<?xml version="1.0" encoding="UTF-8"?>
<svg xmlns="http://www.w3.org/2000/svg" xmlns:xlink="http://www.w3.org/1999/xlink" width="16px" height="16px" viewBox="0 0 16 16" version="1.1">
<g id="surface1">
<path style=" stroke:none;fill-rule:nonzero;fill:rgb(100%,76.470588%,11.372549%);fill-opacity:1;" d="M 16 8 C 16 12.417969 12.417969 16 8 16 C 3.582031 16 0 12.417969 0 8 C 0 3.582031 3.582031 0 8 0 C 12.417969 0 16 3.582031 16 8 Z M 16 8 "/>
<path style="fill-rule:nonzero;fill:rgb(0%,0%,0%);fill-opacity:1;stroke-width:0.25;stroke-linecap:butt;stroke-linejoin:miter;stroke:rgb(0%,0%,0%);stroke-opacity:1;stroke-miterlimit:4;" d="M 35.405273 26.000977 L 50.742188 26.337891 L 50.932617 39.169922 C 50.844727 39.169922 50.712891 39.169922 50.581055 39.169922 C 41.396484 39.052734 32.197266 38.920898 22.998047 38.759766 C 20.068359 38.789062 17.167969 38.217773 14.458008 37.104492 C 13.344727 36.679688 12.348633 35.991211 11.542969 35.097656 C 11.015625 34.482422 10.722656 33.691406 10.708008 32.871094 C 10.708008 29.707031 10.620117 26.542969 10.576172 23.364258 C 10.576172 22.954102 10.576172 22.543945 10.50293 22.133789 C 10.400391 21.005859 10.898438 19.907227 11.821289 19.233398 C 12.905273 18.339844 14.165039 17.709961 15.527344 17.387695 C 20.493164 16.010742 25.751953 16.142578 30.644531 17.753906 C 31.962891 18.134766 33.178711 18.823242 34.174805 19.746094 C 34.995117 20.493164 35.43457 21.5625 35.34668 22.675781 C 35.273438 23.789062 35.375977 24.916992 35.405273 26.000977 Z M 49.174805 37.426758 L 48.999023 27.93457 L 48.764648 27.93457 L 23.276367 27.539062 C 20.756836 27.553711 18.251953 27.1875 15.834961 26.484375 C 14.545898 26.088867 13.31543 25.50293 12.1875 24.741211 C 12.1875 24.946289 12.1875 25.078125 12.1875 25.224609 C 12.1875 27.626953 12.290039 30.029297 12.275391 32.431641 C 12.231445 33.295898 12.65625 34.130859 13.374023 34.614258 C 14.311523 35.258789 15.351562 35.742188 16.450195 36.064453 L 16.450195 35.053711 L 18.193359 35.053711 L 18.105469 36.503906 L 21.09375 36.958008 L 21.035156 32.958984 L 22.734375 32.958984 L 22.734375 36.899414 L 25.620117 36.899414 L 25.532227 35.126953 L 27.304688 35.126953 L 27.304688 36.943359 L 30.205078 36.987305 L 30.131836 33.076172 L 31.801758 33.017578 L 31.801758 37.016602 L 34.804688 37.075195 L 34.702148 35.273438 L 36.445312 35.273438 L 36.386719 37.060547 L 39.389648 37.119141 L 39.316406 33.251953 L 40.97168 33.251953 L 40.97168 37.250977 L 43.974609 37.250977 L 44.003906 35.581055 L 45.776367 35.581055 L 45.703125 37.368164 Z M 12.993164 20.419922 C 11.923828 21.416016 11.99707 22.324219 12.949219 23.188477 C 13.87207 23.964844 14.956055 24.550781 16.113281 24.887695 C 18.603516 25.649414 21.196289 25.986328 23.803711 25.883789 C 26.279297 25.927734 28.754883 25.473633 31.054688 24.56543 C 31.787109 24.243164 32.460938 23.818359 33.061523 23.276367 C 33.442383 22.998047 33.662109 22.558594 33.662109 22.089844 C 33.662109 21.606445 33.442383 21.166992 33.061523 20.888672 C 32.314453 20.185547 31.40625 19.672852 30.424805 19.365234 C 25.722656 17.724609 20.639648 17.592773 15.864258 18.999023 C 14.824219 19.248047 13.842773 19.731445 12.993164 20.419922 Z M 33.632812 25.136719 L 32.226562 26.000977 L 33.632812 26.044922 Z M 33.632812 25.136719 " transform="matrix(0.266667,0,0,0.266667,0,0)"/>
<path style="fill-rule:nonzero;fill:rgb(0%,0%,0%);fill-opacity:1;stroke-width:0.25;stroke-linecap:butt;stroke-linejoin:miter;stroke:rgb(0%,0%,0%);stroke-opacity:1;stroke-miterlimit:4;" d="M 27.670898 20.639648 C 28.110352 21.035156 28.330078 21.606445 28.286133 22.192383 C 28.242188 22.77832 27.93457 23.320312 27.436523 23.642578 C 26.630859 24.155273 25.722656 24.462891 24.770508 24.536133 C 23.188477 24.799805 21.577148 24.697266 20.053711 24.243164 C 19.40918 24.023438 18.808594 23.71582 18.266602 23.320312 C 17.783203 22.998047 17.504883 22.470703 17.490234 21.899414 C 17.490234 21.328125 17.753906 20.800781 18.208008 20.463867 C 19.145508 19.804688 20.258789 19.438477 21.401367 19.394531 C 23.012695 19.204102 24.65332 19.365234 26.206055 19.87793 C 26.704102 20.097656 27.202148 20.361328 27.670898 20.639648 Z M 26.616211 22.001953 C 26.396484 21.855469 26.191406 21.723633 25.957031 21.606445 C 24.960938 21.181641 23.891602 20.976562 22.822266 21.005859 C 21.796875 20.947266 20.771484 21.123047 19.819336 21.503906 C 19.555664 21.635742 19.321289 21.796875 19.086914 21.987305 C 20.639648 23.364258 25.605469 23.305664 26.616211 22.001953 Z M 26.616211 22.001953 " transform="matrix(0.266667,0,0,0.266667,0,0)"/>
</g>
</svg>
