<?xml version="1.0" encoding="UTF-8"?>
<svg xmlns="http://www.w3.org/2000/svg" xmlns:xlink="http://www.w3.org/1999/xlink" width="16px" height="16px" viewBox="0 0 16 16" version="1.1">
<g id="surface1">
<path style=" stroke:none;fill-rule:nonzero;fill:rgb(25.490196%,45.882353%,0%);fill-opacity:1;" d="M 16 8 C 16 12.417969 12.417969 16 8 16 C 3.582031 16 0 12.417969 0 8 C 0 3.582031 3.582031 0 8 0 C 12.417969 0 16 3.582031 16 8 Z M 16 8 "/>
<path style="fill-rule:nonzero;fill:rgb(100%,100%,100%);fill-opacity:1;stroke-width:0.5;stroke-linecap:butt;stroke-linejoin:miter;stroke:rgb(100%,100%,100%);stroke-opacity:1;stroke-miterlimit:4;" d="M 20.874023 45.117188 C 18.28125 45.117188 16.186523 43.022461 16.186523 40.429688 C 16.186523 37.836914 18.28125 35.742188 20.874023 35.742188 C 23.466797 35.742188 25.561523 37.836914 25.561523 40.429688 C 25.561523 43.022461 23.452148 45.117188 20.874023 45.117188 Z M 20.874023 37.441406 C 19.21875 37.441406 17.871094 38.789062 17.871094 40.444336 C 17.871094 42.099609 19.21875 43.447266 20.874023 43.447266 C 22.529297 43.447266 23.876953 42.099609 23.876953 40.444336 C 23.876953 38.789062 22.529297 37.441406 20.874023 37.441406 Z M 20.874023 37.441406 " transform="matrix(0.266667,0,0,0.266667,0,0)"/>
<path style="fill-rule:nonzero;fill:rgb(100%,100%,100%);fill-opacity:1;stroke-width:0.5;stroke-linecap:butt;stroke-linejoin:miter;stroke:rgb(100%,100%,100%);stroke-opacity:1;stroke-miterlimit:4;" d="M 39.916992 45.117188 C 37.324219 45.117188 35.229492 43.022461 35.229492 40.429688 C 35.229492 37.836914 37.324219 35.742188 39.916992 35.742188 C 42.509766 35.742188 44.604492 37.836914 44.604492 40.429688 C 44.604492 43.022461 42.509766 45.117188 39.916992 45.117188 Z M 39.916992 37.441406 C 38.261719 37.441406 36.914062 38.789062 36.914062 40.444336 C 36.914062 42.099609 38.261719 43.447266 39.916992 43.447266 C 41.572266 43.447266 42.919922 42.099609 42.919922 40.444336 C 42.919922 38.789062 41.572266 37.441406 39.916992 37.441406 Z M 39.916992 37.441406 " transform="matrix(0.266667,0,0,0.266667,0,0)"/>
<path style="fill-rule:nonzero;fill:rgb(100%,100%,100%);fill-opacity:1;stroke-width:0.5;stroke-linecap:butt;stroke-linejoin:miter;stroke:rgb(100%,100%,100%);stroke-opacity:1;stroke-miterlimit:4;" d="M 36.079102 41.279297 L 25.253906 41.279297 C 24.931641 41.308594 24.624023 41.162109 24.448242 40.883789 C 24.272461 40.605469 24.272461 40.253906 24.448242 39.990234 C 24.624023 39.711914 24.931641 39.550781 25.253906 39.594727 L 36.079102 39.594727 C 36.401367 39.550781 36.723633 39.711914 36.899414 39.990234 C 37.060547 40.253906 37.060547 40.605469 36.899414 40.883789 C 36.723633 41.162109 36.401367 41.308594 36.079102 41.279297 Z M 36.079102 41.279297 " transform="matrix(0.266667,0,0,0.266667,0,0)"/>
<path style="fill-rule:nonzero;fill:rgb(100%,100%,100%);fill-opacity:1;stroke-width:0.5;stroke-linecap:butt;stroke-linejoin:miter;stroke:rgb(100%,100%,100%);stroke-opacity:1;stroke-miterlimit:4;" d="M 21.474609 37.324219 C 21.401367 37.338867 21.313477 37.338867 21.225586 37.324219 C 21.020508 37.265625 20.830078 37.119141 20.727539 36.914062 C 20.625 36.723633 20.595703 36.489258 20.668945 36.269531 L 21.665039 32.944336 L 15.908203 15.512695 L 11.176758 14.165039 C 10.722656 14.047852 10.458984 13.579102 10.59082 13.125 C 10.722656 12.670898 11.191406 12.407227 11.645508 12.524414 L 16.801758 14.003906 C 17.06543 14.077148 17.285156 14.282227 17.373047 14.545898 L 23.364258 32.62207 C 23.422852 32.783203 23.422852 32.973633 23.364258 33.134766 L 22.250977 36.723633 C 22.148438 37.075195 21.811523 37.324219 21.445312 37.324219 Z M 21.474609 37.324219 " transform="matrix(0.266667,0,0,0.266667,0,0)"/>
<path style="fill-rule:nonzero;fill:rgb(100%,100%,100%);fill-opacity:1;stroke-width:0.5;stroke-linecap:butt;stroke-linejoin:miter;stroke:rgb(100%,100%,100%);stroke-opacity:1;stroke-miterlimit:4;" d="M 44.223633 33.735352 L 22.602539 33.735352 C 22.236328 33.75 21.899414 33.500977 21.796875 33.149414 L 17.607422 19.790039 C 17.519531 19.526367 17.563477 19.248047 17.724609 19.02832 C 17.900391 18.823242 18.149414 18.691406 18.413086 18.691406 L 48.94043 18.691406 C 49.204102 18.691406 49.467773 18.808594 49.614258 19.02832 C 49.775391 19.248047 49.833984 19.511719 49.760742 19.775391 L 46.303711 31.860352 C 46.230469 32.944336 45.322266 33.779297 44.223633 33.735352 Z M 23.232422 32.050781 L 44.223633 32.050781 C 44.326172 32.06543 44.414062 32.036133 44.487305 31.977539 C 44.560547 31.918945 44.604492 31.831055 44.604492 31.728516 C 44.604492 31.655273 44.604492 31.567383 44.604492 31.494141 L 47.783203 20.390625 L 19.570312 20.390625 L 23.217773 32.050781 Z M 23.232422 32.050781 " transform="matrix(0.266667,0,0,0.266667,0,0)"/>
</g>
</svg>
