<?xml version="1.0" encoding="UTF-8"?>
<svg xmlns="http://www.w3.org/2000/svg" xmlns:xlink="http://www.w3.org/1999/xlink" width="16px" height="16px" viewBox="0 0 16 16" version="1.1">
<g id="surface1">
<path style=" stroke:none;fill-rule:nonzero;fill:rgb(20%,20%,20%);fill-opacity:1;" d="M 16 8 C 16 12.417969 12.417969 16 8 16 C 3.582031 16 0 12.417969 0 8 C 0 3.582031 3.582031 0 8 0 C 12.417969 0 16 3.582031 16 8 Z M 16 8 "/>
<path style="fill-rule:nonzero;fill:rgb(100%,100%,100%);fill-opacity:1;stroke-width:0.5;stroke-linecap:butt;stroke-linejoin:miter;stroke:rgb(100%,100%,100%);stroke-opacity:1;stroke-miterlimit:4;" d="M 29.897461 26.455078 C 26.030273 26.455078 22.895508 22.895508 22.895508 18.457031 C 22.895508 14.033203 26.044922 10.458984 29.897461 10.458984 C 33.75 10.458984 36.899414 14.033203 36.899414 18.457031 C 36.899414 22.895508 33.75 26.455078 29.897461 26.455078 Z M 29.897461 12.158203 C 26.894531 12.158203 24.521484 15 24.521484 18.486328 C 24.521484 21.987305 26.923828 24.829102 29.897461 24.829102 C 32.871094 24.829102 35.288086 21.987305 35.288086 18.486328 C 35.288086 14.985352 32.871094 12.158203 29.897461 12.158203 Z M 29.897461 12.158203 " transform="matrix(0.266667,0,0,0.266667,0,0)"/>
<path style="fill-rule:nonzero;fill:rgb(100%,100%,100%);fill-opacity:1;stroke-width:0.5;stroke-linecap:butt;stroke-linejoin:miter;stroke:rgb(100%,100%,100%);stroke-opacity:1;stroke-miterlimit:4;" d="M 41.704102 46.68457 L 17.827148 46.68457 C 17.387695 46.669922 17.036133 46.347656 17.006836 45.922852 L 16.479492 38.203125 C 16.494141 35.43457 18.193359 32.944336 20.756836 31.889648 C 26.586914 29.824219 32.944336 29.824219 38.759766 31.889648 C 41.337891 32.929688 43.037109 35.43457 43.037109 38.203125 L 42.524414 45.922852 C 42.480469 46.347656 42.128906 46.669922 41.704102 46.68457 Z M 18.588867 45 L 41.000977 45 L 41.469727 38.056641 C 41.411133 36.005859 40.151367 34.174805 38.261719 33.383789 C 32.797852 31.435547 26.835938 31.435547 21.37207 33.383789 C 19.482422 34.174805 18.222656 36.005859 18.164062 38.056641 Z M 18.588867 45 " transform="matrix(0.266667,0,0,0.266667,0,0)"/>
</g>
</svg>
