<?xml version="1.0" encoding="UTF-8"?>
<svg xmlns="http://www.w3.org/2000/svg" xmlns:xlink="http://www.w3.org/1999/xlink" width="16px" height="16px" viewBox="0 0 16 16" version="1.1">
<g id="surface1">
<path style=" stroke:none;fill-rule:nonzero;fill:rgb(21.176471%,20.392157%,21.176471%);fill-opacity:1;" d="M 16 8 C 16 12.417969 12.417969 16 8 16 C 3.582031 16 0 12.417969 0 8 C 0 3.582031 3.582031 0 8 0 C 12.417969 0 16 3.582031 16 8 Z M 16 8 "/>
<path style="fill-rule:nonzero;fill:rgb(100%,100%,100%);fill-opacity:1;stroke-width:0.5;stroke-linecap:butt;stroke-linejoin:miter;stroke:rgb(100%,100%,100%);stroke-opacity:1;stroke-miterlimit:4;" d="M 42.568359 45.541992 L 16.40625 45.541992 C 15.19043 45.527344 14.223633 44.560547 14.223633 43.344727 L 14.223633 27.84668 C 14.223633 26.645508 15.19043 25.664062 16.40625 25.664062 L 42.568359 25.664062 C 43.769531 25.664062 44.750977 26.645508 44.750977 27.84668 L 44.750977 43.344727 C 44.750977 44.560547 43.769531 45.527344 42.568359 45.541992 Z M 16.40625 27.114258 C 15.996094 27.114258 15.673828 27.451172 15.673828 27.84668 L 15.673828 43.344727 C 15.673828 43.754883 15.996094 44.077148 16.40625 44.077148 L 42.568359 44.077148 C 42.978516 44.077148 43.300781 43.754883 43.300781 43.344727 L 43.300781 27.84668 C 43.300781 27.451172 42.978516 27.114258 42.568359 27.114258 Z M 16.40625 27.114258 " transform="matrix(0.266667,0,0,0.266667,0,0)"/>
<path style="fill-rule:nonzero;fill:rgb(100%,100%,100%);fill-opacity:1;stroke-width:0.5;stroke-linecap:butt;stroke-linejoin:miter;stroke:rgb(100%,100%,100%);stroke-opacity:1;stroke-miterlimit:4;" d="M 38.803711 26.762695 C 38.613281 26.762695 38.4375 26.689453 38.291016 26.542969 C 38.15918 26.411133 38.085938 26.220703 38.085938 26.030273 L 38.085938 22.001953 C 37.924805 17.358398 34.130859 13.681641 29.487305 13.681641 C 24.84375 13.681641 21.035156 17.358398 20.874023 22.001953 L 20.874023 26.000977 C 20.917969 26.279297 20.786133 26.557617 20.537109 26.704102 C 20.302734 26.850586 20.009766 26.850586 19.760742 26.704102 C 19.526367 26.557617 19.394531 26.279297 19.423828 26.000977 L 19.423828 22.001953 C 19.321289 18.325195 21.210938 14.897461 24.360352 13.022461 C 27.524414 11.162109 31.450195 11.162109 34.599609 13.022461 C 37.763672 14.897461 39.65332 18.325195 39.536133 22.001953 L 39.536133 26.000977 C 39.536133 26.396484 39.213867 26.733398 38.803711 26.733398 Z M 38.803711 26.762695 " transform="matrix(0.266667,0,0,0.266667,0,0)"/>
<path style="fill-rule:nonzero;fill:rgb(100%,100%,100%);fill-opacity:1;stroke-width:0.5;stroke-linecap:butt;stroke-linejoin:miter;stroke:rgb(100%,100%,100%);stroke-opacity:1;stroke-miterlimit:4;" d="M 31.655273 40.444336 L 27.304688 40.444336 L 27.304688 36.708984 C 25.97168 35.756836 25.400391 34.057617 25.898438 32.504883 C 26.396484 30.9375 27.84668 29.882812 29.487305 29.882812 C 31.113281 29.882812 32.563477 30.9375 33.061523 32.504883 C 33.55957 34.057617 32.988281 35.756836 31.655273 36.708984 Z M 28.754883 38.994141 L 30.205078 38.994141 L 30.205078 35.874023 L 30.585938 35.683594 C 31.567383 35.141602 32.021484 33.969727 31.655273 32.900391 C 31.274414 31.845703 30.19043 31.201172 29.091797 31.391602 C 27.978516 31.582031 27.172852 32.548828 27.172852 33.676758 C 27.1875 34.511719 27.641602 35.288086 28.374023 35.683594 L 28.754883 35.888672 Z M 28.754883 38.994141 " transform="matrix(0.266667,0,0,0.266667,0,0)"/>
</g>
</svg>
