<?xml version="1.0" encoding="UTF-8"?>
<svg xmlns="http://www.w3.org/2000/svg" xmlns:xlink="http://www.w3.org/1999/xlink" width="16px" height="16px" viewBox="0 0 16 16" version="1.1">
<g id="surface1">
<path style=" stroke:none;fill-rule:nonzero;fill:rgb(0.392157%,42.745098%,70.588235%);fill-opacity:1;" d="M 16 8 C 16 12.417969 12.417969 16 8 16 C 3.582031 16 0 12.417969 0 8 C 0 3.582031 3.582031 0 8 0 C 12.417969 0 16 3.582031 16 8 Z M 16 8 "/>
<path style="fill-rule:nonzero;fill:rgb(100%,100%,100%);fill-opacity:1;stroke-width:0.5;stroke-linecap:butt;stroke-linejoin:miter;stroke:rgb(100%,100%,100%);stroke-opacity:1;stroke-miterlimit:4;" d="M 29.677734 47.197266 C 29.501953 47.197266 29.326172 47.124023 29.194336 47.006836 C 28.623047 46.523438 15.205078 34.995117 15.205078 27.172852 C 15.058594 21.928711 17.783203 17.021484 22.30957 14.355469 C 26.835938 11.689453 32.446289 11.689453 36.972656 14.355469 C 41.499023 17.021484 44.223633 21.928711 44.091797 27.172852 C 44.091797 34.995117 30.703125 46.523438 30.087891 47.006836 C 29.956055 47.109375 29.780273 47.182617 29.604492 47.182617 Z M 29.677734 14.194336 C 22.5 14.194336 16.68457 20.024414 16.68457 27.202148 C 16.68457 33.55957 27.246094 43.344727 29.677734 45.483398 C 32.080078 43.344727 42.685547 33.55957 42.685547 27.202148 C 42.685547 20.024414 36.855469 14.194336 29.677734 14.194336 Z M 29.677734 14.194336 " transform="matrix(0.266667,0,0,0.266667,0,0)"/>
<path style="fill-rule:nonzero;fill:rgb(100%,100%,100%);fill-opacity:1;stroke-width:0.5;stroke-linecap:butt;stroke-linejoin:miter;stroke:rgb(100%,100%,100%);stroke-opacity:1;stroke-miterlimit:4;" d="M 29.677734 33.867188 C 26.000977 33.881836 22.998047 30.893555 22.998047 27.202148 C 22.998047 23.525391 25.986328 20.537109 29.663086 20.537109 C 33.354492 20.522461 36.342773 23.510742 36.342773 27.202148 C 36.342773 30.878906 33.354492 33.867188 29.677734 33.867188 Z M 29.677734 22.016602 C 26.806641 22.001953 24.477539 24.331055 24.477539 27.1875 C 24.477539 30.058594 26.791992 32.387695 29.663086 32.387695 C 32.53418 32.387695 34.863281 30.073242 34.863281 27.202148 C 34.863281 24.331055 32.548828 22.016602 29.677734 22.001953 Z M 29.677734 22.016602 " transform="matrix(0.266667,0,0,0.266667,0,0)"/>
</g>
</svg>
