<?xml version="1.0" encoding="UTF-8"?>
<svg xmlns="http://www.w3.org/2000/svg" xmlns:xlink="http://www.w3.org/1999/xlink" width="16px" height="16px" viewBox="0 0 16 16" version="1.1">
<g id="surface1">
<path style=" stroke:none;fill-rule:nonzero;fill:rgb(21.176471%,20.392157%,21.176471%);fill-opacity:1;" d="M 16 8 C 16 12.417969 12.417969 16 8 16 C 3.582031 16 0 12.417969 0 8 C 0 3.582031 3.582031 0 8 0 C 12.417969 0 16 3.582031 16 8 Z M 16 8 "/>
<path style="fill-rule:nonzero;fill:rgb(100%,100%,100%);fill-opacity:1;stroke-width:0.5;stroke-linecap:butt;stroke-linejoin:miter;stroke:rgb(100%,100%,100%);stroke-opacity:1;stroke-miterlimit:4;" d="M 33.603516 45.498047 C 33.193359 45.498047 32.856445 45.161133 32.856445 44.736328 L 32.856445 35.625 C 32.856445 35.214844 33.193359 34.863281 33.603516 34.863281 L 42.714844 34.863281 C 43.139648 34.863281 43.476562 35.214844 43.476562 35.625 C 43.476562 36.049805 43.139648 36.386719 42.714844 36.386719 L 34.365234 36.386719 L 34.365234 44.736328 C 34.365234 45.161133 34.02832 45.498047 33.603516 45.498047 Z M 33.603516 45.498047 " transform="matrix(0.266667,0,0,0.266667,0,0)"/>
<path style="fill-rule:nonzero;fill:rgb(100%,100%,100%);fill-opacity:1;stroke-width:0.5;stroke-linecap:butt;stroke-linejoin:miter;stroke:rgb(100%,100%,100%);stroke-opacity:1;stroke-miterlimit:4;" d="M 33.603516 45.498047 L 17.929688 45.498047 C 17.504883 45.498047 17.167969 45.161133 17.167969 44.736328 L 17.167969 13.579102 C 17.167969 13.154297 17.504883 12.817383 17.929688 12.817383 L 42.714844 12.817383 C 43.139648 12.817383 43.476562 13.154297 43.476562 13.579102 L 43.476562 35.625 C 43.476562 35.830078 43.40332 36.020508 43.256836 36.166992 L 34.145508 45.27832 C 33.999023 45.424805 33.808594 45.498047 33.603516 45.498047 Z M 18.676758 44.003906 L 33.295898 44.003906 L 41.99707 35.317383 L 41.99707 14.326172 L 18.676758 14.326172 Z M 18.676758 44.003906 " transform="matrix(0.266667,0,0,0.266667,0,0)"/>
<path style="fill-rule:nonzero;fill:rgb(100%,100%,100%);fill-opacity:1;stroke-width:0.5;stroke-linecap:butt;stroke-linejoin:miter;stroke:rgb(100%,100%,100%);stroke-opacity:1;stroke-miterlimit:4;" d="M 32.006836 20.083008 L 23.056641 20.083008 C 22.631836 20.083008 22.294922 19.746094 22.294922 19.335938 C 22.294922 18.911133 22.631836 18.574219 23.056641 18.574219 L 32.006836 18.574219 C 32.416992 18.574219 32.753906 18.911133 32.753906 19.335938 C 32.753906 19.746094 32.416992 20.083008 32.006836 20.083008 Z M 32.006836 20.083008 " transform="matrix(0.266667,0,0,0.266667,0,0)"/>
<path style="fill-rule:nonzero;fill:rgb(100%,100%,100%);fill-opacity:1;stroke-width:0.5;stroke-linecap:butt;stroke-linejoin:miter;stroke:rgb(100%,100%,100%);stroke-opacity:1;stroke-miterlimit:4;" d="M 37.851562 23.759766 L 23.056641 23.759766 C 22.763672 23.789062 22.470703 23.657227 22.324219 23.408203 C 22.163086 23.15918 22.163086 22.851562 22.324219 22.602539 C 22.470703 22.353516 22.763672 22.22168 23.056641 22.250977 L 37.851562 22.250977 C 38.144531 22.22168 38.422852 22.353516 38.583984 22.602539 C 38.730469 22.851562 38.730469 23.15918 38.583984 23.408203 C 38.422852 23.657227 38.144531 23.789062 37.851562 23.759766 Z M 37.851562 23.759766 " transform="matrix(0.266667,0,0,0.266667,0,0)"/>
<path style="fill-rule:nonzero;fill:rgb(100%,100%,100%);fill-opacity:1;stroke-width:0.5;stroke-linecap:butt;stroke-linejoin:miter;stroke:rgb(100%,100%,100%);stroke-opacity:1;stroke-miterlimit:4;" d="M 37.851562 27.436523 L 23.056641 27.436523 C 22.631836 27.436523 22.294922 27.084961 22.294922 26.674805 C 22.294922 26.25 22.631836 25.913086 23.056641 25.913086 L 37.851562 25.913086 C 38.276367 25.913086 38.613281 26.25 38.613281 26.674805 C 38.613281 27.084961 38.276367 27.436523 37.851562 27.436523 Z M 37.851562 27.436523 " transform="matrix(0.266667,0,0,0.266667,0,0)"/>
<path style="fill-rule:nonzero;fill:rgb(100%,100%,100%);fill-opacity:1;stroke-width:0.5;stroke-linecap:butt;stroke-linejoin:miter;stroke:rgb(100%,100%,100%);stroke-opacity:1;stroke-miterlimit:4;" d="M 29.25293 31.098633 L 23.056641 31.098633 C 22.631836 31.098633 22.294922 30.761719 22.294922 30.336914 C 22.294922 29.926758 22.631836 29.575195 23.056641 29.575195 L 29.25293 29.575195 C 29.663086 29.575195 30.014648 29.926758 30.014648 30.336914 C 30.014648 30.761719 29.663086 31.098633 29.25293 31.098633 Z M 29.25293 31.098633 " transform="matrix(0.266667,0,0,0.266667,0,0)"/>
</g>
</svg>
